{
copyright = "(c) Copyright Pooja Saxena, 2014.";
date = "2014-10-29 05:54:31 +0000";
designer = "Pooja Saxena";
designerURL = "http://www.poojasaxena.in/";
familyName = "Cambay Devanagari";
featurePrefixes = (
{
automatic = 1;
code = "languagesystem DFLT dflt;\012languagesystem dev2 dflt;\012";
name = Languagesystems;
}
);
features = (
{
automatic = 1;
code = "feature nukt;\012feature rphf;\012feature rkrf;\012feature half;\012feature cjct;\012feature abvs;\012feature psts;\012";
name = aalt;
},
{
automatic = 1;
code = "sub ka-deva nukta-deva by qa-deva;\012sub kha-deva nukta-deva by khha-deva;\012sub ga-deva nukta-deva by ghha-deva;\012sub ja-deva nukta-deva by za-deva;\012sub dda-deva nukta-deva by dddha-deva;\012sub ddha-deva nukta-deva by rha-deva;\012sub na-deva nukta-deva by nnna-deva;\012sub pha-deva nukta-deva by fa-deva;\012sub ya-deva nukta-deva by yya-deva;\012sub ra-deva nukta-deva by rra-deva;\012";
name = nukt;
},
{
code = "sub ka-deva halant-deva ssa-deva by k_ssa-deva;\012sub ja-deva halant-deva nya-deva by j_nya-deva;";
name = akhn;
},
{
code = "sub ra-deva halant-deva by reph-deva;";
name = rphf;
},
{

glyphs = (
{
glyphname = A;
lastChange = "2014-10-27 07:04:04 +0000";
layers = (
{
anchors = (
{
name = top.cap;
position = "{268, 560}";
}
);
layerId = "CFA4B904-E3F1-48B6-A7F6-47DC1FF2A3E1";
name = Bold;
paths = (
{
closed = 1;
nodes = (
"522 0 LINE",
"423 0 LINE",
"367 145 LINE",
"164 145 LINE",
"109 0 LINE",
"13 0 LINE",
"220 550 LINE",
"315 550 LINE"
);
},
{
closed = 1;
nodes = (
"195 233 LINE",
"335 233 LINE",
"265 439 LINE"
);
}
);
width = 535;
}
);
unicode = 0041;
},
{
glyphname = Aogonek;
layers = (
{
layerId = "CFA4B904-E3F1-48B6-A7F6-47DC1FF2A3E1";
name = Bold;
paths = (
{
closed = 1;
nodes = (
"195 233 LINE",
"335 233 LINE",
"265 439 LINE"
);
},
{
closed = 1;
nodes = (
"164 145 LINE",
"109 0 LINE",
"13 0 LINE",
"220 550 LINE",
"315 550 LINE",
"522 0 LINE",
"395 -39 OFFCURVE",
"365 -56 OFFCURVE",
"365 -87 CURVE SMOOTH",
"365 -115 OFFCURVE",
"379 -137 OFFCURVE",
"414 -137 CURVE SMOOTH",
"439 -137 OFFCURVE",
"465 -125 OFFCURVE",
"485 -118 CURVE",
"508 -162 LINE",
"475 -182 OFFCURVE",
"438 -200 OFFCURVE",
"383 -200 CURVE SMOOTH",
"311 -200 OFFCURVE",
"272 -156 OFFCURVE",
"272 -99 CURVE SMOOTH",
"272 -40 OFFCURVE",
"320 -12 OFFCURVE",
"411 25 CURVE",
"367 145 LINE"
);
}
);
width = 535;
}
);
unicode = 0104;
},
{
glyphname = Aring;
layers = (
{
layerId = "CFA4B904-E3F1-48B6-A7F6-47DC1FF2A3E1";
name = Bold;
paths = (
{
closed = 1;
nodes = (
"367 570 OFFCURVE",
"352 538 OFFCURVE",
"328 521 CURVE",
"522 0 LINE",
"423 0 LINE",
"367 145 LINE",
"164 145 LINE",
"109 0 LINE",
"13 0 LINE",
"207 518 LINE",
"183 537 OFFCURVE",
"165 568 OFFCURVE",
"165 603 CURVE SMOOTH",
"165 659 OFFCURVE",
"209 705 OFFCURVE",
"266 705 CURVE SMOOTH",
"322 705 OFFCURVE",
"367 659 OFFCURVE",
"367 603 CURVE SMOOTH"
);
},
{
closed = 1;
nodes = (
"195 233 LINE",
"335 233 LINE",
"265 439 LINE"
);
},
{
closed = 1;
nodes = (
"243 642 OFFCURVE",
"227 623 OFFCURVE",
"227 603 CURVE SMOOTH",
"227 580 OFFCURVE",
"242 562 OFFCURVE",
"266 562 CURVE SMOOTH",
"286 562 OFFCURVE",
"304 580 OFFCURVE",
"304 603 CURVE SMOOTH",
"304 623 OFFCURVE",
"286 642 OFFCURVE",
"266 642 CURVE SMOOTH"
);
}
);
width = 535;
}
);
unicode = 00C5;
},
{
glyphname = AE;
lastChange = "2014-10-27 11:11:48 +0000";
layers = (
{
layerId = "CFA4B904-E3F1-48B6-A7F6-47DC1FF2A3E1";
name = Bold;
paths = (
{
closed = 1;
nodes = (
"361 233 LINE",
"361 462 LINE",
"315 462 LINE",
"215 233 LINE"
);
},
{
closed = 1;
nodes = (
"177 145 LINE",
"111 0 LINE",
"13 0 LINE",
"250 550 LINE",
"712 550 LINE",
"712 462 LINE",
"455 462 LINE",
"455 324 LINE",
"684 324 LINE",
"684 235 LINE",
"455 235 LINE",
"455 89 LINE",
"712 89 LINE",
"712 0 LINE",
"361 0 LINE",
"361 145 LINE"
);
}
);
width = 757;
}
);
unicode = 00C6;
},
{
glyphname = B;
lastChange = "2014-10-27 04:59:24 +0000";
layers = (
{
layerId = "CFA4B904-E3F1-48B6-A7F6-47DC1FF2A3E1";
name = Bold;
paths = (
{
closed = 1;
nodes = (
"161 324 LINE",
"232 324 LINE SMOOTH",
"313 324 OFFCURVE",
"345 347 OFFCURVE",
"345 394 CURVE SMOOTH",
"345 436 OFFCURVE",
"322 465 OFFCURVE",
"232 465 CURVE SMOOTH",
"161 465 LINE"
);
},
{
closed = 1;
nodes = (
"161 86 LINE",
"225 86 LINE SMOOTH",
"328 86 OFFCURVE",
"387 101 OFFCURVE",
"387 161 CURVE SMOOTH",
"387 212 OFFCURVE",
"342 242 OFFCURVE",
"225 242 CURVE SMOOTH",
"161 241 LINE"
);
},
{
closed = 1;
nodes = (
"412 550 OFFCURVE",
"440 459 OFFCURVE",
"440 407 CURVE SMOOTH",
"440 358 OFFCURVE",
"419 316 OFFCURVE",
"368 285 CURVE",
"445 269 OFFCURVE",
"484 207 OFFCURVE",
"484 150 CURVE SMOOTH",
"484 86 OFFCURVE",
"442 0 OFFCURVE",
"237 0 CURVE SMOOTH",
"63 0 LINE",
"63 550 LINE",
"250 550 LINE SMOOTH"
);
}
);
width = 515;
}
);
unicode = 0042;
},
{
glyphname = C;
lastChange = "2014-10-27 07:04:21 +0000";
layers = (
{
anchors = (
{
name = top.cap;
position = "{333, 560}";
}
);
layerId = "CFA4B904-E3F1-48B6-A7F6-47DC1FF2A3E1";
name = Bold;
paths = (
{
closed = 1;
nodes = (
"377 555 OFFCURVE",
"430 548 OFFCURVE",
"487 524 CURVE",
"503 518 LINE",
"470 441 LINE",
"455 446 LINE",
"394 469 OFFCURVE",
"356 468 OFFCURVE",
"331 468 CURVE SMOOTH",
"212 468 OFFCURVE",
"140 382 OFFCURVE",
"140 276 CURVE SMOOTH",
"140 160 OFFCURVE",
"215 81 OFFCURVE",
"345 81 CURVE SMOOTH",
"378 81 OFFCURVE",
"421 91 OFFCURVE",
"464 107 CURVE",
"478 113 LINE",
"510 34 LINE",
"496 28 LINE",
"437 5 OFFCURVE",
"387 -9 OFFCURVE",
"328 -9 CURVE SMOOTH",
"147 -9 OFFCURVE",
"40 120 OFFCURVE",
"40 275 CURVE SMOOTH",
"40 434 OFFCURVE",
"153 555 OFFCURVE",
"333 555 CURVE SMOOTH"
);
}
);
width = 542;
}
);
unicode = 0043;
},
{
glyphname = Ccedilla;
layers = (
{
background = {
paths = (
{
closed = 1;
nodes = (
"377 555 OFFCURVE",
"430 548 OFFCURVE",
"487 524 CURVE",
"503 518 LINE",
"470 441 LINE",
"455 446 LINE",
"394 469 OFFCURVE",
"356 468 OFFCURVE",
"331 468 CURVE SMOOTH",
"212 468 OFFCURVE",
"140 382 OFFCURVE",
"140 276 CURVE SMOOTH",
"140 160 OFFCURVE",
"215 81 OFFCURVE",
"345 81 CURVE SMOOTH",
"378 81 OFFCURVE",
"421 91 OFFCURVE",
"464 107 CURVE",
"478 113 LINE",
"510 34 LINE",
"496 28 LINE",
"437 5 OFFCURVE",
"387 -9 OFFCURVE",
"328 -9 CURVE SMOOTH",
"147 -9 OFFCURVE",
"40 120 OFFCURVE",
"40 275 CURVE SMOOTH",
"40 434 OFFCURVE",
"153 555 OFFCURVE",
"333 555 CURVE SMOOTH"
);
}
);
};
layerId = "CFA4B904-E3F1-48B6-A7F6-47DC1FF2A3E1";
name = Bold;
paths = (
{
closed = 1;
nodes = (
"323 -142 OFFCURVE",
"326 -134 OFFCURVE",
"326 -129 CURVE SMOOTH",
"326 -121 OFFCURVE",
"323 -113 OFFCURVE",
"288 -102 CURVE SMOOTH",
"232 -86 LINE",
"256 -1 LINE",
"120 26 OFFCURVE",
"40 141 OFFCURVE",
"40 275 CURVE SMOOTH",
"40 434 OFFCURVE",
"153 555 OFFCURVE",
"333 555 CURVE SMOOTH",
"377 555 OFFCURVE",
"430 548 OFFCURVE",
"487 524 CURVE",
"503 518 LINE",
"470 441 LINE",
"455 446 LINE",
"394 469 OFFCURVE",
"356 468 OFFCURVE",
"331 468 CURVE SMOOTH",
"212 468 OFFCURVE",
"140 382 OFFCURVE",
"140 276 CURVE SMOOTH",
"140 160 OFFCURVE",
"215 81 OFFCURVE",
"345 81 CURVE SMOOTH",
"378 81 OFFCURVE",
"421 91 OFFCURVE",
"464 107 CURVE",
"478 113 LINE",
"510 33 LINE",
"496 28 LINE",
"437 3 OFFCURVE",
"380 -9 OFFCURVE",
"328 -9 CURVE",
"319 -42 LINE",
"360 -53 OFFCURVE",
"398 -76 OFFCURVE",
"398 -124 CURVE SMOOTH",
"398 -167 OFFCURVE",
"372 -208 OFFCURVE",
"300 -208 CURVE SMOOTH",
"272 -208 OFFCURVE",
"241 -203 OFFCURVE",
"208 -191 CURVE",
"192 -187 LINE",
"212 -121 LINE",
"267 -136 LINE",
"283 -140 OFFCURVE",
"298 -142 OFFCURVE",
"306 -142 CURVE SMOOTH"
);
}
);
width = 542;
}
);
unicode = 00C7;
},
{
glyphname = D;
lastChange = "2014-10-27 09:16:00 +0000";
layers = (
{
anchors = (
{
name = top.cap;
position = "{240, 550}";
}
);
layerId = "CFA4B904-E3F1-48B6-A7F6-47DC1FF2A3E1";
name = Bold;
paths = (
{
closed = 1;
nodes = (
"161 89 LINE",
"225 89 LINE SMOOTH",
"282 89 OFFCURVE",
"376 92 OFFCURVE",
"419 176 CURVE",
"430 193 OFFCURVE",
"443 227 OFFCURVE",
"443 279 CURVE SMOOTH",
"443 400 OFFCURVE",
"375 462 OFFCURVE",
"251 462 CURVE SMOOTH",
"161 462 LINE"
);
},
{
closed = 1;
nodes = (
"482 550 OFFCURVE",
"543 407 OFFCURVE",
"543 292 CURVE SMOOTH",
"543 174 OFFCURVE",
"496 54 OFFCURVE",
"344 11 CURVE",
"296 0 OFFCURVE",
"249 0 OFFCURVE",
"200 0 CURVE SMOOTH",
"63 0 LINE",
"63 550 LINE",
"249 550 LINE SMOOTH"
);
}
);
width = 583;
}
);
unicode = 0044;
},
{
glyphname = Eth;
lastChange = "2014-10-27 10:23:11 +0000";
layers = (
{
background = {
paths = (
{
closed = 1;
nodes = (
"554 354 OFFCURVE",
"542 403 OFFCURVE",
"518 439 CURVE SMOOTH",
"465 520 OFFCURVE",
"390 550 OFFCURVE",
"260 550 CURVE SMOOTH",
"106 550 LINE",
"106 308 LINE",
"13 308 LINE",
"13 256 LINE",
"106 256 LINE",
"106 0 LINE",
"275 0 LINE SMOOTH",
"460 5 OFFCURVE",
"554 107 OFFCURVE",
"554 296 CURVE SMOOTH"
);
},
{
closed = 1;
nodes = (
"296 256 LINE",
"296 308 LINE",
"172 308 LINE",
"172 494 LINE",
"279 494 LINE SMOOTH",
"299 494 OFFCURVE",
"317 493 OFFCURVE",
"331 490 CURVE",
"417 475 OFFCURVE",
"488 395 OFFCURVE",
"488 287 CURVE SMOOTH",
"488 237 OFFCURVE",
"478 192 OFFCURVE",
"463 159 CURVE SMOOTH",
"439 110 OFFCURVE",
"392 72 OFFCURVE",
"332 63 CURVE",
"311 61 OFFCURVE",
"284 58 OFFCURVE",
"252 58 CURVE SMOOTH",
"172 58 LINE",
"172 256 LINE"
);
}
);
};
layerId = "CFA4B904-E3F1-48B6-A7F6-47DC1FF2A3E1";
name = Bold;
paths = (
{
closed = 1;
nodes = (
"106 325 LINE",
"106 550 LINE",
"292 550 LINE SMOOTH",
"526 550 OFFCURVE",
"586 407 OFFCURVE",
"586 292 CURVE SMOOTH",
"586 174 OFFCURVE",
"538 54 OFFCURVE",
"387 11 CURVE",
"339 0 OFFCURVE",
"291 0 OFFCURVE",
"244 0 CURVE SMOOTH",
"106 0 LINE",
"106 236 LINE",
"9 236 LINE",
"9 325 LINE"
);
},
{
closed = 1;
nodes = (
"205 325 LINE",
"325 325 LINE",
"325 236 LINE",
"205 236 LINE",
"205 89 LINE",
"268 89 LINE SMOOTH",
"327 89 OFFCURVE",
"416 92 OFFCURVE",
"462 176 CURVE SMOOTH",
"471 193 OFFCURVE",
"486 227 OFFCURVE",
"486 279 CURVE SMOOTH",
"486 400 OFFCURVE",
"419 462 OFFCURVE",
"294 462 CURVE SMOOTH",
"205 462 LINE"
);
}
);
width = 625;
}
);
unicode = 00D0;
},
{
glyphname = E;
lastChange = "2014-10-27 07:04:31 +0000";
layers = (
{
anchors = (
{
name = top.cap;
position = "{243, 560}";
}
);
layerId = "CFA4B904-E3F1-48B6-A7F6-47DC1FF2A3E1";
name = Bold;
paths = (
{
closed = 1;
nodes = (
"424 550 LINE",
"424 462 LINE",
"161 462 LINE",
"161 324 LINE",
"394 324 LINE",
"394 235 LINE",
"161 235 LINE",
"161 89 LINE",
"424 89 LINE",
"424 0 LINE",
"63 0 LINE",
"63 550 LINE"
);
}
);
width = 467;
}
);
unicode = 0045;
},
{
glyphname = Eogonek;
layers = (
{
layerId = "CFA4B904-E3F1-48B6-A7F6-47DC1FF2A3E1";
name = Bold;
paths = (
{
closed = 1;
nodes = (
"424 550 LINE",
"424 462 LINE",
"161 462 LINE",
"161 324 LINE",
"394 324 LINE",
"394 235 LINE",
"161 235 LINE",
"161 89 LINE",
"424 89 LINE",
"424 0 LINE",
"291 -16 OFFCURVE",
"262 -56 OFFCURVE",
"262 -87 CURVE SMOOTH",
"262 -115 OFFCURVE",
"279 -137 OFFCURVE",
"314 -137 CURVE SMOOTH",
"339 -137 OFFCURVE",
"365 -125 OFFCURVE",
"386 -118 CURVE",
"408 -162 LINE",
"376 -182 OFFCURVE",
"338 -200 OFFCURVE",
"281 -200 CURVE SMOOTH",
"205 -200 OFFCURVE",
"171 -154 OFFCURVE",
"171 -108 CURVE SMOOTH",
"171 -56 OFFCURVE",
"211 -24 OFFCURVE",
"268 0 CURVE",
"63 0 LINE",
"63 550 LINE"
);
}
);
width = 467;
}
);
unicode = 0118;
},
{
glyphname = F;
lastChange = "2014-10-27 05:02:45 +0000";
layers = (
{
layerId = "CFA4B904-E3F1-48B6-A7F6-47DC1FF2A3E1";
name = Bold;
paths = (
{
closed = 1;
nodes = (
"388 299 LINE",
"388 209 LINE",
"161 209 LINE",
"161 0 LINE",
"63 0 LINE",
"63 550 LINE",
"419 550 LINE",
"419 462 LINE",
"161 462 LINE",
"161 299 LINE"
);
}
);
width = 450;
}
);
unicode = 0046;
},
{
glyphname = G;
lastChange = "2014-10-27 10:17:10 +0000";
layers = (
{
anchors = (
{
name = bottom;
position = "{328, -10}";
},
{
name = top.cap;
position = "{328, 560}";
}
);
layerId = "CFA4B904-E3F1-48B6-A7F6-47DC1FF2A3E1";
name = Bold;
paths = (
{
closed = 1;
nodes = (
"512 39 OFFCURVE",
"455 -6 OFFCURVE",
"328 -9 CURVE SMOOTH",
"130 -9 OFFCURVE",
"40 141 OFFCURVE",
"40 275 CURVE SMOOTH",
"40 419 OFFCURVE",
"142 555 OFFCURVE",
"328 555 CURVE SMOOTH",
"403 555 OFFCURVE",
"464 533 OFFCURVE",
"511 506 CURVE SMOOTH",
"525 498 LINE",
"484 423 LINE",
"470 429 LINE",
"438 446 OFFCURVE",
"386 465 OFFCURVE",
"331 465 CURVE SMOOTH",
"232 465 OFFCURVE",
"139 396 OFFCURVE",
"139 279 CURVE SMOOTH",
"139 166 OFFCURVE",
"225 82 OFFCURVE",
"344 82 CURVE SMOOTH",
"389 82 OFFCURVE",
"413 90 OFFCURVE",
"437 103 CURVE",
"437 220 LINE",
"293 220 LINE",
"293 307 LINE",
"533 307 LINE",
"533 57 LINE"
);
}
);
width = 578;
}
);
unicode = 0047;
},
{
glyphname = H;
lastChange = "2014-10-27 05:05:11 +0000";
layers = (
{
layerId = "CFA4B904-E3F1-48B6-A7F6-47DC1FF2A3E1";
name = Bold;
paths = (
{
closed = 1;
nodes = (
"524 0 LINE",
"427 0 LINE",
"427 230 LINE",
"161 230 LINE",
"161 0 LINE",
"63 0 LINE",
"63 550 LINE",
"161 550 LINE",
"161 319 LINE",
"427 319 LINE",
"427 550 LINE",
"524 550 LINE"
);
}
);
width = 587;
}
);
unicode = 0048;
},
{
glyphname = I;
lastChange = "2014-10-27 07:01:58 +0000";
layers = (
{
anchors = (
{
name = top.cap;
position = "{112, 550}";
}
);
layerId = "CFA4B904-E3F1-48B6-A7F6-47DC1FF2A3E1";
name = Bold;
paths = (
{
closed = 1;
nodes = (
"161 0 LINE",
"63 0 LINE",
"63 550 LINE",
"161 550 LINE"
);
}
);
width = 224;
}
);
unicode = 0049;
},
{
glyphname = IJ;
lastChange = "2014-10-27 12:55:26 +0000";
layers = (
{
anchors = (
{
name = top.cap;
position = "{491, 550}";
}
);
components = (
{
name = I;
transform = "{1, 0, 0, 1, 0, 0}";
}
);
layerId = "CFA4B904-E3F1-48B6-A7F6-47DC1FF2A3E1";
name = Bold;
paths = (
{
closed = 1;
nodes = (
"509 199 LINE SMOOTH",
"509 111 OFFCURVE",
"487 -7 OFFCURVE",
"304 -7 CURVE SMOOTH",
"277 -7 OFFCURVE",
"250 -4 OFFCURVE",
"223 3 CURVE",
"210 8 LINE",
"225 93 LINE",
"242 89 LINE SMOOTH",
"261 84 OFFCURVE",
"276 83 OFFCURVE",
"293 83 CURVE SMOOTH",
"406 83 OFFCURVE",
"412 159 OFFCURVE",
"412 199 CURVE SMOOTH",
"412 550 LINE",
"509 550 LINE"
);
}
);
width = 558;
}
);
unicode = 0132;
},
{
glyphname = Iogonek;
layers = (
{
layerId = "CFA4B904-E3F1-48B6-A7F6-47DC1FF2A3E1";
name = Bold;
paths = (
{
closed = 1;
nodes = (
"52 -21 OFFCURVE",
"33 -50 OFFCURVE",
"33 -87 CURVE SMOOTH",
"33 -115 OFFCURVE",
"49 -137 OFFCURVE",
"82 -137 CURVE SMOOTH",
"107 -137 OFFCURVE",
"134 -125 OFFCURVE",
"153 -118 CURVE",
"177 -162 LINE",
"144 -182 OFFCURVE",
"106 -200 OFFCURVE",
"50 -200 CURVE SMOOTH",
"-18 -200 OFFCURVE",
"-60 -156 OFFCURVE",
"-60 -99 CURVE SMOOTH",
"-60 -44 OFFCURVE",
"-14 0 OFFCURVE",
"69 36 CURVE",
"69 550 LINE",
"167 550 LINE",
"167 16 LINE"
);
}
);
width = 228;
}
);
unicode = 012E;
},
{
glyphname = J;
lastChange = "2014-10-27 08:22:26 +0000";
layers = (
{
anchors = (
{
name = top.cap;
position = "{267, 550}";
}
);
layerId = "CFA4B904-E3F1-48B6-A7F6-47DC1FF2A3E1";
name = Bold;
paths = (
{
closed = 1;
nodes = (
"315 199 LINE SMOOTH",
"315 111 OFFCURVE",
"293 -7 OFFCURVE",
"110 -7 CURVE SMOOTH",
"83 -7 OFFCURVE",
"56 -4 OFFCURVE",
"29 3 CURVE",
"16 8 LINE",
"31 93 LINE",
"48 89 LINE SMOOTH",
"67 84 OFFCURVE",
"82 83 OFFCURVE",
"99 83 CURVE SMOOTH",
"212 83 OFFCURVE",
"218 159 OFFCURVE",
"218 199 CURVE SMOOTH",
"218 550 LINE",
"315 550 LINE"
);
}
);
width = 364;
}
);
unicode = 004A;
},
{
glyphname = K;
lastChange = "2014-10-27 10:19:46 +0000";
layers = (
{
anchors = (
{
name = bottom;
position = "{280, -10}";
}
);
layerId = "CFA4B904-E3F1-48B6-A7F6-47DC1FF2A3E1";
name = Bold;
paths = (
{
closed = 1;
nodes = (
"63 0 LINE",
"63 550 LINE",
"161 550 LINE",
"161 0 LINE"
);
},
{
closed = 1;
nodes = (
"498 550 LINE",
"281 284 LINE",
"514 0 LINE",
"398 0 LINE",
"169 284 LINE",
"388 550 LINE"
);
}
);
width = 522;
}
);
unicode = 004B;
},
{
glyphname = L;
lastChange = "2014-10-27 10:20:36 +0000";
layers = (
{
anchors = (
{
name = bottom;
position = "{246, -10}";
},
{
name = top.cap;
position = "{217, 560}";
}
);
layerId = "CFA4B904-E3F1-48B6-A7F6-47DC1FF2A3E1";
name = Bold;
paths = (
{
closed = 1;
nodes = (
"161 89 LINE",
"423 89 LINE",
"423 0 LINE",
"63 0 LINE",
"63 550 LINE",
"161 550 LINE"
);
}
);
width = 443;
}
);
unicode = 004C;
},
{
glyphname = Lcaron;
layers = (
{
background = {
paths = (
{
closed = 1;
nodes = (
"64 0 LINE",
"377 0 LINE",
"377 58 LINE",
"130 58 LINE",
"130 550 LINE",
"64 550 LINE"
);
},
{
closed = 1;
nodes = (
"205 435 LINE",
"256 435 LINE",
"304 586 LINE",
"237 586 LINE"
);
}
);
};
components = (
{
name = L;
transform = "{1, 0, 0, 1, 0, 0}";
}
);
layerId = "CFA4B904-E3F1-48B6-A7F6-47DC1FF2A3E1";
name = Bold;
paths = (
{
closed = 1;
nodes = (
"304 413 LINE",
"228 413 LINE",
"266 599 LINE",
"371 599 LINE"
);
}
);
width = 443;
}
);
unicode = 013D;
},
{
glyphname = Lslash;
lastChange = "2014-10-27 12:59:58 +0000";
layers = (
{
background = {
paths = (
{
closed = 1;
nodes = (
"85 282 LINE",
"9 238 LINE",
"9 170 LINE",
"85 215 LINE",
"85 0 LINE",
"398 0 LINE",
"398 58 LINE",
"151 58 LINE",
"151 253 LINE",
"252 312 LINE",
"252 380 LINE",
"151 321 LINE",
"151 550 LINE",
"85 550 LINE"
);
}
);
};
layerId = "CFA4B904-E3F1-48B6-A7F6-47DC1FF2A3E1";
name = Bold;
paths = (
{
closed = 1;
nodes = (
"299 325 LINE",
"0 150 LINE",
"0 250 LINE",
"299 424 LINE"
);
},
{
closed = 1;
nodes = (
"182 89 LINE",
"443 89 LINE",
"443 0 LINE",
"85 0 LINE",
"85 550 LINE",
"182 550 LINE"
);
}
);
width = 463;
}
);
unicode = 0141;
},
{
glyphname = M;
lastChange = "2014-10-27 05:07:16 +0000";
layers = (
{
layerId = "CFA4B904-E3F1-48B6-A7F6-47DC1FF2A3E1";
name = Bold;
paths = (
{
closed = 1;
nodes = (
"343 249 LINE",
"495 550 LINE",
"619 550 LINE",
"619 0 LINE",
"522 0 LINE",
"522 415 LINE",
"383 141 LINE",
"299 141 LINE",
"161 415 LINE",
"161 0 LINE",
"63 0 LINE",
"63 550 LINE",
"194 550 LINE"
);
}
);
width = 682;
}
);
unicode = 004D;
},
{
glyphname = N;
lastChange = "2014-10-27 10:38:45 +0000";
layers = (
{
anchors = (
{
name = bottom;
position = "{295, 0}";
},
{
name = top.cap;
position = "{318, 560}";
}
);
layerId = "CFA4B904-E3F1-48B6-A7F6-47DC1FF2A3E1";
name = Bold;
paths = (
{
closed = 1;
nodes = (
"446 142 LINE",
"446 550 LINE",
"545 550 LINE",
"545 0 LINE",
"426 0 LINE",
"161 409 LINE",
"161 0 LINE",
"63 0 LINE",
"63 550 LINE",
"180 550 LINE"
);
}
);
width = 608;
}
);
unicode = 004E;
},
{
glyphname = O;
lastChange = "2014-10-27 07:06:31 +0000";
layers = (
{
anchors = (
{
name = top.cap;
position = "{312, 560}";
}
);
layerId = "CFA4B904-E3F1-48B6-A7F6-47DC1FF2A3E1";
name = Bold;
paths = (
{
closed = 1;
nodes = (
"463 557 OFFCURVE",
"583 450 OFFCURVE",
"583 280 CURVE SMOOTH",
"583 112 OFFCURVE",
"466 -7 OFFCURVE",
"309 -7 CURVE SMOOTH",
"173 -7 OFFCURVE",
"40 88 OFFCURVE",
"40 275 CURVE SMOOTH",
"40 445 OFFCURVE",
"159 557 OFFCURVE",
"312 557 CURVE SMOOTH"
);
},
{
closed = 1;
nodes = (
"225 466 OFFCURVE",
"140 413 OFFCURVE",
"140 281 CURVE SMOOTH",
"140 159 OFFCURVE",
"217 85 OFFCURVE",
"315 85 CURVE SMOOTH",
"396 85 OFFCURVE",
"483 139 OFFCURVE",
"483 275 CURVE SMOOTH",
"483 413 OFFCURVE",
"388 466 OFFCURVE",
"308 466 CURVE SMOOTH"
);
}
);
width = 623;
}
);
unicode = 004F;
},
{
glyphname = Oslash;
layers = (
{
background = {
paths = (
{
closed = 1;
nodes = (
"72 -8 LINE",
"144 62 LINE",
"187 20 OFFCURVE",
"244 -7 OFFCURVE",
"323 -7 CURVE SMOOTH",
"435 -7 OFFCURVE",
"508 49 OFFCURVE",
"548 127 CURVE SMOOTH",
"568 169 OFFCURVE",
"579 219 OFFCURVE",
"579 275 CURVE SMOOTH",
"579 331 OFFCURVE",
"568 383 OFFCURVE",
"539 437 CURVE",
"617 511 LINE",
"575 556 LINE",
"502 486 LINE",
"459 529 OFFCURVE",
"402 556 OFFCURVE",
"323 556 CURVE SMOOTH",
"209 556 OFFCURVE",
"136 500 OFFCURVE",
"97 424 CURVE SMOOTH",
"76 380 OFFCURVE",
"65 331 OFFCURVE",
"65 275 CURVE SMOOTH",
"65 219 OFFCURVE",
"76 169 OFFCURVE",
"97 127 CURVE SMOOTH",
"106 109 LINE",
"30 37 LINE"
);
},
{
closed = 1;
nodes = (
"136 317 OFFCURVE",
"144 355 OFFCURVE",
"160 389 CURVE SMOOTH",
"188 447 OFFCURVE",
"232 498 OFFCURVE",
"323 498 CURVE SMOOTH",
"385 498 OFFCURVE",
"425 475 OFFCURVE",
"454 440 CURVE",
"160 160 LINE",
"160 161 LINE",
"144 194 OFFCURVE",
"136 232 OFFCURVE",
"136 275 CURVE SMOOTH"
);
},
{
closed = 1;
nodes = (
"260 51 OFFCURVE",
"221 74 OFFCURVE",
"193 107 CURVE",
"485 387 LINE",
"502 353 OFFCURVE",
"509 315 OFFCURVE",
"509 275 CURVE SMOOTH",
"509 232 OFFCURVE",
"502 194 OFFCURVE",
"485 161 CURVE",
"458 101 OFFCURVE",
"412 51 OFFCURVE",
"323 51 CURVE SMOOTH"
);
}
);
};
components = (
{
name = O;
transform = "{1, 0, 0, 1, 0, 0}";
}
);
layerId = "CFA4B904-E3F1-48B6-A7F6-47DC1FF2A3E1";
name = Bold;
paths = (
{
closed = 1;
nodes = (
"80 -16 LINE",
"12 56 LINE",
"558 574 LINE",
"625 503 LINE"
);
}
);
width = 623;
}
);
unicode = 00D8;
},
{
glyphname = OE;
lastChange = "2014-10-27 11:12:50 +0000";
layers = (
{
layerId = "CFA4B904-E3F1-48B6-A7F6-47DC1FF2A3E1";
name = Bold;
paths = (
{
closed = 1;
nodes = (
"732 462 LINE",
"479 462 LINE",
"479 324 LINE",
"705 324 LINE",
"705 235 LINE",
"479 235 LINE",
"479 89 LINE",
"732 89 LINE",
"732 0 LINE",
"383 0 LINE SMOOTH",
"336 0 OFFCURVE",
"288 0 OFFCURVE",
"240 11 CURVE",
"86 54 OFFCURVE",
"40 174 OFFCURVE",
"40 292 CURVE SMOOTH",
"40 407 OFFCURVE",
"101 550 OFFCURVE",
"333 550 CURVE SMOOTH",
"732 550 LINE"
);
},
{
closed = 1;
nodes = (
"208 462 OFFCURVE",
"140 400 OFFCURVE",
"140 279 CURVE SMOOTH",
"140 147 OFFCURVE",
"208 89 OFFCURVE",
"334 89 CURVE SMOOTH",
"383 89 LINE",
"383 462 LINE",
"332 462 LINE SMOOTH"
);
}
);
width = 778;
}
);
unicode = 0152;
},
{
glyphname = P;
lastChange = "2014-10-27 05:08:00 +0000";
layers = (
{
layerId = "CFA4B904-E3F1-48B6-A7F6-47DC1FF2A3E1";
name = Bold;
paths = (
{
closed = 1;
nodes = (
"314 550 OFFCURVE",
"469 541 OFFCURVE",
"469 388 CURVE SMOOTH",
"470 232 OFFCURVE",
"323 213 OFFCURVE",
"205 212 CURVE SMOOTH",
"188 212 OFFCURVE",
"176 214 OFFCURVE",
"161 215 CURVE",
"161 0 LINE",
"63 0 LINE",
"63 550 LINE",
"243 550 LINE SMOOTH"
);
},
{
closed = 1;
nodes = (
"178 304 OFFCURVE",
"193 301 OFFCURVE",
"209 301 CURVE SMOOTH",
"292 301 OFFCURVE",
"370 310 OFFCURVE",
"370 386 CURVE SMOOTH",
"370 452 OFFCURVE",
"305 462 OFFCURVE",
"233 462 CURVE SMOOTH",
"161 462 LINE",
"161 304 LINE"
);
}
);
width = 494;
}
);
unicode = 0050;
},
{
glyphname = Thorn;
lastChange = "2014-10-27 15:35:01 +0000";
layers = (
{
layerId = "CFA4B904-E3F1-48B6-A7F6-47DC1FF2A3E1";
name = Bold;
paths = (
{
closed = 1;
nodes = (
"291 449 OFFCURVE",
"339 445 OFFCURVE",
"368 437 CURVE SMOOTH",
"469 411 OFFCURVE",
"495 339 OFFCURVE",
"495 286 CURVE SMOOTH",
"495 222 OFFCURVE",
"468 146 OFFCURVE",
"368 117 CURVE",
"340 110 OFFCURVE",
"292 105 OFFCURVE",
"217 105 CURVE SMOOTH",
"161 105 LINE",
"161 0 LINE",
"63 0 LINE",
"63 550 LINE",
"161 550 LINE",
"161 449 LINE",
"216 449 LINE SMOOTH"
);
},
{
closed = 1;
nodes = (
"230 194 LINE",
"242 194 LINE SMOOTH",
"318 194 OFFCURVE",
"394 192 OFFCURVE",
"394 276 CURVE SMOOTH",
"394 362 OFFCURVE",
"318 360 OFFCURVE",
"241 360 CURVE SMOOTH",
"229 360 LINE",
"161 360 LINE",
"161 194 LINE"
);
}
);
width = 526;
}
);
unicode = 00DE;
},
{
glyphname = Q;
lastChange = "2014-10-27 05:08:21 +0000";
layers = (
{
layerId = "CFA4B904-E3F1-48B6-A7F6-47DC1FF2A3E1";
name = Bold;
paths = (
{
closed = 1;
nodes = (
"467 42 LINE",
"422 9 OFFCURVE",
"369 -7 OFFCURVE",
"309 -7 CURVE SMOOTH",
"173 -7 OFFCURVE",
"40 88 OFFCURVE",
"40 275 CURVE SMOOTH",
"40 445 OFFCURVE",
"159 557 OFFCURVE",
"312 557 CURVE SMOOTH",
"463 557 OFFCURVE",
"583 450 OFFCURVE",
"583 280 CURVE SMOOTH",
"583 209 OFFCURVE",
"563 147 OFFCURVE",
"526 99 CURVE",
"602 29 LINE",
"545 -29 LINE"
);
},
{
closed = 1;
nodes = (
"225 466 OFFCURVE",
"140 413 OFFCURVE",
"140 281 CURVE SMOOTH",
"140 159 OFFCURVE",
"217 85 OFFCURVE",
"315 85 CURVE SMOOTH",
"342 85 OFFCURVE",
"371 92 OFFCURVE",
"398 105 CURVE",
"290 206 LINE",
"349 268 LINE",
"457 165 LINE",
"472 194 OFFCURVE",
"483 228 OFFCURVE",
"483 275 CURVE SMOOTH",
"483 413 OFFCURVE",
"388 466 OFFCURVE",
"308 466 CURVE SMOOTH"
);
}
);
width = 622;
}
);
unicode = 0051;
},
{
glyphname = R;
lastChange = "2014-10-27 10:42:17 +0000";
layers = (
{
anchors = (
{
name = bottom;
position = "{265, -10}";
},
{
name = top.cap;
position = "{255, 560}";
}
);
layerId = "CFA4B904-E3F1-48B6-A7F6-47DC1FF2A3E1";
name = Bold;
paths = (
{
closed = 1;
nodes = (
"314 550 OFFCURVE",
"469 541 OFFCURVE",
"469 388 CURVE SMOOTH",
"469 295 OFFCURVE",
"412 252 OFFCURVE",
"347 230 CURVE",
"485 0 LINE",
"374 0 LINE",
"248 214 LINE",
"233 213 OFFCURVE",
"218 213 OFFCURVE",
"205 213 CURVE SMOOTH",
"188 213 OFFCURVE",
"176 214 OFFCURVE",
"161 215 CURVE",
"161 0 LINE",
"63 0 LINE",
"63 550 LINE",
"243 550 LINE SMOOTH"
);
},
{
closed = 1;
nodes = (
"178 302 OFFCURVE",
"193 301 OFFCURVE",
"209 301 CURVE SMOOTH",
"292 301 OFFCURVE",
"370 310 OFFCURVE",
"370 386 CURVE SMOOTH",
"370 452 OFFCURVE",
"305 462 OFFCURVE",
"233 462 CURVE SMOOTH",
"161 462 LINE",
"161 304 LINE"
);
}
);
width = 509;
}
);
unicode = 0052;
},
{
glyphname = S;
lastChange = "2014-10-27 10:17:51 +0000";
layers = (
{
anchors = (
{
name = bottom;
position = "{230, -10}";
},
{
name = top.cap;
position = "{268, 560}";
}
);
layerId = "CFA4B904-E3F1-48B6-A7F6-47DC1FF2A3E1";
name = Bold;
paths = (
{
closed = 1;
nodes = (
"203 463 OFFCURVE",
"162 437 OFFCURVE",
"162 396 CURVE SMOOTH",
"162 302 OFFCURVE",
"459 342 OFFCURVE",
"459 153 CURVE SMOOTH",
"459 76 OFFCURVE",
"400 -9 OFFCURVE",
"230 -9 CURVE SMOOTH",
"161 -9 OFFCURVE",
"109 9 OFFCURVE",
"53 30 CURVE",
"40 36 LINE",
"73 125 LINE",
"88 119 LINE SMOOTH",
"160 92 OFFCURVE",
"209 85 OFFCURVE",
"238 85 CURVE SMOOTH",
"310 85 OFFCURVE",
"358 112 OFFCURVE",
"358 153 CURVE",
"362 256 OFFCURVE",
"62 208 OFFCURVE",
"62 400 CURVE SMOOTH",
"62 490 OFFCURVE",
"141 555 OFFCURVE",
"268 555 CURVE SMOOTH",
"351 555 OFFCURVE",
"412 532 OFFCURVE",
"430 526 CURVE SMOOTH",
"441 522 LINE",
"409 433 LINE",
"365 450 OFFCURVE",
"322 463 OFFCURVE",
"271 463 CURVE SMOOTH"
);
}
);
width = 499;
}
);
unicode = 0053;
},
{
glyphname = Scedilla;
layers = (
{
layerId = "CFA4B904-E3F1-48B6-A7F6-47DC1FF2A3E1";
name = Bold;
paths = (
{
closed = 1;
nodes = (
"264 -141 OFFCURVE",
"270 -134 OFFCURVE",
"270 -129 CURVE SMOOTH",
"270 -121 OFFCURVE",
"267 -113 OFFCURVE",
"232 -102 CURVE SMOOTH",
"177 -86 LINE",
"199 -7 LINE",
"143 -2 OFFCURVE",
"98 14 OFFCURVE",
"53 30 CURVE",
"40 36 LINE",
"73 125 LINE",
"88 119 LINE SMOOTH",
"160 92 OFFCURVE",
"209 85 OFFCURVE",
"238 85 CURVE SMOOTH",
"310 85 OFFCURVE",
"358 112 OFFCURVE",
"358 153 CURVE",
"362 256 OFFCURVE",
"62 208 OFFCURVE",
"62 400 CURVE SMOOTH",
"62 490 OFFCURVE",
"141 555 OFFCURVE",
"268 555 CURVE SMOOTH",
"351 555 OFFCURVE",
"412 532 OFFCURVE",
"430 526 CURVE SMOOTH",
"441 522 LINE",
"409 433 LINE",
"365 450 OFFCURVE",
"322 463 OFFCURVE",
"271 463 CURVE SMOOTH",
"203 463 OFFCURVE",
"162 437 OFFCURVE",
"162 396 CURVE SMOOTH",
"162 302 OFFCURVE",
"459 342 OFFCURVE",
"459 153 CURVE SMOOTH",
"459 79 OFFCURVE",
"409 9 OFFCURVE",
"273 -7 CURVE",
"264 -42 LINE",
"303 -52 OFFCURVE",
"343 -76 OFFCURVE",
"343 -124 CURVE SMOOTH",
"343 -167 OFFCURVE",
"314 -208 OFFCURVE",
"245 -208 CURVE SMOOTH",
"217 -208 OFFCURVE",
"186 -203 OFFCURVE",
"153 -191 CURVE",
"137 -187 LINE",
"157 -121 LINE",
"211 -136 LINE",
"230 -137 OFFCURVE",
"238 -141 OFFCURVE",
"247 -141 CURVE SMOOTH"
);
}
);
width = 499;
}
);
unicode = 015E;
},
{
glyphname = T;
lastChange = "2014-10-27 10:45:41 +0000";
layers = (
{
anchors = (
{
name = bottom;
position = "{239, -10}";
},
{
name = top.cap;
position = "{239, 550}";
}
);
layerId = "CFA4B904-E3F1-48B6-A7F6-47DC1FF2A3E1";
name = Bold;
paths = (
{
closed = 1;
nodes = (
"467 462 LINE",
"287 462 LINE",
"287 0 LINE",
"189 0 LINE",
"189 462 LINE",
"9 462 LINE",
"9 550 LINE",
"467 550 LINE"
);
}
);
width = 476;
}
);
unicode = 0054;
},
{
glyphname = Tcedilla;
layers = (
{
layerId = "CFA4B904-E3F1-48B6-A7F6-47DC1FF2A3E1";
name = Bold;
paths = (
{
closed = 1;
nodes = (
"252 -141 OFFCURVE",
"258 -134 OFFCURVE",
"258 -129 CURVE SMOOTH",
"258 -121 OFFCURVE",
"255 -113 OFFCURVE",
"220 -102 CURVE SMOOTH",
"165 -86 LINE",
"189 1 LINE",
"189 462 LINE",
"9 462 LINE",
"9 550 LINE",
"467 550 LINE",
"467 462 LINE",
"287 462 LINE",
"287 0 LINE",
"276 -41 LINE",
"307 -52 OFFCURVE",
"331 -73 OFFCURVE",
"331 -124 CURVE SMOOTH",
"331 -167 OFFCURVE",
"302 -208 OFFCURVE",
"233 -208 CURVE SMOOTH",
"204 -208 OFFCURVE",
"174 -203 OFFCURVE",
"141 -191 CURVE",
"125 -187 LINE",
"145 -121 LINE",
"199 -136 LINE",
"216 -137 OFFCURVE",
"225 -141 OFFCURVE",
"236 -141 CURVE SMOOTH"
);
}
);
width = 476;
}
);
unicode = 0162;
},
{
glyphname = U;
lastChange = "2014-10-27 07:10:52 +0000";
layers = (
{
anchors = (
{
name = top.cap;
position = "{280, 560}";
}
);
layerId = "CFA4B904-E3F1-48B6-A7F6-47DC1FF2A3E1";
name = Bold;
paths = (
{
closed = 1;
nodes = (
"65 -9 OFFCURVE",
"56 132 OFFCURVE",
"56 199 CURVE SMOOTH",
"56 550 LINE",
"153 550 LINE",
"153 204 LINE SMOOTH",
"153 187 OFFCURVE",
"155 171 OFFCURVE",
"158 157 CURVE SMOOTH",
"170 109 OFFCURVE",
"215 82 OFFCURVE",
"280 82 CURVE SMOOTH",
"349 82 OFFCURVE",
"392 109 OFFCURVE",
"405 157 CURVE",
"407 171 OFFCURVE",
"408 187 OFFCURVE",
"408 204 CURVE SMOOTH",
"408 550 LINE",
"506 550 LINE",
"506 199 LINE SMOOTH",
"506 132 OFFCURVE",
"498 -9 OFFCURVE",
"280 -9 CURVE SMOOTH"
);
}
);
width = 562;
}
);
unicode = 0055;
},
{
glyphname = Uogonek;
layers = (
{
layerId = "CFA4B904-E3F1-48B6-A7F6-47DC1FF2A3E1";
name = Bold;
paths = (
{
closed = 1;
nodes = (
"508 130 OFFCURVE",
"494 70 OFFCURVE",
"443 38 CURVE",
"374 -10 OFFCURVE",
"284 -36 OFFCURVE",
"284 -92 CURVE SMOOTH",
"284 -119 OFFCURVE",
"302 -138 OFFCURVE",
"335 -138 CURVE SMOOTH",
"360 -138 OFFCURVE",
"389 -125 OFFCURVE",
"406 -118 CURVE",
"428 -162 LINE",
"396 -182 OFFCURVE",
"358 -200 OFFCURVE",
"302 -200 CURVE SMOOTH",
"235 -200 OFFCURVE",
"189 -157 OFFCURVE",
"189 -107 CURVE SMOOTH",
"189 -66 OFFCURVE",
"218 -27 OFFCURVE",
"257 -8 CURVE",
"63 0 OFFCURVE",
"58 137 OFFCURVE",
"58 199 CURVE SMOOTH",
"58 550 LINE",
"155 550 LINE",
"155 204 LINE SMOOTH",
"155 187 OFFCURVE",
"157 171 OFFCURVE",
"160 157 CURVE SMOOTH",
"172 109 OFFCURVE",
"215 82 OFFCURVE",
"282 82 CURVE SMOOTH",
"350 82 OFFCURVE",
"394 109 OFFCURVE",
"406 157 CURVE SMOOTH",
"409 171 OFFCURVE",
"410 187 OFFCURVE",
"410 204 CURVE SMOOTH",
"410 550 LINE",
"508 550 LINE",
"508 199 LINE SMOOTH"
);
}
);
width = 566;
}
);
unicode = 0172;
},
{
glyphname = V;
lastChange = "2014-10-27 05:09:38 +0000";
layers = (
{
layerId = "CFA4B904-E3F1-48B6-A7F6-47DC1FF2A3E1";
name = Bold;
paths = (
{
closed = 1;
nodes = (
"275 105 LINE",
"414 550 LINE",
"519 550 LINE",
"329 0 LINE",
"212 0 LINE",
"11 550 LINE",
"122 550 LINE"
);
}
);
width = 530;
}
);
unicode = 0056;
},
{
glyphname = W;
lastChange = "2014-10-27 05:09:54 +0000";
layers = (
{
layerId = "CFA4B904-E3F1-48B6-A7F6-47DC1FF2A3E1";
name = Bold;
paths = (
{
closed = 1;
nodes = (
"226 128 LINE",
"359 550 LINE",
"470 550 LINE",
"578 128 LINE",
"716 550 LINE",
"821 550 LINE",
"625 0 LINE",
"523 0 LINE",
"410 423 LINE",
"279 0 LINE",
"178 0 LINE",
"11 550 LINE",
"116 550 LINE"
);
}
);
width = 830;
}
);
unicode = 0057;
},
{
glyphname = X;
lastChange = "2014-10-27 05:10:09 +0000";
layers = (
{
layerId = "CFA4B904-E3F1-48B6-A7F6-47DC1FF2A3E1";
name = Bold;
paths = (
{
closed = 1;
nodes = (
"503 550 LINE",
"323 287 LINE",
"518 0 LINE",
"406 0 LINE",
"267 205 LINE",
"128 0 LINE",
"16 0 LINE",
"211 287 LINE",
"31 550 LINE",
"142 550 LINE",
"267 368 LINE",
"390 550 LINE"
);
}
);
width = 534;
}
);
unicode = 0058;
},
{
glyphname = Y;
lastChange = "2014-10-27 07:14:04 +0000";
layers = (
{
anchors = (
{
name = top.cap;
position = "{255, 560}";
}
);
layerId = "CFA4B904-E3F1-48B6-A7F6-47DC1FF2A3E1";
name = Bold;
paths = (
{
closed = 1;
nodes = (
"255 337 LINE",
"395 550 LINE",
"505 550 LINE",
"299 249 LINE",
"299 0 LINE",
"201 0 LINE",
"201 249 LINE",
"7 550 LINE",
"116 550 LINE"
);
}
);
width = 509;
}
);
unicode = 0059;
},
{
glyphname = Z;
lastChange = "2014-10-27 07:15:11 +0000";
layers = (
{
anchors = (
{
name = top.cap;
position = "{251, 560}";
}
);
layerId = "CFA4B904-E3F1-48B6-A7F6-47DC1FF2A3E1";
name = Bold;
paths = (
{
closed = 1;
nodes = (
"455 491 LINE",
"161 89 LINE",
"457 89 LINE",
"457 0 LINE",
"29 0 LINE",
"29 61 LINE",
"315 462 LINE",
"48 462 LINE",
"48 550 LINE",
"455 550 LINE"
);
}
);
width = 486;
}
);
unicode = 005A;
},
{
glyphname = a;
lastChange = "2014-10-28 05:30:05 +0000";
layers = (
{
anchors = (
{
name = top;
position = "{200, 384}";
}
);
background = {
paths = (
{
closed = 1;
nodes = (
"228 333 OFFCURVE",
"257 318 OFFCURVE",
"268 288 CURVE",
"273 276 OFFCURVE",
"276 256 OFFCURVE",
"276 228 CURVE SMOOTH",
"276 225 LINE",
"217 224 OFFCURVE",
"171 220 OFFCURVE",
"133 210 CURVE SMOOTH",
"83 198 OFFCURVE",
"38 159 OFFCURVE",
"38 96 CURVE SMOOTH",
"38 33 OFFCURVE",
"93 -10 OFFCURVE",
"161 -10 CURVE SMOOTH",
"204 -10 OFFCURVE",
"242 7 OFFCURVE",
"278 36 CURVE",
"292 0 LINE",
"341 0 LINE",
"341 248 LINE SMOOTH",
"341 312 OFFCURVE",
"328 339 OFFCURVE",
"288 368 CURVE",
"266 381 OFFCURVE",
"232 388 OFFCURVE",
"189 388 CURVE SMOOTH",
"148 388 OFFCURVE",
"105 379 OFFCURVE",
"64 365 CURVE",
"77 317 LINE",
"109 327 OFFCURVE",
"153 333 OFFCURVE",
"180 333 CURVE SMOOTH"
);
},
{
closed = 1;
nodes = (
"136 42 OFFCURVE",
"101 62 OFFCURVE",
"101 103 CURVE SMOOTH",
"101 141 OFFCURVE",
"127 160 OFFCURVE",
"174 170 CURVE SMOOTH",
"189 173 OFFCURVE",
"224 177 OFFCURVE",
"276 178 CURVE",
"276 86 LINE",
"248 60 OFFCURVE",
"217 42 OFFCURVE",
"170 42 CURVE SMOOTH"
);
},
{
closed = 1;
nodes = (
"89 550 LINE",
"239 427 LINE",
"272 465 LINE",
"125 593 LINE"
);
}
);
};
layerId = "CFA4B904-E3F1-48B6-A7F6-47DC1FF2A3E1";
name = Bold;
paths = (
{
closed = 1;
nodes = (
"329 390 OFFCURVE",
"364 325 OFFCURVE",
"364 236 CURVE SMOOTH",
"364 0 LINE",
"288 0 LINE",
"277 27 LINE",
"248 4 OFFCURVE",
"210 -9 OFFCURVE",
"165 -9 CURVE SMOOTH",
"80 -9 OFFCURVE",
"29 40 OFFCURVE",
"29 105 CURVE SMOOTH",
"29 181 OFFCURVE",
"88 223 OFFCURVE",
"189 228 CURVE SMOOTH",
"264 232 LINE",
"264 297 OFFCURVE",
"246 318 OFFCURVE",
"175 318 CURVE SMOOTH",
"138 318 OFFCURVE",
"106 309 OFFCURVE",
"77 298 CURVE",
"62 364 LINE",
"89 373 OFFCURVE",
"140 390 OFFCURVE",
"190 390 CURVE SMOOTH"
);
},
{
closed = 1;
nodes = (
"200 162 LINE SMOOTH",
"150 159 OFFCURVE",
"125 143 OFFCURVE",
"125 112 CURVE SMOOTH",
"125 81 OFFCURVE",
"149 63 OFFCURVE",
"189 63 CURVE SMOOTH",
"232 63 OFFCURVE",
"245 74 OFFCURVE",
"268 85 CURVE",
"268 167 LINE"
);
}
);
width = 408;
}
);
unicode = 0061;
},
{
glyphname = agrave;
lastChange = "2014-10-28 05:31:05 +0000";
layers = (
{
background = {
paths = (
{
closed = 1;
nodes = (
"228 333 OFFCURVE",
"257 318 OFFCURVE",
"268 288 CURVE",
"273 276 OFFCURVE",
"276 256 OFFCURVE",
"276 228 CURVE SMOOTH",
"276 225 LINE",
"217 224 OFFCURVE",
"171 220 OFFCURVE",
"133 210 CURVE SMOOTH",
"83 198 OFFCURVE",
"38 159 OFFCURVE",
"38 96 CURVE SMOOTH",
"38 33 OFFCURVE",
"93 -10 OFFCURVE",
"161 -10 CURVE SMOOTH",
"204 -10 OFFCURVE",
"242 7 OFFCURVE",
"278 36 CURVE",
"292 0 LINE",
"341 0 LINE",
"341 248 LINE SMOOTH",
"341 359 OFFCURVE",
"286 388 OFFCURVE",
"189 388 CURVE SMOOTH",
"148 388 OFFCURVE",
"105 379 OFFCURVE",
"64 365 CURVE",
"77 317 LINE",
"109 327 OFFCURVE",
"153 333 OFFCURVE",
"180 333 CURVE SMOOTH"
);
},
{
closed = 1;
nodes = (
"136 42 OFFCURVE",
"101 62 OFFCURVE",
"101 103 CURVE SMOOTH",
"101 141 OFFCURVE",
"127 160 OFFCURVE",
"174 170 CURVE SMOOTH",
"189 173 OFFCURVE",
"224 177 OFFCURVE",
"276 178 CURVE",
"276 86 LINE",
"248 60 OFFCURVE",
"217 42 OFFCURVE",
"170 42 CURVE SMOOTH"
);
},
{
closed = 1;
nodes = (
"89 550 LINE",
"239 427 LINE",
"272 465 LINE",
"125 593 LINE"
);
}
);
};
components = (
{
name = a;
transform = "{1, 0, 0, 1, 0, 0}";
},
{
name = grave;
transform = "{1, 0, 0, 1, 90, 0}";
}
);
layerId = "CFA4B904-E3F1-48B6-A7F6-47DC1FF2A3E1";
name = Bold;
width = 408;
}
);
unicode = 00E0;
},
{
glyphname = aogonek;
layers = (
{
layerId = "CFA4B904-E3F1-48B6-A7F6-47DC1FF2A3E1";
name = Bold;
paths = (
{
closed = 1;
nodes = (
"311 -27 OFFCURVE",
"252 -61 OFFCURVE",
"252 -101 CURVE SMOOTH",
"252 -126 OFFCURVE",
"269 -140 OFFCURVE",
"297 -140 CURVE SMOOTH",
"321 -140 OFFCURVE",
"350 -124 OFFCURVE",
"369 -113 CURVE",
"395 -158 LINE",
"362 -179 OFFCURVE",
"327 -200 OFFCURVE",
"270 -200 CURVE SMOOTH",
"210 -200 OFFCURVE",
"162 -164 OFFCURVE",
"162 -116 CURVE SMOOTH",
"162 -44 OFFCURVE",
"241 -15 OFFCURVE",
"286 9 CURVE",
"277 27 LINE",
"248 4 OFFCURVE",
"210 -9 OFFCURVE",
"165 -9 CURVE SMOOTH",
"80 -9 OFFCURVE",
"29 40 OFFCURVE",
"29 105 CURVE SMOOTH",
"29 181 OFFCURVE",
"88 223 OFFCURVE",
"189 228 CURVE SMOOTH",
"264 232 LINE",
"264 297 OFFCURVE",
"246 318 OFFCURVE",
"175 318 CURVE SMOOTH",
"138 318 OFFCURVE",
"106 309 OFFCURVE",
"77 298 CURVE",
"62 364 LINE",
"89 373 OFFCURVE",
"140 390 OFFCURVE",
"190 390 CURVE SMOOTH",
"329 390 OFFCURVE",
"364 325 OFFCURVE",
"364 236 CURVE SMOOTH",
"364 0 LINE"
);
},
{
closed = 1;
nodes = (
"200 162 LINE SMOOTH",
"150 159 OFFCURVE",
"125 143 OFFCURVE",
"125 112 CURVE SMOOTH",
"125 81 OFFCURVE",
"149 63 OFFCURVE",
"189 63 CURVE SMOOTH",
"232 63 OFFCURVE",
"245 74 OFFCURVE",
"268 85 CURVE",
"268 167 LINE"
);
}
);
width = 405;
}
);
unicode = 0105;
},
{
glyphname = ae;
lastChange = "2014-10-27 17:33:40 +0000";
layers = (
{
background = {
paths = (
{
closed = 1;
nodes = (
"552 390 OFFCURVE",
"603 311 OFFCURVE",
"603 190 CURVE SMOOTH",
"603 153 LINE",
"352 153 LINE",
"357 84 OFFCURVE",
"395 66 OFFCURVE",
"464 66 CURVE SMOOTH",
"509 66 OFFCURVE",
"541 71 OFFCURVE",
"569 78 CURVE",
"586 13 LINE",
"550 0 OFFCURVE",
"510 -10 OFFCURVE",
"459 -10 CURVE SMOOTH",
"394 -10 OFFCURVE",
"347 8 OFFCURVE",
"314 39 CURVE",
"250 -1 OFFCURVE",
"201 -9 OFFCURVE",
"165 -9 CURVE SMOOTH",
"80 -9 OFFCURVE",
"29 40 OFFCURVE",
"29 105 CURVE SMOOTH",
"29 181 OFFCURVE",
"88 223 OFFCURVE",
"189 228 CURVE SMOOTH",
"264 232 LINE",
"264 297 OFFCURVE",
"246 318 OFFCURVE",
"175 318 CURVE SMOOTH",
"138 318 OFFCURVE",
"106 309 OFFCURVE",
"77 298 CURVE",
"62 364 LINE",
"89 373 OFFCURVE",
"140 390 OFFCURVE",
"190 390 CURVE SMOOTH",
"257 390 OFFCURVE",
"298 376 OFFCURVE",
"325 351 CURVE",
"356 376 OFFCURVE",
"394 390 OFFCURVE",
"434 390 CURVE SMOOTH"
);
},
{
closed = 1;
nodes = (
"150 159 OFFCURVE",
"125 143 OFFCURVE",
"125 112 CURVE SMOOTH",
"125 81 OFFCURVE",
"149 63 OFFCURVE",
"189 63 CURVE SMOOTH",
"226 63 OFFCURVE",
"248 70 OFFCURVE",
"269 85 CURVE",
"269 167 LINE",
"200 162 LINE SMOOTH"
);
},
{
closed = 1;
nodes = (
"398 315 OFFCURVE",
"357 284 OFFCURVE",
"354 220 CURVE",
"510 220 LINE",
"510 284 OFFCURVE",
"481 315 OFFCURVE",
"436 315 CURVE SMOOTH"
);
}
);
};
layerId = "CFA4B904-E3F1-48B6-A7F6-47DC1FF2A3E1";
name = Bold;
paths = (
{
closed = 1;
nodes = (
"548 390 OFFCURVE",
"599 311 OFFCURVE",
"599 190 CURVE SMOOTH",
"599 153 LINE",
"348 153 LINE",
"353 84 OFFCURVE",
"391 66 OFFCURVE",
"460 66 CURVE SMOOTH",
"505 66 OFFCURVE",
"537 71 OFFCURVE",
"565 78 CURVE",
"582 13 LINE",
"546 0 OFFCURVE",
"506 -10 OFFCURVE",
"455 -10 CURVE SMOOTH",
"390 -10 OFFCURVE",
"343 8 OFFCURVE",
"314 39 CURVE",
"250 -1 OFFCURVE",
"201 -9 OFFCURVE",
"165 -9 CURVE SMOOTH",
"80 -9 OFFCURVE",
"29 40 OFFCURVE",
"29 105 CURVE SMOOTH",
"29 181 OFFCURVE",
"88 223 OFFCURVE",
"189 228 CURVE SMOOTH",
"264 232 LINE",
"264 297 OFFCURVE",
"246 318 OFFCURVE",
"175 318 CURVE SMOOTH",
"138 318 OFFCURVE",
"106 309 OFFCURVE",
"77 298 CURVE",
"62 364 LINE",
"89 373 OFFCURVE",
"140 390 OFFCURVE",
"190 390 CURVE SMOOTH",
"263 390 OFFCURVE",
"294 372 OFFCURVE",
"321 347 CURVE",
"352 372 OFFCURVE",
"390 390 OFFCURVE",
"430 390 CURVE SMOOTH"
);
},
{
closed = 1;
nodes = (
"150 159 OFFCURVE",
"125 143 OFFCURVE",
"125 112 CURVE SMOOTH",
"125 81 OFFCURVE",
"149 63 OFFCURVE",
"189 63 CURVE SMOOTH",
"226 63 OFFCURVE",
"248 70 OFFCURVE",
"269 85 CURVE",
"269 167 LINE",
"200 162 LINE SMOOTH"
);
},
{
closed = 1;
nodes = (
"394 315 OFFCURVE",
"353 284 OFFCURVE",
"350 220 CURVE",
"506 220 LINE",
"506 284 OFFCURVE",
"477 315 OFFCURVE",
"432 315 CURVE SMOOTH"
);
}
);
width = 628;
}
);
unicode = 00E6;
},
{
glyphname = b;
lastChange = "2014-10-27 05:16:50 +0000";
layers = (
{
layerId = "CFA4B904-E3F1-48B6-A7F6-47DC1FF2A3E1";
name = Bold;
paths = (
{
closed = 1;
nodes = (
"149 374 LINE",
"176 386 OFFCURVE",
"207 390 OFFCURVE",
"240 390 CURVE SMOOTH",
"324 390 OFFCURVE",
"427 340 OFFCURVE",
"427 191 CURVE SMOOTH",
"427 69 OFFCURVE",
"356 -9 OFFCURVE",
"231 -9 CURVE SMOOTH",
"190 -9 OFFCURVE",
"156 5 OFFCURVE",
"129 21 CURVE",
"121 0 LINE",
"53 0 LINE",
"53 550 LINE",
"149 550 LINE"
);
},
{
closed = 1;
nodes = (
"195 315 OFFCURVE",
"174 313 OFFCURVE",
"149 302 CURVE",
"149 85 LINE",
"165 74 OFFCURVE",
"187 66 OFFCURVE",
"215 66 CURVE SMOOTH",
"276 66 OFFCURVE",
"329 96 OFFCURVE",
"329 186 CURVE SMOOTH",
"329 285 OFFCURVE",
"279 315 OFFCURVE",
"218 315 CURVE SMOOTH"
);
}
);
width = 457;
}
);
unicode = 0062;
},
{
glyphname = c;
lastChange = "2014-10-27 17:14:12 +0000";
layers = (
{
anchors = (
{
name = top;
position = "{228, 384}";
}
);
layerId = "CFA4B904-E3F1-48B6-A7F6-47DC1FF2A3E1";
name = Bold;
paths = (
{
closed = 1;
nodes = (
"128 118 OFFCURVE",
"171 66 OFFCURVE",
"244 66 CURVE SMOOTH",
"285 66 OFFCURVE",
"316 78 OFFCURVE",
"348 89 CURVE",
"375 27 LINE",
"340 7 OFFCURVE",
"297 -10 OFFCURVE",
"228 -10 CURVE SMOOTH",
"107 -10 OFFCURVE",
"29 70 OFFCURVE",
"29 190 CURVE SMOOTH",
"29 314 OFFCURVE",
"107 390 OFFCURVE",
"228 390 CURVE SMOOTH",
"297 390 OFFCURVE",
"337 373 OFFCURVE",
"375 355 CURVE",
"348 292 LINE",
"316 303 OFFCURVE",
"285 315 OFFCURVE",
"244 315 CURVE SMOOTH",
"165 315 OFFCURVE",
"128 263 OFFCURVE",
"128 190 CURVE SMOOTH"
);
}
);
width = 396;
}
);
unicode = 0063;
},
{
glyphname = ccedilla;
layers = (
{
layerId = "CFA4B904-E3F1-48B6-A7F6-47DC1FF2A3E1";
name = Bold;
paths = (
{
closed = 1;
nodes = (
"128 118 OFFCURVE",
"171 66 OFFCURVE",
"244 66 CURVE SMOOTH",
"285 66 OFFCURVE",
"316 78 OFFCURVE",
"348 89 CURVE",
"375 27 LINE",
"343 8 OFFCURVE",
"308 -6 OFFCURVE",
"251 -10 CURVE",
"243 -42 LINE",
"282 -53 OFFCURVE",
"320 -76 OFFCURVE",
"320 -124 CURVE SMOOTH",
"320 -167 OFFCURVE",
"292 -208 OFFCURVE",
"225 -208 CURVE SMOOTH",
"193 -208 OFFCURVE",
"166 -203 OFFCURVE",
"131 -191 CURVE",
"117 -187 LINE",
"135 -121 LINE",
"189 -136 LINE",
"206 -137 OFFCURVE",
"217 -141 OFFCURVE",
"225 -141 CURVE SMOOTH",
"244 -141 OFFCURVE",
"248 -134 OFFCURVE",
"248 -129 CURVE SMOOTH",
"248 -121 OFFCURVE",
"246 -113 OFFCURVE",
"211 -102 CURVE SMOOTH",
"156 -86 LINE",
"178 -6 LINE",
"85 14 OFFCURVE",
"29 87 OFFCURVE",
"29 190 CURVE SMOOTH",
"29 314 OFFCURVE",
"107 390 OFFCURVE",
"228 390 CURVE SMOOTH",
"302 390 OFFCURVE",
"337 371 OFFCURVE",
"375 355 CURVE",
"348 292 LINE",
"316 303 OFFCURVE",
"285 315 OFFCURVE",
"244 315 CURVE SMOOTH",
"165 315 OFFCURVE",
"128 263 OFFCURVE",
"128 190 CURVE SMOOTH"
);
}
);
width = 396;
}
);
unicode = 00E7;
},
{
glyphname = d;
lastChange = "2014-10-27 05:17:44 +0000";
layers = (
{
layerId = "CFA4B904-E3F1-48B6-A7F6-47DC1FF2A3E1";
name = Bold;
paths = (
{
closed = 1;
nodes = (
"404 0 LINE",
"335 0 LINE",
"328 21 LINE",
"301 5 OFFCURVE",
"266 -9 OFFCURVE",
"225 -9 CURVE SMOOTH",
"103 -9 OFFCURVE",
"29 69 OFFCURVE",
"29 191 CURVE SMOOTH",
"29 340 OFFCURVE",
"140 390 OFFCURVE",
"217 390 CURVE SMOOTH",
"250 390 OFFCURVE",
"281 386 OFFCURVE",
"308 374 CURVE",
"308 550 LINE",
"404 550 LINE"
);
},
{
closed = 1;
nodes = (
"177 315 OFFCURVE",
"128 285 OFFCURVE",
"128 186 CURVE SMOOTH",
"128 96 OFFCURVE",
"178 66 OFFCURVE",
"242 66 CURVE SMOOTH",
"269 66 OFFCURVE",
"291 74 OFFCURVE",
"308 85 CURVE",
"308 302 LINE",
"283 313 OFFCURVE",
"262 315 OFFCURVE",
"239 315 CURVE SMOOTH"
);
}
);
width = 457;
}
);
unicode = 0064;
},
{
glyphname = eth;
lastChange = "2014-10-28 05:44:15 +0000";
layers = (
{
background = {
paths = (
{
closed = 1;
nodes = (
"424 73 OFFCURVE",
"330 -9 OFFCURVE",
"225 -9 CURVE SMOOTH",
"103 -9 OFFCURVE",
"28 65 OFFCURVE",
"28 182 CURVE SMOOTH",
"28 305 OFFCURVE",
"115 367 OFFCURVE",
"218 367 CURVE SMOOTH",
"246 367 OFFCURVE",
"277 362 OFFCURVE",
"305 351 CURVE",
"282 444 OFFCURVE",
"204 482 OFFCURVE",
"158 505 CURVE",
"194 568 LINE",
"254 536 OFFCURVE",
"424 461 OFFCURVE",
"424 218 CURVE SMOOTH"
);
},
{
closed = 1;
nodes = (
"296 287 OFFCURVE",
"268 295 OFFCURVE",
"240 295 CURVE SMOOTH",
"180 295 OFFCURVE",
"125 269 OFFCURVE",
"125 182 CURVE SMOOTH",
"125 110 OFFCURVE",
"170 67 OFFCURVE",
"225 67 CURVE SMOOTH",
"279 67 OFFCURVE",
"346 101 OFFCURVE",
"325 272 CURVE"
);
},
{
closed = 1;
nodes = (
"383 539 LINE",
"407 478 LINE",
"186 388 LINE",
"161 448 LINE"
);
}
);
};
layerId = "CFA4B904-E3F1-48B6-A7F6-47DC1FF2A3E1";
name = Bold;
paths = (
{
closed = 1;
nodes = (
"407 478 LINE",
"383 539 LINE",
"297.34 503.887 LINE",
"257.236 536.639 OFFCURVE",
"217.314 555.566 OFFCURVE",
"194 568 CURVE",
"158 505 LINE",
"175.021 496.49 OFFCURVE",
"196.422 485.926 OFFCURVE",
"217.797 471.282 CURVE",
"161 448 LINE",
"186 388 LINE",
"270.626 422.463 LINE",
"285.608 403.082 OFFCURVE",
"297.914 379.651 OFFCURVE",
"305 351 CURVE",
"277 362 OFFCURVE",
"246 367 OFFCURVE",
"218 367 CURVE SMOOTH",
"115 367 OFFCURVE",
"28 305 OFFCURVE",
"28 182 CURVE SMOOTH",
"28 64.9999 OFFCURVE",
"103 -9 OFFCURVE",
"225 -9 CURVE SMOOTH",
"330 -9 OFFCURVE",
"424 72.9999 OFFCURVE",
"424 218 CURVE SMOOTH",
"424 326.252 OFFCURVE",
"390.263 401.164 OFFCURVE",
"347.542 453.786 CURVE"
);
},
{
closed = 1;
nodes = (
"170 66.9999 OFFCURVE",
"125 110 OFFCURVE",
"125 182 CURVE SMOOTH",
"125 269 OFFCURVE",
"180 295 OFFCURVE",
"240 295 CURVE SMOOTH",
"268 295 OFFCURVE",
"296 287 OFFCURVE",
"325 272 CURVE",
"346 101 OFFCURVE",
"279 66.9999 OFFCURVE",
"225 66.9999 CURVE SMOOTH"
);
}
);
width = 448;
}
);
unicode = 00F0;
},
{
glyphname = dcaron;
layers = (
{
components = (
{
name = d;
transform = "{1, 0, 0, 1, 0, 0}";
}
);
guideLines = (
{
angle = 90;
position = "{403, 466}";
}
);
layerId = "CFA4B904-E3F1-48B6-A7F6-47DC1FF2A3E1";
name = Bold;
paths = (
{
closed = 1;
nodes = (
"523 420 LINE",
"452 420 LINE",
"478 596 LINE",
"570 596 LINE"
);
}
);
width = 540;
}
);
unicode = 010F;
},
{
glyphname = dcroat;
layers = (
{
background = {
paths = (
{
closed = 1;
nodes = (
"253 -8 OFFCURVE",
"290 5 OFFCURVE",
"324 27 CURVE",
"335 0 LINE",
"383 0 LINE",
"383 439 LINE",
"439 439 LINE",
"439 485 LINE",
"383 485 LINE",
"383 532 LINE",
"315 532 LINE",
"315 485 LINE",
"212 485 LINE",
"212 439 LINE",
"315 439 LINE",
"315 374 LINE",
"286 388 OFFCURVE",
"256 392 OFFCURVE",
"225 392 CURVE SMOOTH",
"171 392 OFFCURVE",
"128 375 OFFCURVE",
"93 341 CURVE SMOOTH",
"57 305 OFFCURVE",
"38 253 OFFCURVE",
"38 188 CURVE SMOOTH",
"38 73 OFFCURVE",
"98 -8 OFFCURVE",
"216 -8 CURVE SMOOTH"
);
},
{
closed = 1;
nodes = (
"145 47 OFFCURVE",
"105 107 OFFCURVE",
"105 192 CURVE SMOOTH",
"105 278 OFFCURVE",
"145 339 OFFCURVE",
"230 339 CURVE SMOOTH",
"260 339 OFFCURVE",
"288 335 OFFCURVE",
"315 324 CURVE",
"315 70 LINE",
"289 56 OFFCURVE",
"268 47 OFFCURVE",
"229 47 CURVE SMOOTH"
);
}
);
};
layerId = "CFA4B904-E3F1-48B6-A7F6-47DC1FF2A3E1";
name = Bold;
paths = (
{
closed = 1;
nodes = (
"404 498 LINE",
"477 498 LINE",
"477 425 LINE",
"404 425 LINE",
"404 0 LINE",
"335 0 LINE",
"328 21 LINE",
"301 5 OFFCURVE",
"266 -9 OFFCURVE",
"225 -9 CURVE SMOOTH",
"103 -9 OFFCURVE",
"29 66 OFFCURVE",
"29 188 CURVE SMOOTH",
"29 329 OFFCURVE",
"140 384 OFFCURVE",
"217 384 CURVE SMOOTH",
"250 384 OFFCURVE",
"281 376 OFFCURVE",
"308 367 CURVE",
"308 425 LINE",
"152 425 LINE",
"152 498 LINE",
"308 498 LINE",
"308 550 LINE",
"404 550 LINE"
);
},
{
closed = 1;
nodes = (
"177 308 OFFCURVE",
"128 278 OFFCURVE",
"128 181 CURVE SMOOTH",
"128 96 OFFCURVE",
"178 66 OFFCURVE",
"242 66 CURVE SMOOTH",
"269 66 OFFCURVE",
"291 74 OFFCURVE",
"308 85 CURVE",
"308 295 LINE",
"283 303 OFFCURVE",
"262 308 OFFCURVE",
"239 308 CURVE SMOOTH"
);
}
);
width = 477;
}
);
unicode = 0111;
},
{
glyphname = e;
lastChange = "2014-10-27 15:43:36 +0000";
layers = (
{
anchors = (
{
name = top;
position = "{207, 384}";
}
);
layerId = "CFA4B904-E3F1-48B6-A7F6-47DC1FF2A3E1";
name = Bold;
paths = (
{
closed = 1;
nodes = (
"326 390 OFFCURVE",
"387 311 OFFCURVE",
"387 190 CURVE SMOOTH",
"387 153 LINE",
"126 153 LINE",
"131 84 OFFCURVE",
"177 66 OFFCURVE",
"245 66 CURVE SMOOTH",
"290 66 OFFCURVE",
"323 71 OFFCURVE",
"351 78 CURVE",
"368 13 LINE",
"331 0 OFFCURVE",
"284 -10 OFFCURVE",
"232 -10 CURVE SMOOTH",
"96 -10 OFFCURVE",
"29 75 OFFCURVE",
"29 190 CURVE SMOOTH",
"29 314 OFFCURVE",
"115 390 OFFCURVE",
"207 390 CURVE SMOOTH"
);
},
{
closed = 1;
nodes = (
"172 315 OFFCURVE",
"131 284 OFFCURVE",
"128 220 CURVE",
"292 220 LINE",
"292 284 OFFCURVE",
"256 315 OFFCURVE",
"209 315 CURVE SMOOTH"
);
}
);
width = 416;
}
);
unicode = 0065;
},
{
glyphname = eacute;
lastChange = "2014-10-27 15:46:05 +0000";
layers = (
{
background = {
paths = (
{
closed = 1;
nodes = (
"155 389 OFFCURVE",
"112 370 OFFCURVE",
"81 330 CURVE SMOOTH",
"51 290 OFFCURVE",
"38 242 OFFCURVE",
"38 185 CURVE SMOOTH",
"38 62 OFFCURVE",
"105 -8 OFFCURVE",
"229 -8 CURVE SMOOTH",
"272 -8 OFFCURVE",
"314 0 OFFCURVE",
"352 13 CURVE",
"340 61 LINE",
"308 50 OFFCURVE",
"276 46 OFFCURVE",
"247 46 CURVE SMOOTH",
"199 46 OFFCURVE",
"161 58 OFFCURVE",
"138 81 CURVE",
"117 105 OFFCURVE",
"101 137 OFFCURVE",
"101 172 CURVE",
"364 172 LINE",
"368 180 LINE",
"368 215 LINE SMOOTH",
"368 325 OFFCURVE",
"312 389 OFFCURVE",
"210 389 CURVE SMOOTH"
);
},
{
closed = 1;
nodes = (
"102 224 LINE",
"109 284 OFFCURVE",
"142 338 OFFCURVE",
"217 338 CURVE SMOOTH",
"276 338 OFFCURVE",
"302 286 OFFCURVE",
"302 224 CURVE"
);
},
{
closed = 1;
nodes = (
"143 427 LINE",
"293 550 LINE",
"257 593 LINE",
"110 465 LINE"
);
}
);
};
components = (
{
name = e;
transform = "{1, 0, 0, 1, 0, 0}";
},
{
name = acute;
transform = "{1, 0, 0, 1, 73, 0}";
}
);
layerId = "CFA4B904-E3F1-48B6-A7F6-47DC1FF2A3E1";
name = Bold;
width = 416;
}
);
unicode = 00E9;
},
{
glyphname = eogonek;
layers = (
{
layerId = "CFA4B904-E3F1-48B6-A7F6-47DC1FF2A3E1";
name = Bold;
paths = (
{
closed = 1;
nodes = (
"326 390 OFFCURVE",
"387 311 OFFCURVE",
"387 190 CURVE SMOOTH",
"387 153 LINE",
"126 153 LINE",
"131 84 OFFCURVE",
"177 66 OFFCURVE",
"245 66 CURVE SMOOTH",
"290 66 OFFCURVE",
"323 71 OFFCURVE",
"351 78 CURVE",
"368 13 LINE",
"322 2 OFFCURVE",
"232 -19 OFFCURVE",
"232 -87 CURVE SMOOTH",
"232 -115 OFFCURVE",
"248 -137 OFFCURVE",
"280 -137 CURVE SMOOTH",
"305 -137 OFFCURVE",
"332 -125 OFFCURVE",
"352 -118 CURVE",
"375 -162 LINE",
"343 -182 OFFCURVE",
"305 -200 OFFCURVE",
"249 -200 CURVE SMOOTH",
"179 -200 OFFCURVE",
"139 -156 OFFCURVE",
"139 -99 CURVE SMOOTH",
"139 -65 OFFCURVE",
"157 -35 OFFCURVE",
"194 -8 CURVE",
"82 8 OFFCURVE",
"29 84 OFFCURVE",
"29 190 CURVE SMOOTH",
"29 314 OFFCURVE",
"115 390 OFFCURVE",
"207 390 CURVE SMOOTH"
);
},
{
closed = 1;
nodes = (
"172 315 OFFCURVE",
"131 284 OFFCURVE",
"128 220 CURVE",
"292 220 LINE",
"292 284 OFFCURVE",
"256 315 OFFCURVE",
"209 315 CURVE SMOOTH"
);
}
);
width = 416;
}
);
unicode = 0119;
},
{
glyphname = f;
lastChange = "2014-10-27 05:18:49 +0000";
layers = (
{
layerId = "CFA4B904-E3F1-48B6-A7F6-47DC1FF2A3E1";
name = Bold;
paths = (
{
closed = 1;
nodes = (
"80 456 OFFCURVE",
"96 554 OFFCURVE",
"237 554 CURVE SMOOTH",
"257 554 OFFCURVE",
"290 552 OFFCURVE",
"335 539 CURVE",
"349 534 LINE",
"334 465 LINE",
"318 470 LINE",
"307 473 OFFCURVE",
"282 478 OFFCURVE",
"259 478 CURVE SMOOTH",
"207 478 OFFCURVE",
"175 456 OFFCURVE",
"175 417 CURVE SMOOTH",
"175 384 LINE",
"318 384 LINE",
"318 309 LINE",
"175 309 LINE",
"175 0 LINE",
"80 0 LINE",
"80 309 LINE",
"16 309 LINE",
"16 384 LINE",
"80 384 LINE",
"80 414 LINE SMOOTH"
);
}
);
width = 316;
}
);
unicode = 0066;
},
{
glyphname = g;
lastChange = "2014-10-28 06:15:22 +0000";
layers = (
{
anchors = (
{
name = top;
position = "{217, 384}";
}
);
layerId = "CFA4B904-E3F1-48B6-A7F6-47DC1FF2A3E1";
name = Bold;
paths = (
{
closed = 1;
nodes = (
"282 -1 OFFCURVE",
"260 -9 OFFCURVE",
"225 -9 CURVE SMOOTH",
"103 -9 OFFCURVE",
"29 69 OFFCURVE",
"29 191 CURVE SMOOTH",
"29 346 OFFCURVE",
"140 390 OFFCURVE",
"212 390 CURVE SMOOTH",
"260 390 OFFCURVE",
"301 374 OFFCURVE",
"328 359 CURVE",
"337 384 LINE",
"404 384 LINE",
"404 -9 LINE SMOOTH",
"404 -98 OFFCURVE",
"361 -209 OFFCURVE",
"196 -209 CURVE SMOOTH",
"160 -209 OFFCURVE",
"112 -203 OFFCURVE",
"63 -184 CURVE SMOOTH",
"48 -178 LINE",
"74 -108 LINE",
"90 -113 LINE",
"115 -122 OFFCURVE",
"150 -133 OFFCURVE",
"186 -133 CURVE SMOOTH",
"292 -133 OFFCURVE",
"309 -77 OFFCURVE",
"309 9 CURVE SMOOTH",
"309 11 LINE"
);
},
{
closed = 1;
nodes = (
"177 314 OFFCURVE",
"128 284 OFFCURVE",
"128 186 CURVE SMOOTH",
"128 96 OFFCURVE",
"178 66 OFFCURVE",
"242 66 CURVE SMOOTH",
"269 66 OFFCURVE",
"291 74 OFFCURVE",
"308 85 CURVE",
"308 300 LINE",
"283 311 OFFCURVE",
"262 314 OFFCURVE",
"239 314 CURVE SMOOTH"
);
}
);
width = 455;
}
);
unicode = 0067;
},
{
glyphname = gcommaaccent;
lastChange = "2014-10-28 06:10:01 +0000";
layers = (
{
background = {
paths = (
{
closed = 1;
nodes = (
"191 435 LINE",
"237 435 LINE",
"274 586 LINE",
"214 586 LINE"
);
},
{
closed = 1;
nodes = (
"315 8 LINE SMOOTH",
"315 -18 OFFCURVE",
"315 -37 OFFCURVE",
"314 -48 CURVE SMOOTH",
"306 -118 OFFCURVE",
"261 -159 OFFCURVE",
"180 -159 CURVE SMOOTH",
"153 -159 OFFCURVE",
"123 -151 OFFCURVE",
"89 -139 CURVE",
"72 -185 LINE",
"104 -200 OFFCURVE",
"152 -210 OFFCURVE",
"189 -210 CURVE SMOOTH",
"248 -210 OFFCURVE",
"297 -192 OFFCURVE",
"328 -162 CURVE SMOOTH",
"367 -126 OFFCURVE",
"381 -89 OFFCURVE",
"381 -18 CURVE SMOOTH",
"381 384 LINE",
"334 384 LINE",
"327 360 LINE",
"308 369 LINE SMOOTH",
"276 384 OFFCURVE",
"246 389 OFFCURVE",
"218 389 CURVE SMOOTH",
"196 389 OFFCURVE",
"174 387 OFFCURVE",
"153 377 CURVE",
"83 348 OFFCURVE",
"38 282 OFFCURVE",
"38 185 CURVE SMOOTH",
"38 135 OFFCURVE",
"50 97 OFFCURVE",
"73 63 CURVE SMOOTH",
"102 21 OFFCURVE",
"148 -8 OFFCURVE",
"214 -8 CURVE SMOOTH",
"252 -8 OFFCURVE",
"282 1 OFFCURVE",
"315 18 CURVE"
);
},
{
closed = 1;
nodes = (
"208 45 OFFCURVE",
"189 49 OFFCURVE",
"171 59 CURVE SMOOTH",
"129 81 OFFCURVE",
"104 132 OFFCURVE",
"104 194 CURVE SMOOTH",
"104 277 OFFCURVE",
"143 337 OFFCURVE",
"226 337 CURVE SMOOTH",
"252 337 OFFCURVE",
"281 332 OFFCURVE",
"315 317 CURVE",
"315 66 LINE",
"291 52 OFFCURVE",
"262 45 OFFCURVE",
"229 45 CURVE SMOOTH"
);
}
);
};
components = (
{
name = g;
transform = "{1, 0, 0, 1, 0, 0}";
}
);
layerId = "CFA4B904-E3F1-48B6-A7F6-47DC1FF2A3E1";
name = Bold;
paths = (
{
closed = 1;
nodes = (
"258 450 LINE",
"187 450 LINE",
"213 626 LINE",
"305 626 LINE"
);
}
);
width = 455;
}
);
unicode = 0123;
},
{
glyphname = h;
lastChange = "2014-10-27 05:19:29 +0000";
layers = (
{
layerId = "CFA4B904-E3F1-48B6-A7F6-47DC1FF2A3E1";
name = Bold;
paths = (
{
closed = 1;
nodes = (
"221 309 OFFCURVE",
"190 304 OFFCURVE",
"149 288 CURVE",
"149 0 LINE",
"53 0 LINE",
"53 550 LINE",
"149 550 LINE",
"149 364 LINE",
"178 376 OFFCURVE",
"221 389 OFFCURVE",
"265 389 CURVE SMOOTH",
"396 389 OFFCURVE",
"405 286 OFFCURVE",
"405 218 CURVE SMOOTH",
"405 0 LINE",
"309 0 LINE",
"309 231 LINE SMOOTH",
"309 268 OFFCURVE",
"300 309 OFFCURVE",
"240 309 CURVE SMOOTH"
);
}
);
width = 449;
}
);
unicode = 0068;
},
{
glyphname = i;
lastChange = "2014-10-27 10:05:46 +0000";
layers = (
{
background = {
paths = (
{
closed = 1;
nodes = (
"145 459 LINE",
"49 459 LINE",
"49 550 LINE",
"145 550 LINE"
);
},
{
closed = 1;
nodes = (
"145 0 LINE",
"49 0 LINE",
"49 384 LINE",
"145 384 LINE"
);
}
);
};
components = (
{
name = dotlessi;
transform = "{1, 0, 0, 1, 0, 0}";
},
{
name = dotaccent;
transform = "{1, 0, 0, 1, 31, 0}";
}
);
layerId = "CFA4B904-E3F1-48B6-A7F6-47DC1FF2A3E1";
name = Bold;
width = 194;
}
);
unicode = 0069;
},
{
glyphname = dotlessi;
lastChange = "2014-10-27 10:05:19 +0000";
layers = (
{
anchors = (
{
name = top;
position = "{97, 384}";
}
);
layerId = "CFA4B904-E3F1-48B6-A7F6-47DC1FF2A3E1";
name = Bold;
paths = (
{
closed = 1;
nodes = (
"145 0 LINE",
"49 0 LINE",
"49 384 LINE",
"145 384 LINE"
);
}
);
width = 194;
}
);
unicode = 0131;
},
{
glyphname = ij;
lastChange = "2014-10-28 06:10:47 +0000";
layers = (
{
anchors = (
{
name = top;
position = "{273, 384}";
}
);
components = (
{
name = i;
transform = "{1, 0, 0, 1, 0, 0}";
}
);
layerId = "CFA4B904-E3F1-48B6-A7F6-47DC1FF2A3E1";
name = Bold;
paths = (
{
closed = 1;
nodes = (
"320 -29 LINE SMOOTH",
"320 -92 OFFCURVE",
"305 -165 OFFCURVE",
"189 -207 CURVE",
"176 -211 LINE",
"143 -145 LINE",
"157 -137 LINE",
"219 -105 OFFCURVE",
"226 -83 OFFCURVE",
"226 3 CURVE SMOOTH",
"226 384 LINE",
"320 384 LINE"
);
},
{
closed = 1;
nodes = (
"307 449 OFFCURVE",
"334 476 OFFCURVE",
"334 510 CURVE SMOOTH",
"334 544 OFFCURVE",
"307 571 OFFCURVE",
"273 571 CURVE SMOOTH",
"239 571 OFFCURVE",
"212 544 OFFCURVE",
"212 510 CURVE SMOOTH",
"212 476 OFFCURVE",
"239 449 OFFCURVE",
"273 449 CURVE SMOOTH"
);
}
);
width = 368;
}
);
unicode = 0133;
},
{
glyphname = iogonek;
layers = (
{
anchors = (
{
name = top;
position = "{109, 384}";
}
);
components = (
{
name = dotaccent;
transform = "{1, 0, 0, 1, 42, 0}";
}
);
layerId = "CFA4B904-E3F1-48B6-A7F6-47DC1FF2A3E1";
name = Bold;
paths = (
{
closed = 1;
nodes = (
"82 -19 OFFCURVE",
"53 -48 OFFCURVE",
"53 -87 CURVE SMOOTH",
"53 -115 OFFCURVE",
"69 -137 OFFCURVE",
"102 -137 CURVE SMOOTH",
"127 -137 OFFCURVE",
"154 -125 OFFCURVE",
"174 -118 CURVE",
"197 -162 LINE",
"162 -182 OFFCURVE",
"126 -200 OFFCURVE",
"70 -200 CURVE SMOOTH",
"2 -200 OFFCURVE",
"-40 -156 OFFCURVE",
"-40 -99 CURVE SMOOTH",
"-40 -52 OFFCURVE",
"-6 -13 OFFCURVE",
"62 20 CURVE",
"62 384 LINE",
"157 384 LINE",
"157 18 LINE"
);
}
);
width = 205;
}
);
unicode = 012F;
},
{
glyphname = dotlessj;
lastChange = "2014-10-27 10:30:14 +0000";
layers = (
{
anchors = (
{
name = top;
position = "{106, 384}";
}
);
layerId = "CFA4B904-E3F1-48B6-A7F6-47DC1FF2A3E1";
name = Bold;
paths = (
{
closed = 1;
nodes = (
"153 -29 LINE SMOOTH",
"153 -92 OFFCURVE",
"138 -165 OFFCURVE",
"22 -207 CURVE",
"9 -211 LINE",
"-24 -145 LINE",
"-10 -137 LINE",
"52 -105 OFFCURVE",
"59 -83 OFFCURVE",
"59 3 CURVE SMOOTH",
"59 384 LINE",
"153 384 LINE"
);
}
);
width = 201;
}
);
unicode = 0237;
},
{
glyphname = k;
lastChange = "2014-10-28 06:16:02 +0000";
layers = (
{
anchors = (
{
name = bottom;
position = "{227, 0}";
}
);
layerId = "CFA4B904-E3F1-48B6-A7F6-47DC1FF2A3E1";
name = Bold;
paths = (
{
closed = 1;
nodes = (
"53 0 LINE",
"53 550 LINE",
"149 550 LINE",
"149 0 LINE"
);
},
{
closed = 1;
nodes = (
"272 211 LINE",
"427 0 LINE",
"311 0 LINE",
"159 211 LINE",
"304 389 LINE",
"420 389 LINE"
);
}
);
width = 435;
}
);
unicode = 006B;
},
{
glyphname = l;
lastChange = "2014-10-28 06:17:10 +0000";
layers = (
{
anchors = (
{
name = bottom;
position = "{151, 0}";
},
{
name = top;
position = "{208, 550}";
}
);
layerId = "CFA4B904-E3F1-48B6-A7F6-47DC1FF2A3E1";
name = Bold;
paths = (
{
closed = 1;
nodes = (
"206 66 OFFCURVE",
"222 69 OFFCURVE",
"237 73 CURVE",
"237 10 LINE",
"222 3 OFFCURVE",
"196 -9 OFFCURVE",
"151 -9 CURVE SMOOTH",
"71 -9 OFFCURVE",
"53 46 OFFCURVE",
"53 99 CURVE SMOOTH",
"53 550 LINE",
"147 550 LINE",
"147 127 LINE SMOOTH",
"147 90 OFFCURVE",
"155 66 OFFCURVE",
"191 66 CURVE SMOOTH"
);
}
);
width = 244;
}
);
unicode = 006C;
},
{
glyphname = lcaron;
layers = (
{
background = {
paths = (
{
closed = 1;
nodes = (
"121 51 OFFCURVE",
"119 78 OFFCURVE",
"119 106 CURVE SMOOTH",
"119 533 LINE",
"56 533 LINE",
"56 83 LINE SMOOTH",
"57 29 OFFCURVE",
"88 -9 OFFCURVE",
"138 -9 CURVE SMOOTH",
"176 -9 OFFCURVE",
"201 7 OFFCURVE",
"216 10 CURVE",
"204 57 LINE",
"191 53 OFFCURVE",
"181 51 OFFCURVE",
"170 51 CURVE SMOOTH"
);
},
{
closed = 1;
nodes = (
"162 435 LINE",
"208 435 LINE",
"245 586 LINE",
"185 586 LINE"
);
}
);
};
components = (
{
name = l;
transform = "{1, 0, 0, 1, 0, 0}";
}
);
guideLines = (
{
angle = 90;
position = "{148, 466}";
}
);
layerId = "CFA4B904-E3F1-48B6-A7F6-47DC1FF2A3E1";
name = Bold;
paths = (
{
closed = 1;
nodes = (
"278 420 LINE",
"207 420 LINE",
"233 596 LINE",
"325 596 LINE"
);
}
);
width = 295;
}
);
unicode = 013E;
},
{
glyphname = lslash;
lastChange = "2014-10-28 06:18:41 +0000";
layers = (
{
background = {
paths = (
{
closed = 1;
nodes = (
"232 375 LINE",
"232 287 LINE",
"0 155 LINE",
"0 242 LINE"
);
},
{
closed = 1;
nodes = (
"212 66 OFFCURVE",
"229 69 OFFCURVE",
"244 73 CURVE",
"244 10 LINE",
"229 3 OFFCURVE",
"202 -9 OFFCURVE",
"158 -9 CURVE SMOOTH",
"76 -9 OFFCURVE",
"61 46 OFFCURVE",
"61 99 CURVE SMOOTH",
"61 550 LINE",
"153 550 LINE",
"153 127 LINE SMOOTH",
"153 90 OFFCURVE",
"162 66 OFFCURVE",
"199 66 CURVE SMOOTH"
);
}
);
};
layerId = "CFA4B904-E3F1-48B6-A7F6-47DC1FF2A3E1";
name = Bold;
paths = (
{
closed = 1;
nodes = (
"162 66 OFFCURVE",
"153 90 OFFCURVE",
"153 127 CURVE SMOOTH",
"153 242.052 LINE",
"232 287 LINE",
"232 375 LINE",
"153 329.711 LINE",
"153 550 LINE",
"61 550 LINE",
"61 276.97 LINE",
"0 242 LINE",
"0 155 LINE",
"61 189.707 LINE",
"61 99 LINE SMOOTH",
"61 46 OFFCURVE",
"76 -9 OFFCURVE",
"158 -9 CURVE SMOOTH",
"202 -9 OFFCURVE",
"229 3 OFFCURVE",
"244 10 CURVE",
"244 73 LINE",
"229 69 OFFCURVE",
"212 66 OFFCURVE",
"199 66 CURVE SMOOTH"
);
}
);
width = 252;
}
);
unicode = 0142;
},
{
glyphname = m;
lastChange = "2014-10-27 05:20:59 +0000";
layers = (
{
layerId = "CFA4B904-E3F1-48B6-A7F6-47DC1FF2A3E1";
name = Bold;
paths = (
{
closed = 1;
nodes = (
"149 364 OFFCURVE",
"199 389 OFFCURVE",
"252 389 CURVE SMOOTH",
"300 389 OFFCURVE",
"330 374 OFFCURVE",
"351 350 CURVE",
"373 361 OFFCURVE",
"434 389 OFFCURVE",
"491 389 CURVE SMOOTH",
"616 389 OFFCURVE",
"622 284 OFFCURVE",
"622 218 CURVE SMOOTH",
"622 0 LINE",
"527 0 LINE",
"527 230 LINE SMOOTH",
"527 259 OFFCURVE",
"519 308 OFFCURVE",
"466 308 CURVE SMOOTH",
"441 308 OFFCURVE",
"417 301 OFFCURVE",
"377 284 CURVE",
"382 260 OFFCURVE",
"384 234 OFFCURVE",
"384 214 CURVE SMOOTH",
"384 0 LINE",
"288 0 LINE",
"288 230 LINE SMOOTH",
"288 259 OFFCURVE",
"279 308 OFFCURVE",
"226 308 CURVE SMOOTH",
"207 308 OFFCURVE",
"186 303 OFFCURVE",
"142 287 CURVE",
"142 0 LINE",
"47 0 LINE",
"47 384 LINE",
"115 384 LINE",
"127 356 LINE"
);
}
);
width = 668;
}
);
unicode = 006D;
},
{
glyphname = n;
lastChange = "2014-10-27 17:18:55 +0000";
layers = (
{
anchors = (
{
name = bottom;
position = "{223, 0}";
},
{
name = top;
position = "{229, 384}";
}
);
background = {
paths = (
{
closed = 1;
nodes = (
"310 0 LINE",
"375 0 LINE",
"375 260 LINE SMOOTH",
"375 340 OFFCURVE",
"333 390 OFFCURVE",
"250 390 CURVE SMOOTH",
"209 390 OFFCURVE",
"162 378 OFFCURVE",
"115 352 CURVE",
"101 384 LINE",
"56 384 LINE",
"56 0 LINE",
"121 0 LINE",
"121 308 LINE",
"161 327 OFFCURVE",
"197 335 OFFCURVE",
"227 335 CURVE SMOOTH",
"289 335 OFFCURVE",
"310 308 OFFCURVE",
"310 244 CURVE SMOOTH"
);
},
{
closed = 1;
nodes = (
"298 592 LINE",
"217 510 LINE",
"136 592 LINE",
"100 557 LINE",
"217 435 LINE",
"334 557 LINE"
);
}
);
};
layerId = "CFA4B904-E3F1-48B6-A7F6-47DC1FF2A3E1";
name = Bold;
paths = (
{
closed = 1;
nodes = (
"158 371 OFFCURVE",
"207 389 OFFCURVE",
"260 389 CURVE SMOOTH",
"393 389 OFFCURVE",
"399 284 OFFCURVE",
"399 218 CURVE SMOOTH",
"399 0 LINE",
"304 0 LINE",
"304 230 LINE SMOOTH",
"304 259 OFFCURVE",
"293 308 OFFCURVE",
"235 308 CURVE SMOOTH",
"215 308 OFFCURVE",
"186 303 OFFCURVE",
"142 287 CURVE",
"142 0 LINE",
"47 0 LINE",
"47 384 LINE",
"115 384 LINE",
"127 356 LINE"
);
}
);
width = 445;
}
);
unicode = 006E;
},
{
glyphname = o;
lastChange = "2014-10-27 15:43:55 +0000";
layers = (
{
anchors = (
{
name = top;
position = "{228, 384}";
}
);
layerId = "CFA4B904-E3F1-48B6-A7F6-47DC1FF2A3E1";
name = Bold;
paths = (
{
closed = 1;
nodes = (
"175 315 OFFCURVE",
"129 272 OFFCURVE",
"129 190 CURVE SMOOTH",
"129 109 OFFCURVE",
"174 67 OFFCURVE",
"227 67 CURVE SMOOTH",
"283 67 OFFCURVE",
"326 109 OFFCURVE",
"326 190 CURVE SMOOTH",
"326 273 OFFCURVE",
"280 315 OFFCURVE",
"227 315 CURVE SMOOTH"
);
},
{
closed = 1;
nodes = (
"108 -9 OFFCURVE",
"30 74 OFFCURVE",
"30 190 CURVE SMOOTH",
"30 314 OFFCURVE",
"108 390 OFFCURVE",
"228 390 CURVE SMOOTH",
"348 390 OFFCURVE",
"425 313 OFFCURVE",
"425 191 CURVE SMOOTH",
"425 73 OFFCURVE",
"347 -9 OFFCURVE",
"227 -9 CURVE SMOOTH"
);
}
);
width = 455;
}
);
unicode = 006F;
},
{
glyphname = ohungarumlaut;
lastChange = "2014-10-28 06:47:03 +0000";
layers = (
{
background = {
paths = (
{
closed = 1;
nodes = (
"301 338 OFFCURVE",
"343 272 OFFCURVE",
"343 190 CURVE SMOOTH",
"343 109 OFFCURVE",
"302 44 OFFCURVE",
"225 44 CURVE SMOOTH",
"146 44 OFFCURVE",
"105 109 OFFCURVE",
"105 190 CURVE SMOOTH",
"105 272 OFFCURVE",
"147 338 OFFCURVE",
"225 338 CURVE SMOOTH"
);
},
{
closed = 1;
nodes = (
"339 -9 OFFCURVE",
"409 72 OFFCURVE",
"409 191 CURVE SMOOTH",
"409 312 OFFCURVE",
"344 389 OFFCURVE",
"225 389 CURVE SMOOTH",
"107 389 OFFCURVE",
"38 311 OFFCURVE",
"38 190 CURVE SMOOTH",
"38 71 OFFCURVE",
"105 -9 OFFCURVE",
"222 -9 CURVE SMOOTH"
);
},
{
closed = 1;
nodes = (
"296 427 LINE",
"446 550 LINE",
"410 593 LINE",
"263 465 LINE"
);
},
{
closed = 1;
nodes = (
"146 427 LINE",
"296 550 LINE",
"260 593 LINE",
"113 465 LINE"
);
}
);
};
components = (
{
name = o;
transform = "{1, 0, 0, 1, 0, 0}";
},
{
name = hungarumlaut;
transform = "{1, 0, 0, 1, 82, 0}";
}
);
layerId = "CFA4B904-E3F1-48B6-A7F6-47DC1FF2A3E1";
name = Bold;
width = 455;
}
);
unicode = 0151;
},
{
glyphname = oslash;
layers = (
{
background = {
paths = (
{
closed = 1;
nodes = (
"344 -9 OFFCURVE",
"412 72 OFFCURVE",
"412 191 CURVE SMOOTH",
"412 238 OFFCURVE",
"403 279 OFFCURVE",
"384 311 CURVE",
"427 355 LINE",
"390 393 LINE",
"349 351 LINE",
"318 375 OFFCURVE",
"279 389 OFFCURVE",
"228 389 CURVE SMOOTH",
"111 389 OFFCURVE",
"44 311 OFFCURVE",
"44 190 CURVE SMOOTH",
"44 142 OFFCURVE",
"53 101 OFFCURVE",
"74 68 CURVE",
"29 22 LINE",
"66 -12 LINE",
"108 29 LINE",
"138 7 OFFCURVE",
"178 -9 OFFCURVE",
"226 -9 CURVE SMOOTH"
);
},
{
closed = 1;
nodes = (
"260 338 OFFCURVE",
"287 327 OFFCURVE",
"307 307 CURVE",
"122 117 LINE",
"113 139 OFFCURVE",
"109 164 OFFCURVE",
"109 190 CURVE SMOOTH",
"109 272 OFFCURVE",
"151 338 OFFCURVE",
"228 338 CURVE SMOOTH"
);
},
{
closed = 1;
nodes = (
"347 109 OFFCURVE",
"307 44 OFFCURVE",
"228 44 CURVE SMOOTH",
"196 44 OFFCURVE",
"170 55 OFFCURVE",
"151 73 CURVE",
"334 260 LINE",
"343 240 OFFCURVE",
"347 217 OFFCURVE",
"347 190 CURVE SMOOTH"
);
}
);
};
components = (
{
name = o;
transform = "{1, 0, 0, 1, 0, 0}";
}
);
layerId = "CFA4B904-E3F1-48B6-A7F6-47DC1FF2A3E1";
name = Bold;
paths = (
{
closed = 1;
nodes = (
"436 347 LINE",
"75 -21 LINE",
"22 29 LINE",
"383 401 LINE"
);
}
);
width = 455;
}
);
unicode = 00F8;
},
{
glyphname = oe;
lastChange = "2014-10-27 17:32:47 +0000";
layers = (
{
background = {
paths = (
{
closed = 1;
nodes = (
"610 390 OFFCURVE",
"658 311 OFFCURVE",
"658 190 CURVE SMOOTH",
"658 153 LINE",
"408 153 LINE",
"415 84 OFFCURVE",
"451 66 OFFCURVE",
"520 66 CURVE SMOOTH",
"567 66 OFFCURVE",
"597 71 OFFCURVE",
"626 78 CURVE",
"641 13 LINE",
"608 0 OFFCURVE",
"567 -10 OFFCURVE",
"515 -10 CURVE SMOOTH",
"424 -10 OFFCURVE",
"367 26 OFFCURVE",
"336 82 CURVE",
"336 294 LINE",
"368 354 OFFCURVE",
"427 390 OFFCURVE",
"490 390 CURVE SMOOTH"
);
},
{
closed = 1;
nodes = (
"456 315 OFFCURVE",
"410 284 OFFCURVE",
"410 220 CURVE",
"566 220 LINE",
"566 284 OFFCURVE",
"538 315 OFFCURVE",
"493 315 CURVE SMOOTH"
);
},
{
closed = 1;
nodes = (
"174 315 OFFCURVE",
"128 272 OFFCURVE",
"128 190 CURVE SMOOTH",
"128 109 OFFCURVE",
"173 67 OFFCURVE",
"226 67 CURVE SMOOTH",
"282 67 OFFCURVE",
"325 109 OFFCURVE",
"325 190 CURVE SMOOTH",
"325 273 OFFCURVE",
"279 315 OFFCURVE",
"226 315 CURVE SMOOTH"
);
},
{
closed = 1;
nodes = (
"107 -9 OFFCURVE",
"29 74 OFFCURVE",
"29 190 CURVE SMOOTH",
"29 314 OFFCURVE",
"107 390 OFFCURVE",
"227 390 CURVE SMOOTH",
"296 390 OFFCURVE",
"343 364 OFFCURVE",
"378 319 CURVE",
"379 71 LINE",
"347 20 OFFCURVE",
"298 -9 OFFCURVE",
"226 -9 CURVE SMOOTH"
);
}
);
};
layerId = "CFA4B904-E3F1-48B6-A7F6-47DC1FF2A3E1";
name = Bold;
paths = (
{
closed = 1;
nodes = (
"658 190 LINE SMOOTH",
"658 311 OFFCURVE",
"610 390 OFFCURVE",
"490 390 CURVE SMOOTH",
"442.8 390 OFFCURVE",
"397.846 369.793 OFFCURVE",
"364.809 334.425 CURVE",
"331.355 369.888 OFFCURVE",
"287.687 390 OFFCURVE",
"227 390 CURVE SMOOTH",
"107 390 OFFCURVE",
"29 314 OFFCURVE",
"29 190 CURVE SMOOTH",
"29 74 OFFCURVE",
"107 -9 OFFCURVE",
"226 -9 CURVE SMOOTH",
"285.835 -9 OFFCURVE",
"329.785 11.0285 OFFCURVE",
"361.295 47.0675 CURVE",
"394.701 11.4809 OFFCURVE",
"444.707 -9.9999 OFFCURVE",
"515 -9.9999 CURVE SMOOTH",
"567 -9.9999 OFFCURVE",
"608 0 OFFCURVE",
"641 13 CURVE",
"626 78 LINE",
"597 71 OFFCURVE",
"567 66 OFFCURVE",
"520 66 CURVE SMOOTH",
"451 66 OFFCURVE",
"415 84 OFFCURVE",
"408 153 CURVE",
"658 153 LINE"
);
},
{
closed = 1;
nodes = (
"173 67 OFFCURVE",
"128 109 OFFCURVE",
"128 190 CURVE SMOOTH",
"128 272 OFFCURVE",
"174 315 OFFCURVE",
"226 315 CURVE SMOOTH",
"279 315 OFFCURVE",
"325 273 OFFCURVE",
"325 190 CURVE SMOOTH",
"325 109 OFFCURVE",
"282 67 OFFCURVE",
"226 67 CURVE SMOOTH"
);
},
{
closed = 1;
nodes = (
"410 220 LINE",
"410 284 OFFCURVE",
"456 315 OFFCURVE",
"493 315 CURVE SMOOTH",
"538 315 OFFCURVE",
"566 284 OFFCURVE",
"566 220 CURVE"
);
}
);
width = 687;
}
);
unicode = 0153;
},
{
glyphname = p;
lastChange = "2014-10-27 05:23:36 +0000";
layers = (
{
layerId = "CFA4B904-E3F1-48B6-A7F6-47DC1FF2A3E1";
name = Bold;
paths = (
{
closed = 1;
nodes = (
"156 374 OFFCURVE",
"196 390 OFFCURVE",
"243 390 CURVE SMOOTH",
"316 390 OFFCURVE",
"426 346 OFFCURVE",
"426 191 CURVE SMOOTH",
"426 69 OFFCURVE",
"355 -9 OFFCURVE",
"230 -9 CURVE SMOOTH",
"197 -9 OFFCURVE",
"174 -1 OFFCURVE",
"147 11 CURVE",
"147 -206 LINE",
"51 -206 LINE",
"51 384 LINE",
"118 384 LINE",
"129 359 LINE"
);
},
{
closed = 1;
nodes = (
"194 314 OFFCURVE",
"173 311 OFFCURVE",
"148 300 CURVE",
"148 85 LINE",
"165 74 OFFCURVE",
"185 66 OFFCURVE",
"214 66 CURVE SMOOTH",
"276 66 OFFCURVE",
"328 96 OFFCURVE",
"328 186 CURVE SMOOTH",
"328 284 OFFCURVE",
"279 314 OFFCURVE",
"217 314 CURVE SMOOTH"
);
}
);
width = 456;
}
);
unicode = 0070;
},
{
glyphname = thorn;
lastChange = "2014-10-28 05:43:29 +0000";
layers = (
{
layerId = "CFA4B904-E3F1-48B6-A7F6-47DC1FF2A3E1";
name = Bold;
paths = (
{
closed = 1;
nodes = (
"131 370 LINE",
"158 385 OFFCURVE",
"180 390 OFFCURVE",
"225 390 CURVE SMOOTH",
"339 390 OFFCURVE",
"409 316 OFFCURVE",
"409 191 CURVE SMOOTH",
"409 69 OFFCURVE",
"338 -9 OFFCURVE",
"215 -9 CURVE SMOOTH",
"180 -9 OFFCURVE",
"158 -1 OFFCURVE",
"131 11 CURVE",
"131 -206 LINE",
"36 -206 LINE",
"36 550 LINE",
"131 550 LINE"
);
},
{
closed = 1;
nodes = (
"132 85 LINE",
"149 74 OFFCURVE",
"170 66 OFFCURVE",
"198 66 CURVE SMOOTH",
"259 66 OFFCURVE",
"312 106 OFFCURVE",
"312 197 CURVE SMOOTH",
"312 286 OFFCURVE",
"262 317 OFFCURVE",
"202 317 CURVE SMOOTH",
"171 317 OFFCURVE",
"149 310 OFFCURVE",
"132 298 CURVE"
);
}
);
width = 440;
}
);
unicode = 00FE;
},
{
glyphname = q;
lastChange = "2014-10-27 05:23:59 +0000";
layers = (
{
layerId = "CFA4B904-E3F1-48B6-A7F6-47DC1FF2A3E1";
name = Bold;
paths = (
{
closed = 1;
nodes = (
"406 384 LINE",
"406 -206 LINE",
"310 -206 LINE",
"310 11 LINE",
"283 -1 OFFCURVE",
"261 -9 OFFCURVE",
"226 -9 CURVE SMOOTH",
"104 -9 OFFCURVE",
"30 69 OFFCURVE",
"30 191 CURVE SMOOTH",
"30 346 OFFCURVE",
"141 390 OFFCURVE",
"213 390 CURVE SMOOTH",
"261 390 OFFCURVE",
"302 374 OFFCURVE",
"329 359 CURVE",
"338 384 LINE"
);
},
{
closed = 1;
nodes = (
"178 314 OFFCURVE",
"129 284 OFFCURVE",
"129 186 CURVE SMOOTH",
"129 96 OFFCURVE",
"179 66 OFFCURVE",
"243 66 CURVE SMOOTH",
"270 66 OFFCURVE",
"292 74 OFFCURVE",
"309 85 CURVE",
"309 300 LINE",
"284 311 OFFCURVE",
"263 314 OFFCURVE",
"240 314 CURVE SMOOTH"
);
}
);
width = 457;
}
);
unicode = 0071;
},
{
glyphname = r;
lastChange = "2014-10-27 17:20:53 +0000";
layers = (
{
anchors = (
{
name = bottom;
position = "{94, 0}";
},
{
name = top;
position = "{174, 383}";
}
);
background = {
paths = (
{
closed = 1;
nodes = (
"191 389 OFFCURVE",
"156 376 OFFCURVE",
"123 351 CURVE",
"109 384 LINE",
"62 384 LINE",
"62 0 LINE",
"127 0 LINE",
"127 304 LINE",
"155 323 OFFCURVE",
"184 332 OFFCURVE",
"210 332 CURVE SMOOTH",
"231 332 OFFCURVE",
"250 328 OFFCURVE",
"267 320 CURVE",
"290 378 LINE",
"273 386 OFFCURVE",
"258 389 OFFCURVE",
"228 389 CURVE SMOOTH"
);
},
{
closed = 1;
nodes = (
"101 427 LINE",
"251 550 LINE",
"215 593 LINE",
"68 465 LINE"
);
}
);
};
layerId = "CFA4B904-E3F1-48B6-A7F6-47DC1FF2A3E1";
name = Bold;
paths = (
{
closed = 1;
nodes = (
"160 377 OFFCURVE",
"199 390 OFFCURVE",
"240 390 CURVE SMOOTH",
"265 390 OFFCURVE",
"288 385 OFFCURVE",
"310 375 CURVE",
"291 288 LINE",
"287 287 LINE",
"244 311 OFFCURVE",
"186 313 OFFCURVE",
"142 296 CURVE",
"142 0 LINE",
"47 0 LINE",
"47 384 LINE",
"115 384 LINE",
"127 356 LINE"
);
}
);
width = 319;
}
);
unicode = 0072;
},
{
glyphname = s;
lastChange = "2014-10-28 05:23:09 +0000";
layers = (
{
anchors = (
{
name = bottom;
position = "{180, 0}";
},
{
name = top;
position = "{207, 384}";
}
);
layerId = "CFA4B904-E3F1-48B6-A7F6-47DC1FF2A3E1";
name = Bold;
paths = (
{
closed = 1;
nodes = (
"102 85 OFFCURVE",
"153 73 OFFCURVE",
"185 73 CURVE SMOOTH",
"244 73 OFFCURVE",
"261 86 OFFCURVE",
"261 110 CURVE SMOOTH",
"261 162 OFFCURVE",
"44 142 OFFCURVE",
"44 285 CURVE SMOOTH",
"44 320 OFFCURVE",
"59 390 OFFCURVE",
"207 390 CURVE",
"254 390 OFFCURVE",
"309 376 OFFCURVE",
"334 368 CURVE",
"310 294 LINE",
"286 301 OFFCURVE",
"247 312 OFFCURVE",
"208 312 CURVE SMOOTH",
"145 312 OFFCURVE",
"134 299 OFFCURVE",
"134 281 CURVE SMOOTH",
"134 220 OFFCURVE",
"353 245 OFFCURVE",
"353 109 CURVE SMOOTH",
"353 64 OFFCURVE",
"324 -9 OFFCURVE",
"180 -9 CURVE SMOOTH",
"128 -9 OFFCURVE",
"74 6 OFFCURVE",
"31 26 CURVE",
"58 101 LINE"
);
}
);
width = 381;
}
);
unicode = 0073;
},
{
glyphname = scedilla;
layers = (
{
layerId = "CFA4B904-E3F1-48B6-A7F6-47DC1FF2A3E1";
name = Bold;
paths = (
{
closed = 1;
nodes = (
"210 -141 OFFCURVE",
"215 -134 OFFCURVE",
"215 -129 CURVE SMOOTH",
"215 -121 OFFCURVE",
"210 -113 OFFCURVE",
"177 -102 CURVE",
"121 -86 LINE",
"142 -7 LINE",
"103 0 OFFCURVE",
"63 10 OFFCURVE",
"31 26 CURVE",
"58 101 LINE",
"102 85 OFFCURVE",
"153 73 OFFCURVE",
"185 73 CURVE SMOOTH",
"244 73 OFFCURVE",
"261 86 OFFCURVE",
"261 115 CURVE SMOOTH",
"261 162 OFFCURVE",
"44 142 OFFCURVE",
"44 279 CURVE SMOOTH",
"44 320 OFFCURVE",
"59 390 OFFCURVE",
"207 390 CURVE",
"251 393 OFFCURVE",
"309 375 OFFCURVE",
"334 368 CURVE",
"310 294 LINE",
"286 301 OFFCURVE",
"247 312 OFFCURVE",
"208 312 CURVE SMOOTH",
"145 312 OFFCURVE",
"134 287 OFFCURVE",
"134 276 CURVE SMOOTH",
"134 223 OFFCURVE",
"353 245 OFFCURVE",
"353 115 CURVE SMOOTH",
"353 67 OFFCURVE",
"329 7 OFFCURVE",
"218 -7 CURVE",
"208 -42 LINE",
"248 -52 OFFCURVE",
"287 -77 OFFCURVE",
"287 -124 CURVE SMOOTH",
"287 -167 OFFCURVE",
"259 -208 OFFCURVE",
"189 -208 CURVE SMOOTH",
"161 -208 OFFCURVE",
"130 -203 OFFCURVE",
"98 -191 CURVE",
"81 -187 LINE",
"101 -121 LINE",
"156 -136 LINE",
"173 -137 OFFCURVE",
"183 -141 OFFCURVE",
"191 -141 CURVE SMOOTH"
);
}
);
width = 381;
}
);
unicode = 015F;
},
{
glyphname = germandbls;
lastChange = "2014-10-28 06:49:43 +0000";
layers = (
{
background = {
paths = (
{
closed = 1;
nodes = (
"79 0 LINE",
"142 0 LINE",
"142 396 LINE SMOOTH",
"142 429 OFFCURVE",
"149 455 OFFCURVE",
"165 471 CURVE",
"181 489 OFFCURVE",
"200 497 OFFCURVE",
"225 497 CURVE SMOOTH",
"261 497 OFFCURVE",
"302 465 OFFCURVE",
"302 424 CURVE",
"302 396 OFFCURVE",
"281 383 OFFCURVE",
"264 368 CURVE",
"235 345 OFFCURVE",
"200 314 OFFCURVE",
"200 272 CURVE SMOOTH",
"200 216 OFFCURVE",
"246 194 OFFCURVE",
"289 175 CURVE SMOOTH",
"332 156 OFFCURVE",
"375 148 OFFCURVE",
"375 100 CURVE SMOOTH",
"375 56 OFFCURVE",
"347 42 OFFCURVE",
"301 42 CURVE SMOOTH",
"279 42 OFFCURVE",
"248 46 OFFCURVE",
"207 53 CURVE",
"196 9 LINE",
"237 -4 OFFCURVE",
"276 -10 OFFCURVE",
"315 -10 CURVE SMOOTH",
"354 -10 OFFCURVE",
"384 -1 OFFCURVE",
"406 18 CURVE SMOOTH",
"424 33 OFFCURVE",
"443 64 OFFCURVE",
"443 101 CURVE SMOOTH",
"443 156 OFFCURVE",
"408 195 OFFCURVE",
"338 219 CURVE SMOOTH",
"311 229 LINE SMOOTH",
"291 237 OFFCURVE",
"277 246 OFFCURVE",
"271 256 CURVE",
"267 261 OFFCURVE",
"264 269 OFFCURVE",
"264 279 CURVE SMOOTH",
"264 302 OFFCURVE",
"300 324 OFFCURVE",
"328 349 CURVE SMOOTH",
"351 371 OFFCURVE",
"366 396 OFFCURVE",
"366 427 CURVE SMOOTH",
"366 460 OFFCURVE",
"350 493 OFFCURVE",
"325 517 CURVE SMOOTH",
"302 539 OFFCURVE",
"272 554 OFFCURVE",
"233 554 CURVE SMOOTH",
"137 554 OFFCURVE",
"78 490 OFFCURVE",
"78 397 CURVE SMOOTH"
);
}
);
};
layerId = "CFA4B904-E3F1-48B6-A7F6-47DC1FF2A3E1";
name = Bold;
paths = (
{
closed = 1;
nodes = (
"357 554 OFFCURVE",
"410 476 OFFCURVE",
"410 410 CURVE SMOOTH",
"410 323 OFFCURVE",
"297 302 OFFCURVE",
"297 271 CURVE SMOOTH",
"297 222 OFFCURVE",
"488 246 OFFCURVE",
"488 108 CURVE SMOOTH",
"488 60 OFFCURVE",
"458 -10 OFFCURVE",
"335 -10 CURVE SMOOTH",
"300 -10 OFFCURVE",
"250 -6 OFFCURVE",
"195 9 CURVE",
"177 13 LINE",
"200 93 LINE",
"217 89 LINE",
"254 79 OFFCURVE",
"291 73 OFFCURVE",
"320 73 CURVE SMOOTH",
"373 73 OFFCURVE",
"389 87 OFFCURVE",
"389 112 CURVE SMOOTH",
"389 183 OFFCURVE",
"189 147 OFFCURVE",
"189 271 CURVE SMOOTH",
"189 356 OFFCURVE",
"306 366 OFFCURVE",
"306 413 CURVE SMOOTH",
"306 443 OFFCURVE",
"286 465 OFFCURVE",
"232 465 CURVE SMOOTH",
"215 465 OFFCURVE",
"157 457 OFFCURVE",
"157 380 CURVE SMOOTH",
"157 0 LINE",
"62 0 LINE",
"62 380 LINE SMOOTH",
"62 506 OFFCURVE",
"150 554 OFFCURVE",
"240 554 CURVE SMOOTH"
);
}
);
width = 528;
}
);
unicode = 00DF;
},
{
glyphname = t;
lastChange = "2014-10-28 06:56:04 +0000";
layers = (
{
anchors = (
{
name = bottom;
position = "{196, 1}";
}
);
layerId = "CFA4B904-E3F1-48B6-A7F6-47DC1FF2A3E1";
name = Bold;
paths = (
{
closed = 1;
nodes = (
"292 5 OFFCURVE",
"248 -9 OFFCURVE",
"211 -9 CURVE SMOOTH",
"89 -9 OFFCURVE",
"73 55 OFFCURVE",
"73 123 CURVE SMOOTH",
"73 309 LINE",
"9 309 LINE",
"9 384 LINE",
"73 384 LINE",
"73 494 LINE",
"169 494 LINE",
"169 384 LINE",
"302 384 LINE",
"302 309 LINE",
"169 309 LINE",
"169 125 LINE SMOOTH",
"169 98 OFFCURVE",
"181 69 OFFCURVE",
"232 69 CURVE SMOOTH",
"260 69 OFFCURVE",
"291 77 OFFCURVE",
"306 81 CURVE",
"319 13 LINE"
);
}
);
width = 332;
}
);
unicode = 0074;
},
{
glyphname = tcaron;
layers = (
{
background = {
paths = (
{
closed = 1;
nodes = (
"278 420 LINE",
"207 420 LINE",
"233 596 LINE",
"325 596 LINE"
);
}
);
};
components = (
{
name = t;
transform = "{1, 0, 0, 1, 0, 0}";
}
);
layerId = "CFA4B904-E3F1-48B6-A7F6-47DC1FF2A3E1";
name = Bold;
paths = (
{
closed = 1;
nodes = (
"280 430 LINE",
"209 430 LINE",
"233 596 LINE",
"325 596 LINE"
);
}
);
width = 332;
}
);
unicode = 0165;
},
{
glyphname = tcedilla;
layers = (
{
background = {
paths = (
{
closed = 1;
nodes = (
"215 -8 OFFCURVE",
"250 -2 OFFCURVE",
"279 9 CURVE",
"268 53 LINE",
"250 49 OFFCURVE",
"225 47 OFFCURVE",
"207 47 CURVE SMOOTH",
"157 47 OFFCURVE",
"146 73 OFFCURVE",
"146 123 CURVE SMOOTH",
"146 330 LINE",
"272 330 LINE",
"272 384 LINE",
"146 384 LINE",
"146 483 LINE",
"81 478 LINE",
"81 384 LINE",
"16 384 LINE",
"16 330 LINE",
"81 330 LINE",
"81 119 LINE SMOOTH",
"81 38 OFFCURVE",
"108 -8 OFFCURVE",
"188 -8 CURVE SMOOTH"
);
},
{
closed = 1;
nodes = (
"171 -160 OFFCURVE",
"147 -155 OFFCURVE",
"114 -145 CURVE SMOOTH",
"103 -142 LINE",
"88 -188 LINE",
"101 -190 LINE",
"131 -199 OFFCURVE",
"156 -207 OFFCURVE",
"183 -207 CURVE SMOOTH",
"242 -207 OFFCURVE",
"272 -178 OFFCURVE",
"272 -136 CURVE SMOOTH",
"272 -82 OFFCURVE",
"234 -64 OFFCURVE",
"200 -53 CURVE",
"184 -49 LINE",
"200 11 LINE",
"151 11 LINE",
"127 -81 LINE",
"182 -96 LINE",
"200 -100 OFFCURVE",
"222 -109 OFFCURVE",
"222 -131 CURVE SMOOTH",
"222 -153 OFFCURVE",
"204 -162 OFFCURVE",
"182 -161 CURVE"
);
}
);
};
components = (
{
name = t;
transform = "{1, 0, 0, 1, 0, 0}";
},
{
name = cedilla;
transform = "{1, 0, 0, 1, 70, 0}";
}
);
layerId = "CFA4B904-E3F1-48B6-A7F6-47DC1FF2A3E1";
name = Bold;
width = 332;
}
);
unicode = 0163;
},
{
glyphname = u;
lastChange = "2014-10-27 17:22:39 +0000";
layers = (
{
anchors = (
{
name = top;
position = "{219, 384}";
}
);
layerId = "CFA4B904-E3F1-48B6-A7F6-47DC1FF2A3E1";
name = Bold;
paths = (
{
closed = 1;
nodes = (
"280 12 OFFCURVE",
"239 -9 OFFCURVE",
"187 -9 CURVE SMOOTH",
"54 -9 OFFCURVE",
"47 99 OFFCURVE",
"47 165 CURVE SMOOTH",
"47 384 LINE",
"142 384 LINE",
"142 152 LINE SMOOTH",
"142 122 OFFCURVE",
"151 73 OFFCURVE",
"212 73 CURVE SMOOTH",
"229 73 OFFCURVE",
"261 76 OFFCURVE",
"296 96 CURVE",
"296 384 LINE",
"390 384 LINE",
"390 -1 LINE",
"324 -1 LINE",
"312 27 LINE"
);
}
);
width = 439;
}
);
unicode = 0075;
},
{
glyphname = uogonek;
layers = (
{
layerId = "CFA4B904-E3F1-48B6-A7F6-47DC1FF2A3E1";
name = Bold;
paths = (
{
closed = 1;
nodes = (
"280 12 OFFCURVE",
"239 -9 OFFCURVE",
"187 -9 CURVE SMOOTH",
"54 -9 OFFCURVE",
"47 99 OFFCURVE",
"47 165 CURVE SMOOTH",
"47 383 LINE",
"142 383 LINE",
"142 148 LINE SMOOTH",
"142 118 OFFCURVE",
"151 69 OFFCURVE",
"212 69 CURVE SMOOTH",
"229 69 OFFCURVE",
"261 74 OFFCURVE",
"296 91 CURVE",
"296 383 LINE",
"390 383 LINE",
"390 0 LINE",
"339 -26 OFFCURVE",
"279 -62 OFFCURVE",
"279 -101 CURVE SMOOTH",
"279 -126 OFFCURVE",
"297 -140 OFFCURVE",
"324 -140 CURVE SMOOTH",
"351 -140 OFFCURVE",
"380 -124 OFFCURVE",
"395 -113 CURVE",
"423 -158 LINE",
"391 -179 OFFCURVE",
"353 -200 OFFCURVE",
"297 -200 CURVE SMOOTH",
"239 -200 OFFCURVE",
"189 -164 OFFCURVE",
"189 -116 CURVE SMOOTH",
"189 -50 OFFCURVE",
"277 -17 OFFCURVE",
"321 7 CURVE",
"312 27 LINE"
);
}
);
width = 432;
}
);
unicode = 0173;
},
{
glyphname = v;
lastChange = "2014-10-27 05:26:26 +0000";
layers = (
{
layerId = "CFA4B904-E3F1-48B6-A7F6-47DC1FF2A3E1";
name = Bold;
paths = (
{
closed = 1;
nodes = (
"159 0 LINE",
"11 384 LINE",
"118 384 LINE",
"209 101 LINE",
"299 384 LINE",
"399 384 LINE",
"256 0 LINE"
);
}
);
width = 415;
}
);
unicode = 0076;
},
{
glyphname = w;
lastChange = "2014-10-27 05:26:44 +0000";
layers = (
{
layerId = "CFA4B904-E3F1-48B6-A7F6-47DC1FF2A3E1";
name = Bold;
paths = (
{
closed = 1;
nodes = (
"465 105 LINE",
"544 384 LINE",
"646 384 LINE",
"508 0 LINE",
"417 0 LINE",
"332 272 LINE",
"245 0 LINE",
"153 0 LINE",
"16 384 LINE",
"118 384 LINE",
"197 105 LINE",
"279 384 LINE",
"384 384 LINE"
);
}
);
width = 662;
}
);
unicode = 0077;
},
{
glyphname = x;
lastChange = "2014-10-27 05:30:29 +0000";
layers = (
{
layerId = "CFA4B904-E3F1-48B6-A7F6-47DC1FF2A3E1";
name = Bold;
paths = (
{
closed = 1;
nodes = (
"206 251 LINE",
"286 384 LINE",
"398 384 LINE",
"264 189 LINE",
"401 0 LINE",
"284 0 LINE",
"206 123 LINE",
"127 0 LINE",
"18 0 LINE",
"143 189 LINE",
"11 384 LINE",
"121 384 LINE"
);
}
);
width = 413;
}
);
unicode = 0078;
},
{
glyphname = y;
lastChange = "2014-10-27 17:26:47 +0000";
layers = (
{
anchors = (
{
name = top;
position = "{218, 384}";
}
);
layerId = "CFA4B904-E3F1-48B6-A7F6-47DC1FF2A3E1";
name = Bold;
paths = (
{
closed = 1;
nodes = (
"224 89 LINE",
"327 384 LINE",
"427 384 LINE",
"192 -206 LINE",
"85 -206 LINE",
"172 -3 LINE",
"0 384 LINE",
"109 384 LINE"
);
}
);
width = 435;
}
);
unicode = 0079;
},
{
glyphname = z;
lastChange = "2014-10-27 17:27:33 +0000";
layers = (
{
anchors = (
{
name = top;
position = "{185, 384}";
}
);
layerId = "CFA4B904-E3F1-48B6-A7F6-47DC1FF2A3E1";
name = Bold;
paths = (
{
closed = 1;
nodes = (
"338 333 LINE",
"158 81 LINE",
"345 81 LINE",
"345 0 LINE",
"31 0 LINE",
"31 49 LINE",
"210 300 LINE",
"31 300 LINE",
"31 384 LINE",
"338 384 LINE"
);
}
);
width = 372;
}
);
unicode = 007A;
},
{
glyphname = "ka-deva";
lastChange = "2014-10-16 08:24:02 +0000";
layers = (
{
anchors = (
{
name = bottom;
position = "{317, 5}";
},
{
name = top;
position = "{317, 447}";
}
);
background = {
paths = (
{
closed = 1;
nodes = (
"569 291 OFFCURVE",
"509 345 OFFCURVE",
"422 345 CURVE SMOOTH",
"350 345 OFFCURVE",
"317 308 OFFCURVE",
"290 290 CURVE",
"304 205 LINE",
"320 217 OFFCURVE",
"372 262 OFFCURVE",
"418 262 CURVE SMOOTH",
"463 262 OFFCURVE",
"482 236 OFFCURVE",
"482 200 CURVE SMOOTH",
"482 154 OFFCURVE",
"457 134 OFFCURVE",
"428 107 CURVE",
"489 46 LINE",
"536 85 OFFCURVE",
"569 125 OFFCURVE",
"569 199 CURVE SMOOTH"
);
},
{
closed = 1;
nodes = (
"-7 466 LINE",
"-7 396 LINE",
"615 396 LINE",
"615 466 LINE"
);
},
{
closed = 1;
nodes = (
"276 0 LINE",
"361 0 LINE",
"361 466 LINE",
"276 466 LINE"
);
},
{
closed = 1;
nodes = (
"121 245 OFFCURVE",
"160 265 OFFCURVE",
"206 265 CURVE SMOOTH",
"258 265 OFFCURVE",
"284 240 OFFCURVE",
"300 223 CURVE",
"316 304 LINE",
"289 320 OFFCURVE",
"256 345 OFFCURVE",
"192 345 CURVE SMOOTH",
"109 345 OFFCURVE",
"37 295 OFFCURVE",
"37 197 CURVE SMOOTH",
"37 103 OFFCURVE",
"109 50 OFFCURVE",
"192 50 CURVE SMOOTH",
"254 50 OFFCURVE",
"289 72 OFFCURVE",
"316 90 CURVE",
"300 170 LINE",
"284 158 OFFCURVE",
"258 129 OFFCURVE",
"206 129 CURVE SMOOTH",
"160 129 OFFCURVE",
"121 149 OFFCURVE",
"121 197 CURVE SMOOTH"
);
}
);
};
layerId = "CFA4B904-E3F1-48B6-A7F6-47DC1FF2A3E1";
name = Bold;
paths = (
{
closed = 1;
nodes = (
"561 291 OFFCURVE",
"501 340 OFFCURVE",
"419 340 CURVE SMOOTH",
"347 340 OFFCURVE",
"314 303 OFFCURVE",
"287 285 CURVE",
"301 205 LINE",
"317 217 OFFCURVE",
"369 262 OFFCURVE",
"415 262 CURVE SMOOTH",
"460 262 OFFCURVE",
"479 236 OFFCURVE",
"479 200 CURVE SMOOTH",
"479 154 OFFCURVE",
"446 127 OFFCURVE",
"425 107 CURVE",
"482 50 LINE",
"522 83 OFFCURVE",
"561 129 OFFCURVE",
"561 199 CURVE SMOOTH"
);
},
{
closed = 1;
nodes = (
"-24 466 LINE",
"-24 396 LINE",
"629 396 LINE",
"629 466 LINE"
);
},
{
closed = 1;
nodes = (
"276 0 LINE",
"358 0 LINE",
"358 466 LINE",
"276 466 LINE"
);
},
{
closed = 1;
nodes = (
"121 245 OFFCURVE",
"160 265 OFFCURVE",
"206 265 CURVE SMOOTH",
"258 265 OFFCURVE",
"284 240 OFFCURVE",
"300 223 CURVE",
"316 299 LINE",
"289 315 OFFCURVE",
"256 340 OFFCURVE",
"192 340 CURVE SMOOTH",
"109 340 OFFCURVE",
"42 290 OFFCURVE",
"42 197 CURVE SMOOTH",
"42 108 OFFCURVE",
"109 55 OFFCURVE",
"192 55 CURVE SMOOTH",
"254 55 OFFCURVE",
"289 77 OFFCURVE",
"316 95 CURVE",
"300 170 LINE",
"284 158 OFFCURVE",
"258 129 OFFCURVE",
"206 129 CURVE SMOOTH",
"160 129 OFFCURVE",
"121 149 OFFCURVE",
"121 197 CURVE SMOOTH"
);
}
);
width = 602;
}
);
unicode = 0915;
},
{
glyphname = "kha-deva";
lastChange = "2014-09-17 07:53:24 +0000";
layers = (
{
anchors = (
{
name = bottom;
position = "{514, 5}";
},
{
name = top;
position = "{514, 447}";
}
);
background = {
paths = (
{
closed = 1;
nodes = (
"469 0 LINE",
"522 0 LINE",
"522 456 LINE",
"469 456 LINE"
);
},
{
closed = 1;
nodes = (
"-27 456 LINE",
"-27 408 LINE",
"620 408 LINE",
"620 456 LINE"
);
},
{
closed = 1;
nodes = (
"88 427 OFFCURVE",
"159 403 OFFCURVE",
"159 306 CURVE SMOOTH",
"159 209 OFFCURVE",
"45 206 OFFCURVE",
"45 206 CURVE SMOOTH",
"45 206 OFFCURVE",
"67 157 OFFCURVE",
"67 157 CURVE",
"106 157 OFFCURVE",
"213 191 OFFCURVE",
"213 304 CURVE SMOOTH",
"213 412 OFFCURVE",
"140 443 OFFCURVE",
"140 443 CURVE",
"88 427 LINE"
);
},
{
closed = 1;
nodes = (
"15 212 OFFCURVE",
"210 -17 OFFCURVE",
"210 -17 CURVE SMOOTH",
"210 -17 OFFCURVE",
"254 18 OFFCURVE",
"254 18 CURVE",
"55 246 LINE",
"15 212 LINE"
);
},
{
closed = 1;
nodes = (
"241 121 OFFCURVE",
"301 70 OFFCURVE",
"384 70 CURVE SMOOTH",
"446 70 OFFCURVE",
"479 97 OFFCURVE",
"506 115 CURVE",
"492 166 LINE",
"476 154 OFFCURVE",
"450 121 OFFCURVE",
"393 121 CURVE SMOOTH",
"334 121 OFFCURVE",
"297 148 OFFCURVE",
"297 202 CURVE SMOOTH",
"297 255 OFFCURVE",
"334 283 OFFCURVE",
"388 283 CURVE SMOOTH",
"440 283 OFFCURVE",
"476 250 OFFCURVE",
"492 238 CURVE",
"506 289 LINE",
"479 307 OFFCURVE",
"436 334 OFFCURVE",
"384 334 CURVE SMOOTH",
"301 334 OFFCURVE",
"241 283 OFFCURVE",
"241 202 CURVE SMOOTH"
);
}
);
};
guideLines = (
{
angle = 90;
position = "{496, 204}";
}
);
layerId = "CFA4B904-E3F1-48B6-A7F6-47DC1FF2A3E1";
name = Bold;
paths = (
{
closed = 1;
nodes = (
"71 423 OFFCURVE",
"157 403 OFFCURVE",
"157 306 CURVE SMOOTH",
"157 217 OFFCURVE",
"48 216 OFFCURVE",
"48 216 CURVE SMOOTH",
"48 216 OFFCURVE",
"78 148 OFFCURVE",
"78 148 CURVE",
"136 148 OFFCURVE",
"235 195 OFFCURVE",
"235 304 CURVE SMOOTH",
"235 410 OFFCURVE",
"147 448 OFFCURVE",
"147 448 CURVE",
"71 423 LINE"
);
},
{
closed = 1;
nodes = (
"202 -25 LINE",
"202 -25 OFFCURVE",
"264 26 OFFCURVE",
"264 26 CURVE",
"64 254 LINE",
"6 205 LINE"
);
},
{
closed = 1;
nodes = (
"-24 466 LINE",
"-24 396 LINE",
"291 396 LINE",
"291 466 LINE"
);
},
{
closed = 1;
nodes = (
"197 466 LINE",
"197 396 LINE",
"646 396 LINE",
"646 466 LINE"
);
},
{
closed = 1;
nodes = (
"335 245 OFFCURVE",
"364 265 OFFCURVE",
"410 265 CURVE SMOOTH",
"472 265 OFFCURVE",
"498 220 OFFCURVE",
"514 203 CURVE",
"530 284 LINE",
"512 307 OFFCURVE",
"466 345 OFFCURVE",
"402 345 CURVE SMOOTH",
"319 345 OFFCURVE",
"251 295 OFFCURVE",
"251 197 CURVE SMOOTH",
"251 103 OFFCURVE",
"323 53 OFFCURVE",
"406 53 CURVE SMOOTH",
"478 53 OFFCURVE",
"503 82 OFFCURVE",
"530 100 CURVE",
"514 180 LINE",
"498 163 OFFCURVE",
"472 129 OFFCURVE",
"420 129 CURVE SMOOTH",
"374 129 OFFCURVE",
"335 149 OFFCURVE",
"335 197 CURVE SMOOTH"
);
},
{
closed = 1;
nodes = (
"472 0 LINE",
"557 0 LINE",
"557 466 LINE",
"472 466 LINE"
);
}
);
width = 622;
}
);
unicode = 0916;
},
{
glyphname = "ga-deva";
lastChange = "2014-10-15 09:56:26 +0000";
layers = (
{
anchors = (
{
name = bottom;
position = "{350, 5}";
},
{
name = top;
position = "{350, 447}";
}
);
background = {
paths = (
{
closed = 1;
nodes = (
"324 0 LINE",
"380 0 LINE",
"380 456 LINE",
"324 456 LINE"
);
},
{
closed = 1;
nodes = (
"103 151 LINE",
"158 151 LINE",
"158 456 LINE",
"103 456 LINE"
);
},
{
closed = 1;
nodes = (
"-17 456 LINE",
"-17 408 LINE",
"478 408 LINE",
"478 456 LINE"
);
},
{
closed = 1;
nodes = (
"45 215 LINE",
"45 181 LINE",
"120 90 LINE",
"120 90 OFFCURVE",
"158 90 OFFCURVE",
"158 90 CURVE",
"158 215 LINE"
);
}
);
};
layerId = "CFA4B904-E3F1-48B6-A7F6-47DC1FF2A3E1";
name = Bold;
paths = (
{
closed = 1;
nodes = (
"-24 466 LINE",
"-24 396 LINE",
"482 396 LINE",
"482 466 LINE"
);
},
{
closed = 1;
nodes = (
"308 0 LINE",
"393 0 LINE",
"393 466 LINE",
"308 466 LINE"
);
},
{
closed = 1;
nodes = (
"28 240 LINE",
"28 198 LINE",
"118 75 LINE",
"118 75 OFFCURVE",
"175 75 OFFCURVE",
"175 75 CURVE",
"175 240 LINE"
);
},
{
closed = 1;
nodes = (
"90 180 LINE",
"175 180 LINE",
"175 466 LINE",
"90 466 LINE"
);
}
);
width = 458;
}
);
unicode = 0917;
},
{
glyphname = "gha-deva";
lastChange = "2014-09-17 07:55:23 +0000";
layers = (
{
anchors = (
{
name = bottom;
position = "{379, 5}";
},
{
name = top;
position = "{379, 447}";
}
);
background = {
paths = (
{
closed = 1;
nodes = (
"220 277 LINE",
"220 277 OFFCURVE",
"121 281 OFFCURVE",
"121 354 CURVE SMOOTH",
"121 426 OFFCURVE",
"200 456 OFFCURVE",
"200 456 CURVE SMOOTH",
"94 456 LINE SMOOTH",
"94 456 OFFCURVE",
"34 422 OFFCURVE",
"34 354 CURVE SMOOTH",
"34 279 OFFCURVE",
"97 249 OFFCURVE",
"113 237 CURVE"
);
},
{
closed = 1;
nodes = (
"114 305 OFFCURVE",
"58 255 OFFCURVE",
"58 191 CURVE SMOOTH",
"58 109 OFFCURVE",
"128 58 OFFCURVE",
"224 58 CURVE SMOOTH",
"309 58 OFFCURVE",
"364 104 OFFCURVE",
"364 105 CURVE",
"364 201 LINE",
"364 201 OFFCURVE",
"311 139 OFFCURVE",
"221 139 CURVE SMOOTH",
"183 139 OFFCURVE",
"146 154 OFFCURVE",
"146 184 CURVE SMOOTH",
"146 210 OFFCURVE",
"181 229 OFFCURVE",
"248 237 CURVE",
"228 313 LINE"
);
},
{
closed = 1;
nodes = (
"-27 466 LINE",
"-27 396 LINE",
"504 396 LINE",
"504 466 LINE"
);
},
{
closed = 1;
nodes = (
"337 0 LINE",
"422 0 LINE",
"422 466 LINE",
"337 466 LINE"
);
}
);
};
layerId = "CFA4B904-E3F1-48B6-A7F6-47DC1FF2A3E1";
name = Bold;
paths = (
{
closed = 1;
nodes = (
"220 277 LINE",
"220 277 OFFCURVE",
"121 284 OFFCURVE",
"121 354 CURVE SMOOTH",
"121 426 OFFCURVE",
"200 456 OFFCURVE",
"200 456 CURVE SMOOTH",
"97 456 LINE SMOOTH",
"97 456 OFFCURVE",
"37 422 OFFCURVE",
"37 354 CURVE SMOOTH",
"37 279 OFFCURVE",
"100 249 OFFCURVE",
"116 237 CURVE"
);
},
{
closed = 1;
nodes = (
"114 294 OFFCURVE",
"61 255 OFFCURVE",
"61 191 CURVE SMOOTH",
"61 109 OFFCURVE",
"128 61 OFFCURVE",
"224 61 CURVE SMOOTH",
"309 61 OFFCURVE",
"364 107 OFFCURVE",
"364 108 CURVE",
"364 201 LINE",
"364 201 OFFCURVE",
"311 139 OFFCURVE",
"221 139 CURVE SMOOTH",
"183 139 OFFCURVE",
"146 154 OFFCURVE",
"146 184 CURVE SMOOTH",
"146 210 OFFCURVE",
"181 229 OFFCURVE",
"248 237 CURVE",
"228 310 LINE"
);
},
{
closed = 1;
nodes = (
"-24 466 LINE",
"-24 396 LINE",
"511 396 LINE",
"511 466 LINE"
);
},
{
closed = 1;
nodes = (
"337 0 LINE",
"422 0 LINE",
"422 466 LINE",
"337 466 LINE"
);
}
);
width = 487;
}
);
unicode = 0918;
},
{
glyphname = "nga-deva";
lastChange = "2014-09-19 12:34:04 +0000";
layers = (
{
anchors = (
{
name = bottom;
position = "{237, -35}";
},
{
name = top;
position = "{323, 447}";
}
);
background = {
paths = (
{
closed = 1;
nodes = (
"435 207 LINE",
"435 266 LINE",
"374 266 LINE",
"374 207 LINE"
);
},
{
closed = 1;
nodes = (
"-23 456 LINE",
"-23 408 LINE",
"501 408 LINE",
"501 456 LINE"
);
},
{
closed = 1;
nodes = (
"281 171 OFFCURVE",
"310 153 OFFCURVE",
"310 116 CURVE SMOOTH",
"310 73 OFFCURVE",
"269 52 OFFCURVE",
"225 52 CURVE SMOOTH",
"166 52 OFFCURVE",
"117 81 OFFCURVE",
"69 128 CURVE",
"35 91 LINE",
"87 38 OFFCURVE",
"150 0 OFFCURVE",
"226 0 CURVE SMOOTH",
"307 0 OFFCURVE",
"364 46 OFFCURVE",
"364 120 CURVE SMOOTH",
"364 181 OFFCURVE",
"311 220 OFFCURVE",
"239 216 CURVE SMOOTH",
"187 213 OFFCURVE",
"134 212 OFFCURVE",
"134 256 CURVE SMOOTH",
"134 284 OFFCURVE",
"157 294 OFFCURVE",
"207 294 CURVE SMOOTH",
"269 294 OFFCURVE",
"286 289 OFFCURVE",
"321 285 CURVE",
"331 292 LINE",
"331 456 LINE",
"275 456 LINE",
"275 343 LINE",
"254 345 OFFCURVE",
"242 346 OFFCURVE",
"209 346 CURVE SMOOTH",
"132 346 OFFCURVE",
"81 322 OFFCURVE",
"81 259 CURVE SMOOTH",
"81 162 OFFCURVE",
"183 161 OFFCURVE",
"221 165 CURVE SMOOTH"
);
}
);
};
components = (
{
name = "nukta-deva";
transform = "{1, 0, 0, 1, 468, 307}";
}
);
layerId = "CFA4B904-E3F1-48B6-A7F6-47DC1FF2A3E1";
name = Bold;
paths = (
{
closed = 1;
nodes = (
"300 154 OFFCURVE",
"312 133 OFFCURVE",
"312 116 CURVE SMOOTH",
"312 93 OFFCURVE",
"288 75 OFFCURVE",
"244 75 CURVE SMOOTH",
"180 75 OFFCURVE",
"138 94 OFFCURVE",
"90 141 CURVE",
"38 85 LINE",
"88 36 OFFCURVE",
"149 -3 OFFCURVE",
"237 -3 CURVE SMOOTH",
"333 -3 OFFCURVE",
"393 46 OFFCURVE",
"393 120 CURVE SMOOTH",
"393 189 OFFCURVE",
"340 230 OFFCURVE",
"247 225 CURVE SMOOTH",
"196 222 OFFCURVE",
"160 226 OFFCURVE",
"160 254 CURVE SMOOTH",
"160 272 OFFCURVE",
"176 279 OFFCURVE",
"226 279 CURVE SMOOTH",
"288 279 OFFCURVE",
"315 272 OFFCURVE",
"350 268 CURVE",
"360 275 LINE",
"360 456 LINE",
"284 456 LINE",
"284 348 LINE",
"263 350 OFFCURVE",
"251 351 OFFCURVE",
"218 351 CURVE SMOOTH",
"141 351 OFFCURVE",
"80 322 OFFCURVE",
"80 250 CURVE SMOOTH",
"80 172 OFFCURVE",
"152 144 OFFCURVE",
"240 150 CURVE SMOOTH"
);
},
{
closed = 1;
nodes = (
"-24 466 LINE",
"-24 396 LINE",
"527 396 LINE",
"527 466 LINE"
);
}
);
width = 503;
}
);
unicode = 0919;
},
{
glyphname = "ca-deva";
lastChange = "2014-09-17 07:57:06 +0000";
layers = (
{
anchors = (
{
name = bottom;
position = "{384, 5}";
},
{
name = top;
position = "{384, 447}";
}
);
background = {
paths = (
{
closed = 1;
nodes = (
"125 271 OFFCURVE",
"93 255 OFFCURVE",
"93 197 CURVE SMOOTH",
"93 109 OFFCURVE",
"163 58 OFFCURVE",
"248 58 CURVE SMOOTH",
"344 58 OFFCURVE",
"379 101 OFFCURVE",
"379 102 CURVE",
"379 201 LINE",
"379 201 OFFCURVE",
"346 139 OFFCURVE",
"256 139 CURVE SMOOTH",
"218 139 OFFCURVE",
"181 154 OFFCURVE",
"181 197 CURVE SMOOTH",
"181 230 OFFCURVE",
"195 261 OFFCURVE",
"262 269 CURVE",
"153 279 LINE"
);
},
{
closed = 1;
nodes = (
"-12 466 LINE",
"-12 396 LINE",
"509 396 LINE",
"509 466 LINE"
);
},
{
closed = 1;
nodes = (
"342 0 LINE",
"427 0 LINE",
"427 466 LINE",
"342 466 LINE"
);
},
{
closed = 1;
nodes = (
"22 306 LINE",
"22 234 LINE",
"279 234 LINE",
"279 306 LINE"
);
}
);
};
layerId = "CFA4B904-E3F1-48B6-A7F6-47DC1FF2A3E1";
name = Bold;
paths = (
{
closed = 1;
nodes = (
"128 271 OFFCURVE",
"96 255 OFFCURVE",
"96 197 CURVE SMOOTH",
"96 112 OFFCURVE",
"163 61 OFFCURVE",
"248 61 CURVE SMOOTH",
"344 61 OFFCURVE",
"379 104 OFFCURVE",
"379 105 CURVE",
"379 201 LINE",
"379 201 OFFCURVE",
"346 139 OFFCURVE",
"256 139 CURVE SMOOTH",
"218 139 OFFCURVE",
"181 154 OFFCURVE",
"181 197 CURVE SMOOTH",
"181 230 OFFCURVE",
"195 261 OFFCURVE",
"262 269 CURVE",
"156 279 LINE"
);
},
{
closed = 1;
nodes = (
"-24 466 LINE",
"-24 396 LINE",
"516 396 LINE",
"516 466 LINE"
);
},
{
closed = 1;
nodes = (
"342 0 LINE",
"427 0 LINE",
"427 466 LINE",
"342 466 LINE"
);
},
{
closed = 1;
nodes = (
"22 306 LINE",
"22 234 LINE",
"279 234 LINE",
"279 306 LINE"
);
}
);
width = 492;
}
);
unicode = 091A;
},
{
glyphname = "cha-deva";
lastChange = "2014-09-17 07:58:18 +0000";
layers = (
{
anchors = (
{
name = bottom;
position = "{271, -45}";
},
{
name = top;
position = "{423, 447}";
}
);
background = {
paths = (
{
closed = 1;
nodes = (
"575 408 LINE",
"575 456 LINE",
"-7 456 LINE",
"-7 408 LINE"
);
},
{
closed = 1;
nodes = (
"467 121 OFFCURVE",
"392 58 OFFCURVE",
"271 58 CURVE SMOOTH",
"203 58 OFFCURVE",
"135 85 OFFCURVE",
"135 154 CURVE SMOOTH",
"135 187 OFFCURVE",
"160 230 OFFCURVE",
"258 226 CURVE",
"263 226 LINE",
"263 275 LINE",
"254 275 LINE SMOOTH",
"150 274 OFFCURVE",
"143 323 OFFCURVE",
"143 344 CURVE SMOOTH",
"143 378 OFFCURVE",
"160 400 OFFCURVE",
"206 408 CURVE",
"254 456 LINE",
"219 456 OFFCURVE",
"165 444 OFFCURVE",
"134 424 CURVE SMOOTH",
"101 403 OFFCURVE",
"89 373 OFFCURVE",
"89 344 CURVE SMOOTH",
"89 305 OFFCURVE",
"107 275 OFFCURVE",
"152 252 CURVE",
"111 232 OFFCURVE",
"81 204 OFFCURVE",
"81 153 CURVE SMOOTH",
"81 64 OFFCURVE",
"158 6 OFFCURVE",
"271 6 CURVE SMOOTH",
"375 6 OFFCURVE",
"518 57 OFFCURVE",
"518 220 CURVE SMOOTH",
"518 298 OFFCURVE",
"474 349 OFFCURVE",
"417 349 CURVE SMOOTH",
"360 349 OFFCURVE",
"323 298 OFFCURVE",
"323 228 CURVE SMOOTH",
"323 137 OFFCURVE",
"375 84 OFFCURVE",
"377 69 CURVE",
"377 69 OFFCURVE",
"437 94 OFFCURVE",
"427 94 CURVE SMOOTH",
"427 94 OFFCURVE",
"374 140 OFFCURVE",
"374 228 CURVE SMOOTH",
"374 266 OFFCURVE",
"391 294 OFFCURVE",
"417 294 CURVE SMOOTH",
"439 294 OFFCURVE",
"467 273 OFFCURVE",
"467 216 CURVE SMOOTH"
);
},
{
closed = 1;
nodes = (
"398 333 LINE",
"448 333 LINE",
"448 456 LINE",
"398 456 LINE"
);
}
);
};
layerId = "CFA4B904-E3F1-48B6-A7F6-47DC1FF2A3E1";
name = Bold;
paths = (
{
closed = 1;
nodes = (
"592 396 LINE",
"592 466 LINE",
"-24 466 LINE",
"-24 396 LINE"
);
},
{
closed = 1;
nodes = (
"460 121 OFFCURVE",
"392 64 OFFCURVE",
"271 64 CURVE SMOOTH",
"196 64 OFFCURVE",
"145 99 OFFCURVE",
"145 147 CURVE SMOOTH",
"145 191 OFFCURVE",
"180 223 OFFCURVE",
"258 219 CURVE",
"263 219 LINE",
"263 282 LINE",
"254 282 LINE SMOOTH",
"160 282 OFFCURVE",
"153 323 OFFCURVE",
"153 344 CURVE SMOOTH",
"153 378 OFFCURVE",
"170 400 OFFCURVE",
"216 408 CURVE",
"254 456 LINE",
"219 456 OFFCURVE",
"145 444 OFFCURVE",
"114 424 CURVE SMOOTH",
"81 403 OFFCURVE",
"69 373 OFFCURVE",
"69 344 CURVE SMOOTH",
"69 295 OFFCURVE",
"109 260 OFFCURVE",
"134 252 CURVE",
"110 242 OFFCURVE",
"61 204 OFFCURVE",
"61 138 CURVE SMOOTH",
"61 44 OFFCURVE",
"158 -14 OFFCURVE",
"271 -14 CURVE SMOOTH",
"405 -14 OFFCURVE",
"538 57 OFFCURVE",
"538 199 CURVE SMOOTH",
"538 298 OFFCURVE",
"480 349 OFFCURVE",
"417 349 CURVE SMOOTH",
"360 349 OFFCURVE",
"303 298 OFFCURVE",
"303 211 CURVE SMOOTH",
"303 137 OFFCURVE",
"342 78 OFFCURVE",
"351 63 CURVE",
"351 63 OFFCURVE",
"427 94 OFFCURVE",
"427 94 CURVE SMOOTH",
"427 94 OFFCURVE",
"381 140 OFFCURVE",
"381 208 CURVE SMOOTH",
"381 246 OFFCURVE",
"393 274 OFFCURVE",
"419 274 CURVE SMOOTH",
"441 274 OFFCURVE",
"460 253 OFFCURVE",
"460 207 CURVE SMOOTH"
);
},
{
closed = 1;
nodes = (
"383 333 LINE",
"463 333 LINE",
"463 466 LINE",
"383 466 LINE"
);
}
);
width = 568;
}
);
unicode = 091B;
},
{
glyphname = "ja-deva";
lastChange = "2014-09-19 14:12:37 +0000";
layers = (
{
anchors = (
{
name = bottom;
position = "{459, 5}";
},
{
name = top;
position = "{459, 447}";
}
);
background = {
paths = (
{
closed = 1;
nodes = (
"-17 466 LINE",
"-17 396 LINE",
"575 396 LINE",
"575 466 LINE"
);
},
{
closed = 1;
nodes = (
"407 0 LINE",
"492 0 LINE",
"492 466 LINE",
"407 466 LINE"
);
},
{
closed = 1;
nodes = (
"238 294 LINE",
"234 223 LINE",
"442 223 LINE",
"442 294 LINE"
);
},
{
closed = 1;
nodes = (
"352 186 OFFCURVE",
"344 231 OFFCURVE",
"296 265 CURVE SMOOTH",
"285 273 OFFCURVE",
"261 286 OFFCURVE",
"248 294 CURVE",
"205 294 LINE",
"205 226 LINE",
"256 226 OFFCURVE",
"269 197 OFFCURVE",
"269 164 CURVE SMOOTH",
"269 130 OFFCURVE",
"247 107 OFFCURVE",
"211 107 CURVE SMOOTH",
"159 107 OFFCURVE",
"125 153 OFFCURVE",
"90 254 CURVE",
"17 225 LINE",
"54 104 OFFCURVE",
"112 25 OFFCURVE",
"211 25 CURVE SMOOTH",
"288 25 OFFCURVE",
"352 67 OFFCURVE",
"352 156 CURVE SMOOTH"
);
}
);
};
layerId = "CFA4B904-E3F1-48B6-A7F6-47DC1FF2A3E1";
name = Bold;
paths = (
{
closed = 1;
nodes = (
"-24 466 LINE",
"-24 396 LINE",
"591 396 LINE",
"591 466 LINE"
);
},
{
closed = 1;
nodes = (
"417 0 LINE",
"502 0 LINE",
"502 466 LINE",
"417 466 LINE"
);
},
{
closed = 1;
nodes = (
"238 292 LINE",
"234 223 LINE",
"452 223 LINE",
"452 292 LINE"
);
},
{
closed = 1;
nodes = (
"349 186 OFFCURVE",
"340 231 OFFCURVE",
"292 265 CURVE SMOOTH",
"281 273 OFFCURVE",
"261 284 OFFCURVE",
"248 292 CURVE",
"205 292 LINE",
"205 226 LINE",
"256 226 OFFCURVE",
"269 197 OFFCURVE",
"269 164 CURVE SMOOTH",
"269 130 OFFCURVE",
"245 107 OFFCURVE",
"209 107 CURVE SMOOTH",
"157 107 OFFCURVE",
"125 153 OFFCURVE",
"90 254 CURVE",
"19 225 LINE",
"56 104 OFFCURVE",
"116 27 OFFCURVE",
"211 27 CURVE SMOOTH",
"288 27 OFFCURVE",
"349 74 OFFCURVE",
"349 156 CURVE SMOOTH"
);
}
);
width = 567;
}
);
unicode = 091C;
},
{
glyphname = "jha-deva";
lastChange = "2014-09-17 08:01:09 +0000";
layers = (
{
anchors = (
{
name = bottom;
position = "{477, 5}";
},
{
name = top;
position = "{477, 447}";
}
);
background = {
paths = (
{
closed = 1;
nodes = (
"-14 456 LINE",
"-14 408 LINE",
"595 408 LINE",
"595 456 LINE"
);
},
{
closed = 1;
nodes = (
"484 237 OFFCURVE",
"461 184 OFFCURVE",
"378 184 CURVE SMOOTH",
"353 184 OFFCURVE",
"298 203 OFFCURVE",
"263 211 CURVE",
"251 168 LINE",
"287 159 OFFCURVE",
"339 136 OFFCURVE",
"389 136 CURVE SMOOTH",
"453 136 OFFCURVE",
"484 186 OFFCURVE",
"484 186 CURVE",
"484 237 LINE"
);
},
{
closed = 1;
nodes = (
"441 0 LINE",
"497 0 LINE",
"497 456 LINE",
"441 456 LINE"
);
},
{
closed = 1;
nodes = (
"111 53 LINE",
"111 53 OFFCURVE",
"206 -97 OFFCURVE",
"206 -97 CURVE SMOOTH",
"206 -97 OFFCURVE",
"254 -75 OFFCURVE",
"254 -75 CURVE",
"162 59 LINE"
);
},
{
closed = 1;
nodes = (
"59 189 OFFCURVE",
"108 163 OFFCURVE",
"157 163 CURVE SMOOTH",
"184 163 OFFCURVE",
"210 169 OFFCURVE",
"230 169 CURVE SMOOTH",
"272 169 OFFCURVE",
"289 146 OFFCURVE",
"289 116 CURVE SMOOTH",
"289 77 OFFCURVE",
"245 59 OFFCURVE",
"210 59 CURVE SMOOTH",
"190 59 OFFCURVE",
"175 59 OFFCURVE",
"158 65 CURVE",
"105 134 LINE",
"78 136 OFFCURVE",
"53 121 OFFCURVE",
"53 96 CURVE SMOOTH",
"53 36 OFFCURVE",
"147 9 OFFCURVE",
"204 9 CURVE SMOOTH",
"284 9 OFFCURVE",
"343 50 OFFCURVE",
"343 115 CURVE SMOOTH",
"343 185 OFFCURVE",
"299 222 OFFCURVE",
"232 222 CURVE SMOOTH",
"211 222 OFFCURVE",
"188 216 OFFCURVE",
"167 216 CURVE SMOOTH",
"134 216 OFFCURVE",
"112 223 OFFCURVE",
"112 256 CURVE SMOOTH",
"112 284 OFFCURVE",
"136 294 OFFCURVE",
"186 294 CURVE SMOOTH",
"248 294 OFFCURVE",
"265 289 OFFCURVE",
"300 285 CURVE",
"310 292 LINE",
"310 456 LINE",
"254 456 LINE",
"254 341 LINE",
"228 344 OFFCURVE",
"220 345 OFFCURVE",
"187 345 CURVE SMOOTH",
"114 345 OFFCURVE",
"59 323 OFFCURVE",
"59 260 CURVE SMOOTH"
);
}
);
};
layerId = "CFA4B904-E3F1-48B6-A7F6-47DC1FF2A3E1";
name = Bold;
paths = (
{
closed = 1;
nodes = (
"262 152 OFFCURVE",
"274 133 OFFCURVE",
"274 116 CURVE SMOOTH",
"274 93 OFFCURVE",
"252 70 OFFCURVE",
"188 70 CURVE SMOOTH",
"168 70 OFFCURVE",
"160 72 OFFCURVE",
"148 76 CURVE",
"99 138 LINE",
"73 138 OFFCURVE",
"37 128 OFFCURVE",
"37 86 CURVE",
"37 39 OFFCURVE",
"111 -3 OFFCURVE",
"199 -3 CURVE SMOOTH",
"295 -3 OFFCURVE",
"355 46 OFFCURVE",
"355 120 CURVE SMOOTH",
"355 189 OFFCURVE",
"301 227 OFFCURVE",
"214 223 CURVE SMOOTH",
"163 221 OFFCURVE",
"127 226 OFFCURVE",
"127 254 CURVE SMOOTH",
"127 272 OFFCURVE",
"143 279 OFFCURVE",
"193 279 CURVE SMOOTH",
"258 279 OFFCURVE",
"280 272 OFFCURVE",
"315 268 CURVE",
"325 275 LINE",
"325 456 LINE",
"249 456 LINE",
"249 348 LINE",
"228 350 OFFCURVE",
"218 351 OFFCURVE",
"185 351 CURVE SMOOTH",
"108 351 OFFCURVE",
"47 322 OFFCURVE",
"47 250 CURVE SMOOTH",
"47 172 OFFCURVE",
"114 142 OFFCURVE",
"202 148 CURVE SMOOTH"
);
},
{
closed = 1;
nodes = (
"-24 466 LINE",
"-24 396 LINE",
"411 396 LINE",
"411 466 LINE"
);
},
{
closed = 1;
nodes = (
"91 47 LINE",
"198 -119 LINE",
"268 -74 LINE",
"150 59 LINE"
);
},
{
closed = 1;
nodes = (
"366 466 LINE",
"366 396 LINE",
"609 396 LINE",
"609 466 LINE"
);
},
{
closed = 1;
nodes = (
"435 0 LINE",
"520 0 LINE",
"520 466 LINE",
"435 466 LINE"
);
},
{
closed = 1;
nodes = (
"484 236 OFFCURVE",
"451 193 OFFCURVE",
"378 193 CURVE SMOOTH",
"353 193 OFFCURVE",
"298 212 OFFCURVE",
"263 220 CURVE",
"251 155 LINE",
"287 146 OFFCURVE",
"339 123 OFFCURVE",
"389 123 CURVE SMOOTH",
"443 123 OFFCURVE",
"484 159 OFFCURVE",
"484 159 CURVE",
"484 236 LINE"
);
}
);
width = 585;
}
);
unicode = 091D;
},
{
glyphname = "nya-deva";
lastChange = "2014-09-17 08:02:40 +0000";
layers = (
{
anchors = (
{
name = bottom;
position = "{469, 5}";
},
{
name = top;
position = "{469, 447}";
}
);
background = {
paths = (
{
closed = 1;
nodes = (
"264 237 OFFCURVE",
"280 216 OFFCURVE",
"280 190 CURVE SMOOTH",
"280 154 OFFCURVE",
"261 136 OFFCURVE",
"227 136 CURVE SMOOTH",
"165 136 OFFCURVE",
"135 178 OFFCURVE",
"95 279 CURVE",
"18 248 LINE",
"70 106 OFFCURVE",
"130 48 OFFCURVE",
"229 48 CURVE SMOOTH",
"308 48 OFFCURVE",
"356 98 OFFCURVE",
"366 170 CURVE SMOOTH",
"367 174 OFFCURVE",
"369 177 OFFCURVE",
"369 181 CURVE SMOOTH",
"369 271 OFFCURVE",
"312 321 OFFCURVE",
"236 321 CURVE SMOOTH",
"199 321 OFFCURVE",
"172 310 OFFCURVE",
"149 295 CURVE",
"149 295 OFFCURVE",
"185 220 OFFCURVE",
"185 220 CURVE SMOOTH",
"185 220 OFFCURVE",
"208 237 OFFCURVE",
"232 237 CURVE SMOOTH"
);
},
{
closed = 1;
nodes = (
"462 228 OFFCURVE",
"427 210 OFFCURVE",
"397 210 CURVE SMOOTH",
"372 210 OFFCURVE",
"355 217 OFFCURVE",
"329 230 CURVE",
"325 152 LINE",
"351 144 OFFCURVE",
"370 138 OFFCURVE",
"397 138 CURVE SMOOTH",
"420 138 OFFCURVE",
"462 151 OFFCURVE",
"478 164 CURVE",
"478 241 LINE"
);
},
{
closed = 1;
nodes = (
"-7 466 LINE",
"-7 396 LINE",
"599 396 LINE",
"599 466 LINE"
);
},
{
closed = 1;
nodes = (
"427 0 LINE",
"512 0 LINE",
"512 466 LINE",
"427 466 LINE"
);
}
);
};
layerId = "CFA4B904-E3F1-48B6-A7F6-47DC1FF2A3E1";
name = Bold;
paths = (
{
closed = 1;
nodes = (
"263 241 OFFCURVE",
"284 222 OFFCURVE",
"284 190 CURVE SMOOTH",
"284 154 OFFCURVE",
"265 131 OFFCURVE",
"227 131 CURVE SMOOTH",
"165 131 OFFCURVE",
"135 178 OFFCURVE",
"95 279 CURVE",
"22 249 LINE",
"74 107 OFFCURVE",
"134 48 OFFCURVE",
"226 48 CURVE SMOOTH",
"301 48 OFFCURVE",
"356 98 OFFCURVE",
"366 170 CURVE SMOOTH",
"367 174 OFFCURVE",
"369 177 OFFCURVE",
"369 181 CURVE SMOOTH",
"369 271 OFFCURVE",
"312 321 OFFCURVE",
"236 321 CURVE SMOOTH",
"199 321 OFFCURVE",
"172 310 OFFCURVE",
"149 295 CURVE",
"149 295 OFFCURVE",
"184 224 OFFCURVE",
"184 224 CURVE SMOOTH",
"184 224 OFFCURVE",
"207 241 OFFCURVE",
"231 241 CURVE SMOOTH"
);
},
{
closed = 1;
nodes = (
"462 228 OFFCURVE",
"427 210 OFFCURVE",
"397 210 CURVE SMOOTH",
"372 210 OFFCURVE",
"355 217 OFFCURVE",
"329 230 CURVE",
"325 152 LINE",
"351 144 OFFCURVE",
"370 138 OFFCURVE",
"397 138 CURVE SMOOTH",
"420 138 OFFCURVE",
"462 151 OFFCURVE",
"478 164 CURVE",
"478 241 LINE"
);
},
{
closed = 1;
nodes = (
"-24 466 LINE",
"-24 396 LINE",
"601 396 LINE",
"601 466 LINE"
);
},
{
closed = 1;
nodes = (
"427 0 LINE",
"512 0 LINE",
"512 466 LINE",
"427 466 LINE"
);
}
);
width = 577;
}
);
unicode = 091E;
},
{
glyphname = "tta-deva";
lastChange = "2014-09-17 08:11:53 +0000";
layers = (
{
anchors = (
{
name = bottom;
position = "{218, -35}";
},
{
name = top;
position = "{293, 447}";
}
);
background = {
paths = (
{
closed = 1;
nodes = (
"309 102 OFFCURVE",
"269 81 OFFCURVE",
"219 81 CURVE SMOOTH",
"159 81 OFFCURVE",
"123 114 OFFCURVE",
"123 163 CURVE SMOOTH",
"123 210 OFFCURVE",
"155 242 OFFCURVE",
"223 242 CURVE SMOOTH",
"260 242 OFFCURVE",
"285 237 OFFCURVE",
"321 233 CURVE",
"330 240 LINE",
"330 456 LINE",
"254 456 LINE",
"254 322 LINE",
"254 322 OFFCURVE",
"229 322 OFFCURVE",
"215 322 CURVE SMOOTH",
"100 322 OFFCURVE",
"39 259 OFFCURVE",
"39 167 CURVE SMOOTH",
"39 65 OFFCURVE",
"113 -2 OFFCURVE",
"218 -2 CURVE SMOOTH",
"291 -2 OFFCURVE",
"346 27 OFFCURVE",
"370 44 CURVE",
"335 118 LINE"
);
},
{
closed = 1;
nodes = (
"-8 466 LINE",
"-8 396 LINE",
"424 396 LINE",
"424 466 LINE"
);
}
);
};
layerId = "CFA4B904-E3F1-48B6-A7F6-47DC1FF2A3E1";
name = Bold;
paths = (
{
closed = 1;
nodes = (
"309 99 OFFCURVE",
"269 78 OFFCURVE",
"219 78 CURVE SMOOTH",
"159 78 OFFCURVE",
"121 111 OFFCURVE",
"121 163 CURVE SMOOTH",
"121 213 OFFCURVE",
"155 244 OFFCURVE",
"223 244 CURVE SMOOTH",
"260 244 OFFCURVE",
"285 239 OFFCURVE",
"321 235 CURVE",
"330 242 LINE",
"330 456 LINE",
"254 456 LINE",
"254 322 LINE",
"254 322 OFFCURVE",
"229 322 OFFCURVE",
"215 322 CURVE SMOOTH",
"100 322 OFFCURVE",
"39 259 OFFCURVE",
"39 167 CURVE SMOOTH",
"39 65 OFFCURVE",
"113 -2 OFFCURVE",
"218 -2 CURVE SMOOTH",
"291 -2 OFFCURVE",
"346 27 OFFCURVE",
"370 44 CURVE",
"335 115 LINE"
);
},
{
closed = 1;
nodes = (
"-24 466 LINE",
"-24 396 LINE",
"421 396 LINE",
"421 466 LINE"
);
}
);
width = 397;
}
);
unicode = 091F;
},
{
glyphname = "ttha-deva";
lastChange = "2014-09-17 08:12:21 +0000";
layers = (
{
anchors = (
{
name = bottom;
position = "{223, -35}";
},
{
name = top;
position = "{293, 447}";
}
);
background = {
paths = (
{
closed = 1;
nodes = (
"-27 466 LINE",
"-27 396 LINE",
"449 396 LINE",
"449 466 LINE"
);
},
{
closed = 1;
nodes = (
"398 238 OFFCURVE",
"330 297 OFFCURVE",
"280 326 CURVE",
"217 262 LINE",
"253 256 OFFCURVE",
"313 215 OFFCURVE",
"313 154 CURVE SMOOTH",
"313 107 OFFCURVE",
"275 77 OFFCURVE",
"200 77 CURVE SMOOTH",
"135 77 OFFCURVE",
"102 119 OFFCURVE",
"102 169 CURVE SMOOTH",
"102 215 OFFCURVE",
"140 246 OFFCURVE",
"205 246 CURVE SMOOTH",
"303 246 LINE",
"312 244 LINE",
"312 466 LINE",
"233 466 LINE",
"233 320 LINE",
"197 320 LINE SMOOTH",
"88 320 OFFCURVE",
"20 257 OFFCURVE",
"20 167 CURVE SMOOTH",
"20 70 OFFCURVE",
"95 0 OFFCURVE",
"202 0 CURVE SMOOTH",
"337 0 OFFCURVE",
"398 80 OFFCURVE",
"398 156 CURVE SMOOTH"
);
}
);
};
layerId = "CFA4B904-E3F1-48B6-A7F6-47DC1FF2A3E1";
name = Bold;
paths = (
{
closed = 1;
nodes = (
"-24 466 LINE",
"-24 396 LINE",
"482 396 LINE",
"482 466 LINE"
);
},
{
closed = 1;
nodes = (
"419 238 OFFCURVE",
"351 297 OFFCURVE",
"301 326 CURVE",
"240 262 LINE",
"276 256 OFFCURVE",
"336 218 OFFCURVE",
"336 154 CURVE SMOOTH",
"336 105 OFFCURVE",
"296 75 OFFCURVE",
"221 75 CURVE SMOOTH",
"156 75 OFFCURVE",
"121 117 OFFCURVE",
"121 169 CURVE SMOOTH",
"121 217 OFFCURVE",
"161 248 OFFCURVE",
"226 248 CURVE SMOOTH",
"322 248 LINE",
"331 246 LINE",
"331 466 LINE",
"254 466 LINE",
"254 320 LINE",
"218 320 LINE SMOOTH",
"109 320 OFFCURVE",
"41 257 OFFCURVE",
"41 167 CURVE SMOOTH",
"41 70 OFFCURVE",
"116 0 OFFCURVE",
"223 0 CURVE SMOOTH",
"358 0 OFFCURVE",
"419 80 OFFCURVE",
"419 156 CURVE SMOOTH"
);
}
);
width = 458;
}
);
unicode = 0920;
},
{
glyphname = "dda-deva";
lastChange = "2014-09-17 08:12:33 +0000";
layers = (
{
anchors = (
{
name = bottom;
position = "{233, -35}";
},
{
name = top;
position = "{318, 447}";
}
);
background = {
paths = (
{
closed = 1;
nodes = (
"-12 456 LINE",
"-12 408 LINE",
"445 408 LINE",
"445 456 LINE"
);
},
{
closed = 1;
nodes = (
"296 171 OFFCURVE",
"325 153 OFFCURVE",
"325 116 CURVE SMOOTH",
"325 73 OFFCURVE",
"284 52 OFFCURVE",
"240 52 CURVE SMOOTH",
"181 52 OFFCURVE",
"132 81 OFFCURVE",
"84 128 CURVE",
"50 91 LINE",
"102 38 OFFCURVE",
"165 0 OFFCURVE",
"241 0 CURVE SMOOTH",
"322 0 OFFCURVE",
"379 46 OFFCURVE",
"379 120 CURVE SMOOTH",
"379 181 OFFCURVE",
"326 220 OFFCURVE",
"254 216 CURVE SMOOTH",
"202 213 OFFCURVE",
"149 212 OFFCURVE",
"149 256 CURVE SMOOTH",
"149 284 OFFCURVE",
"172 294 OFFCURVE",
"222 294 CURVE SMOOTH",
"284 294 OFFCURVE",
"301 289 OFFCURVE",
"336 285 CURVE",
"346 292 LINE",
"346 456 LINE",
"290 456 LINE",
"290 343 LINE",
"269 345 OFFCURVE",
"257 346 OFFCURVE",
"224 346 CURVE SMOOTH",
"147 346 OFFCURVE",
"96 322 OFFCURVE",
"96 259 CURVE SMOOTH",
"96 162 OFFCURVE",
"198 161 OFFCURVE",
"236 165 CURVE SMOOTH"
);
}
);
};
layerId = "CFA4B904-E3F1-48B6-A7F6-47DC1FF2A3E1";
name = Bold;
paths = (
{
closed = 1;
nodes = (
"296 154 OFFCURVE",
"308 133 OFFCURVE",
"308 116 CURVE SMOOTH",
"308 93 OFFCURVE",
"284 75 OFFCURVE",
"240 75 CURVE SMOOTH",
"176 75 OFFCURVE",
"134 94 OFFCURVE",
"86 141 CURVE",
"34 85 LINE",
"84 36 OFFCURVE",
"145 -3 OFFCURVE",
"233 -3 CURVE SMOOTH",
"329 -3 OFFCURVE",
"389 46 OFFCURVE",
"389 120 CURVE SMOOTH",
"389 189 OFFCURVE",
"336 230 OFFCURVE",
"243 225 CURVE SMOOTH",
"192 222 OFFCURVE",
"156 226 OFFCURVE",
"156 254 CURVE SMOOTH",
"156 272 OFFCURVE",
"172 279 OFFCURVE",
"222 279 CURVE SMOOTH",
"284 279 OFFCURVE",
"311 272 OFFCURVE",
"346 268 CURVE",
"356 275 LINE",
"356 456 LINE",
"280 456 LINE",
"280 348 LINE",
"259 350 OFFCURVE",
"247 351 OFFCURVE",
"214 351 CURVE SMOOTH",
"137 351 OFFCURVE",
"76 322 OFFCURVE",
"76 250 CURVE SMOOTH",
"76 172 OFFCURVE",
"148 144 OFFCURVE",
"236 150 CURVE SMOOTH"
);
},
{
closed = 1;
nodes = (
"-24 466 LINE",
"-24 396 LINE",
"457 396 LINE",
"457 466 LINE"
);
}
);
width = 433;
}
);
unicode = 0921;
},
{
glyphname = "ddha-deva";
lastChange = "2014-09-17 09:47:11 +0000";
layers = (
{
anchors = (
{
name = bottom;
position = "{220, -35}";
},
{
name = top;
position = "{294, 447}";
}
);
background = {
paths = (
{
closed = 1;
nodes = (
"-34 466 LINE",
"-34 396 LINE",
"420 396 LINE",
"420 466 LINE"
);
},
{
closed = 1;
nodes = (
"359 165 OFFCURVE",
"321 205 OFFCURVE",
"259 205 CURVE SMOOTH",
"210 205 OFFCURVE",
"163 172 OFFCURVE",
"163 111 CURVE SMOOTH",
"163 57 OFFCURVE",
"186 31 OFFCURVE",
"196 18 CURVE",
"196 18 OFFCURVE",
"289 31 OFFCURVE",
"289 31 CURVE SMOOTH",
"289 31 OFFCURVE",
"234 50 OFFCURVE",
"234 96 CURVE SMOOTH",
"234 116 OFFCURVE",
"239 133 OFFCURVE",
"259 133 CURVE SMOOTH",
"273 133 OFFCURVE",
"284 124 OFFCURVE",
"284 106 CURVE SMOOTH",
"284 87 OFFCURVE",
"264 70 OFFCURVE",
"209 69 CURVE SMOOTH",
"139 67 OFFCURVE",
"108 116 OFFCURVE",
"108 161 CURVE SMOOTH",
"108 211 OFFCURVE",
"142 247 OFFCURVE",
"198 247 CURVE SMOOTH",
"235 247 OFFCURVE",
"270 242 OFFCURVE",
"306 238 CURVE",
"315 245 LINE",
"315 466 LINE",
"239 466 LINE",
"239 326 LINE",
"213 328 OFFCURVE",
"207 328 OFFCURVE",
"193 328 CURVE SMOOTH",
"84 328 OFFCURVE",
"24 254 OFFCURVE",
"24 167 CURVE SMOOTH",
"24 67 OFFCURVE",
"100 -5 OFFCURVE",
"205 -5 CURVE SMOOTH",
"276 -5 OFFCURVE",
"359 25 OFFCURVE",
"359 114 CURVE SMOOTH"
);
}
);
};
layerId = "CFA4B904-E3F1-48B6-A7F6-47DC1FF2A3E1";
name = Bold;
paths = (
{
closed = 1;
nodes = (
"-24 466 LINE",
"-24 396 LINE",
"442 396 LINE",
"442 466 LINE"
);
},
{
closed = 1;
nodes = (
"374 165 OFFCURVE",
"336 205 OFFCURVE",
"274 205 CURVE SMOOTH",
"225 205 OFFCURVE",
"178 172 OFFCURVE",
"178 111 CURVE SMOOTH",
"178 57 OFFCURVE",
"201 31 OFFCURVE",
"211 18 CURVE",
"211 18 OFFCURVE",
"304 31 OFFCURVE",
"304 31 CURVE SMOOTH",
"304 31 OFFCURVE",
"249 50 OFFCURVE",
"249 96 CURVE SMOOTH",
"249 116 OFFCURVE",
"254 133 OFFCURVE",
"274 133 CURVE SMOOTH",
"288 133 OFFCURVE",
"299 124 OFFCURVE",
"299 106 CURVE SMOOTH",
"299 87 OFFCURVE",
"279 67 OFFCURVE",
"224 66 CURVE SMOOTH",
"154 64 OFFCURVE",
"120 112 OFFCURVE",
"120 161 CURVE SMOOTH",
"120 215 OFFCURVE",
"157 250 OFFCURVE",
"213 250 CURVE SMOOTH",
"250 250 OFFCURVE",
"285 245 OFFCURVE",
"321 241 CURVE",
"330 248 LINE",
"330 466 LINE",
"254 466 LINE",
"254 326 LINE",
"228 328 OFFCURVE",
"222 328 OFFCURVE",
"208 328 CURVE SMOOTH",
"99 328 OFFCURVE",
"39 254 OFFCURVE",
"39 167 CURVE SMOOTH",
"39 67 OFFCURVE",
"115 -5 OFFCURVE",
"220 -5 CURVE SMOOTH",
"291 -5 OFFCURVE",
"374 25 OFFCURVE",
"374 114 CURVE SMOOTH"
);
}
);
width = 418;
}
);
unicode = 0922;
},
{
glyphname = "nna-deva";
lastChange = "2014-09-17 09:48:08 +0000";
layers = (
{
anchors = (
{
name = bottom;
position = "{468, 5}";
},
{
name = top;
position = "{468, 447}";
}
);
background = {
paths = (
{
closed = 1;
nodes = (
"423 0 LINE",
"479 0 LINE",
"479 456 LINE",
"423 456 LINE"
);
},
{
closed = 1;
nodes = (
"-21 456 LINE",
"-21 408 LINE",
"577 408 LINE",
"577 456 LINE"
);
},
{
closed = 1;
nodes = (
"271 80 OFFCURVE",
"320 128 OFFCURVE",
"320 224 CURVE SMOOTH",
"320 436 LINE",
"264 436 LINE",
"264 228 LINE SMOOTH",
"264 164 OFFCURVE",
"244 133 OFFCURVE",
"193 133 CURVE SMOOTH",
"142 133 OFFCURVE",
"122 164 OFFCURVE",
"122 228 CURVE SMOOTH",
"122 436 LINE",
"66 436 LINE",
"66 224 LINE SMOOTH",
"66 127 OFFCURVE",
"111 80 OFFCURVE",
"194 80 CURVE SMOOTH"
);
},
{
closed = 1;
nodes = (
"346 216 OFFCURVE",
"292 169 OFFCURVE",
"208 169 CURVE SMOOTH",
"154 169 OFFCURVE",
"137 204 OFFCURVE",
"137 260 CURVE SMOOTH",
"137 456 LINE",
"52 456 LINE",
"52 234 LINE SMOOTH",
"52 154 OFFCURVE",
"110 93 OFFCURVE",
"210 93 CURVE SMOOTH",
"283 93 OFFCURVE",
"346 133 OFFCURVE",
"346 133 CURVE",
"346 216 LINE"
);
},
{
closed = 1;
nodes = (
"291 0 LINE",
"376 0 LINE",
"376 466 LINE",
"291 466 LINE"
);
},
{
closed = 1;
nodes = (
"-30 466 LINE",
"-30 396 LINE",
"474 396 LINE",
"474 466 LINE"
);
}
);
};
layerId = "CFA4B904-E3F1-48B6-A7F6-47DC1FF2A3E1";
name = Bold;
paths = (
{
closed = 1;
nodes = (
"426 0 LINE",
"511 0 LINE",
"511 466 LINE",
"426 466 LINE"
);
},
{
closed = 1;
nodes = (
"-24 466 LINE",
"-24 396 LINE",
"600 396 LINE",
"600 466 LINE"
);
},
{
closed = 1;
nodes = (
"288 78 OFFCURVE",
"340 131 OFFCURVE",
"340 227 CURVE SMOOTH",
"340 436 LINE",
"251 436 LINE",
"251 260 LINE SMOOTH",
"251 196 OFFCURVE",
"249 161 OFFCURVE",
"200 161 CURVE SMOOTH",
"151 161 OFFCURVE",
"149 196 OFFCURVE",
"149 260 CURVE SMOOTH",
"149 436 LINE",
"60 436 LINE",
"60 227 LINE SMOOTH",
"60 130 OFFCURVE",
"108 78 OFFCURVE",
"201 78 CURVE SMOOTH"
);
}
);
width = 576;
}
);
unicode = 0923;
},
{
glyphname = "ta-deva";
lastChange = "2014-09-17 07:26:12 +0000";
layers = (
{
anchors = (
{
name = bottom;
position = "{330, 5}";
},
{
name = top;
position = "{340, 447}";
}
);
background = {
paths = (
{
closed = 1;
nodes = (
"328 305 OFFCURVE",
"275 305 OFFCURVE",
"191 305 CURVE SMOOTH",
"93 305 OFFCURVE",
"38 272 OFFCURVE",
"38 185 CURVE SMOOTH",
"38 118 OFFCURVE",
"81 43 OFFCURVE",
"117 -17 CURVE",
"187 24 LINE",
"159 73 OFFCURVE",
"125 132 OFFCURVE",
"125 177 CURVE SMOOTH",
"125 215 OFFCURVE",
"146 227 OFFCURVE",
"216 227 CURVE SMOOTH",
"328 227 LINE",
"328 305 LINE"
);
}
);
};
guideLines = (
{
angle = 90;
position = "{340, 92}";
}
);
layerId = "CFA4B904-E3F1-48B6-A7F6-47DC1FF2A3E1";
name = Bold;
paths = (
{
closed = 1;
nodes = (
"-24 466 LINE",
"-24 396 LINE",
"462 396 LINE",
"462 466 LINE"
);
},
{
closed = 1;
nodes = (
"288 0 LINE",
"373 0 LINE",
"373 466 LINE",
"288 466 LINE"
);
},
{
closed = 1;
nodes = (
"358 305 OFFCURVE",
"275 305 OFFCURVE",
"191 305 CURVE SMOOTH",
"93 305 OFFCURVE",
"38 272 OFFCURVE",
"38 185 CURVE SMOOTH",
"38 118 OFFCURVE",
"85 38 OFFCURVE",
"121 -22 CURVE",
"191 19 LINE",
"163 68 OFFCURVE",
"123 132 OFFCURVE",
"123 177 CURVE SMOOTH",
"123 215 OFFCURVE",
"146 227 OFFCURVE",
"216 227 CURVE SMOOTH",
"358 227 LINE",
"358 305 LINE"
);
}
);
width = 438;
}
);
unicode = 0924;
},
{
glyphname = "tha-deva";
lastChange = "2014-09-16 10:13:42 +0000";
layers = (
{
anchors = (
{
name = bottom;
position = "{383, 5}";
},
{
name = top;
position = "{383, 447}";
}
);
background = {
paths = (
{
closed = 1;
nodes = (
"340 0 LINE",
"396 0 LINE",
"396 456 LINE",
"340 456 LINE"
);
},
{
closed = 1;
nodes = (
"270 456 LINE",
"270 408 LINE",
"494 408 LINE",
"494 456 LINE"
);
},
{
closed = 1;
nodes = (
"234 402 OFFCURVE",
"203 467 OFFCURVE",
"131 467 CURVE SMOOTH",
"86 467 OFFCURVE",
"36 436 OFFCURVE",
"36 379 CURVE SMOOTH",
"36 340 OFFCURVE",
"59 302 OFFCURVE",
"108 279 CURVE",
"137 321 LINE",
"113 335 OFFCURVE",
"90 351 OFFCURVE",
"90 379 CURVE SMOOTH",
"90 399 OFFCURVE",
"110 414 OFFCURVE",
"129 414 CURVE SMOOTH",
"164 414 OFFCURVE",
"182 380 OFFCURVE",
"182 342 CURVE SMOOTH",
"182 269 OFFCURVE",
"89 230 OFFCURVE",
"57 213 CURVE",
"46 182 LINE",
"73 136 OFFCURVE",
"134 84 OFFCURVE",
"225 84 CURVE SMOOTH",
"297 84 OFFCURVE",
"350 124 OFFCURVE",
"350 127 CURVE",
"350 197 LINE",
"324 160 OFFCURVE",
"271 138 OFFCURVE",
"220 138 CURVE SMOOTH",
"179 138 OFFCURVE",
"138 153 OFFCURVE",
"113 183 CURVE",
"151 211 OFFCURVE",
"234 253 OFFCURVE",
"234 342 CURVE SMOOTH"
);
}
);
};
layerId = "CFA4B904-E3F1-48B6-A7F6-47DC1FF2A3E1";
name = Bold;
paths = (
{
closed = 1;
nodes = (
"164 405 OFFCURVE",
"177 377 OFFCURVE",
"177 350 CURVE SMOOTH",
"177 280 OFFCURVE",
"105 247 OFFCURVE",
"49 217 CURVE",
"36 182 LINE",
"63 136 OFFCURVE",
"138 74 OFFCURVE",
"229 74 CURVE SMOOTH",
"301 74 OFFCURVE",
"354 116 OFFCURVE",
"354 116 CURVE",
"354 224 LINE",
"328 179 OFFCURVE",
"275 156 OFFCURVE",
"224 156 CURVE SMOOTH",
"192 156 OFFCURVE",
"166 167 OFFCURVE",
"147 181 CURVE",
"209 228 OFFCURVE",
"257 269 OFFCURVE",
"257 346 CURVE SMOOTH",
"257 410 OFFCURVE",
"217 478 OFFCURVE",
"138 478 CURVE",
"71 478 OFFCURVE",
"30 434 OFFCURVE",
"30 379 CURVE",
"30 327 OFFCURVE",
"63 301 OFFCURVE",
"94 284 CURVE",
"134 341 LINE",
"121 350 OFFCURVE",
"106 361 OFFCURVE",
"106 379 CURVE",
"106 392 OFFCURVE",
"113 405 OFFCURVE",
"136 405 CURVE"
);
},
{
closed = 1;
nodes = (
"295 466 LINE",
"295 396 LINE",
"515 396 LINE",
"515 466 LINE"
);
},
{
closed = 1;
nodes = (
"341 0 LINE",
"426 0 LINE",
"426 466 LINE",
"341 466 LINE"
);
}
);
width = 491;
}
);
unicode = 0925;
},
{
glyphname = "da-deva";
lastChange = "2014-09-17 09:51:08 +0000";
layers = (
{
anchors = (
{
name = bottom;
position = "{339, -23}";
},
{
name = top;
position = "{296, 447}";
}
);
background = {
paths = (
{
closed = 1;
nodes = (
"282 104 LINE",
"257 91 OFFCURVE",
"235 78 OFFCURVE",
"201 78 CURVE SMOOTH",
"139 78 OFFCURVE",
"104 114 OFFCURVE",
"104 163 CURVE SMOOTH",
"104 210 OFFCURVE",
"139 242 OFFCURVE",
"207 242 CURVE SMOOTH",
"244 242 OFFCURVE",
"269 237 OFFCURVE",
"305 233 CURVE",
"314 240 LINE",
"314 456 LINE",
"238 456 LINE",
"238 322 LINE",
"238 322 OFFCURVE",
"213 322 OFFCURVE",
"199 322 CURVE SMOOTH",
"84 322 OFFCURVE",
"20 259 OFFCURVE",
"20 167 CURVE SMOOTH",
"20 65 OFFCURVE",
"97 -2 OFFCURVE",
"200 -2 CURVE SMOOTH",
"252 -2 OFFCURVE",
"287 17 OFFCURVE",
"316 32 CURVE"
);
},
{
closed = 1;
nodes = (
"-24 466 LINE",
"-24 396 LINE",
"438 396 LINE",
"438 466 LINE"
);
},
{
closed = 1;
nodes = (
"263 44 OFFCURVE",
"278 30 OFFCURVE",
"291 31 CURVE SMOOTH",
"311 32 OFFCURVE",
"351 58 OFFCURVE",
"351 100 CURVE SMOOTH",
"351 132 OFFCURVE",
"331 163 OFFCURVE",
"287 163 CURVE SMOOTH",
"242 163 OFFCURVE",
"216 130 OFFCURVE",
"216 130 CURVE",
"254 49 LINE"
);
},
{
closed = 1;
nodes = (
"250 56 LINE",
"250 56 OFFCURVE",
"324 -82 OFFCURVE",
"324 -82 CURVE SMOOTH",
"324 -82 OFFCURVE",
"395 -43 OFFCURVE",
"395 -43 CURVE",
"313 88 LINE"
);
}
);
};
layerId = "CFA4B904-E3F1-48B6-A7F6-47DC1FF2A3E1";
name = Bold;
paths = (
{
closed = 1;
nodes = (
"301 102 LINE",
"276 89 OFFCURVE",
"254 76 OFFCURVE",
"220 76 CURVE SMOOTH",
"158 76 OFFCURVE",
"121 111 OFFCURVE",
"121 163 CURVE SMOOTH",
"121 213 OFFCURVE",
"158 244 OFFCURVE",
"226 244 CURVE SMOOTH",
"263 244 OFFCURVE",
"288 239 OFFCURVE",
"324 235 CURVE",
"333 242 LINE",
"333 456 LINE",
"257 456 LINE",
"257 322 LINE",
"257 322 OFFCURVE",
"232 322 OFFCURVE",
"218 322 CURVE SMOOTH",
"103 322 OFFCURVE",
"39 259 OFFCURVE",
"39 167 CURVE SMOOTH",
"39 65 OFFCURVE",
"116 -2 OFFCURVE",
"219 -2 CURVE SMOOTH",
"271 -2 OFFCURVE",
"306 17 OFFCURVE",
"335 32 CURVE"
);
},
{
closed = 1;
nodes = (
"-24 466 LINE",
"-24 396 LINE",
"454 396 LINE",
"454 466 LINE"
);
},
{
closed = 1;
nodes = (
"282 44 OFFCURVE",
"297 30 OFFCURVE",
"310 31 CURVE SMOOTH",
"330 32 OFFCURVE",
"370 58 OFFCURVE",
"370 100 CURVE SMOOTH",
"370 132 OFFCURVE",
"350 163 OFFCURVE",
"306 163 CURVE SMOOTH",
"261 163 OFFCURVE",
"235 130 OFFCURVE",
"235 130 CURVE",
"273 49 LINE"
);
},
{
closed = 1;
nodes = (
"269 56 LINE",
"269 56 OFFCURVE",
"343 -82 OFFCURVE",
"343 -82 CURVE SMOOTH",
"343 -82 OFFCURVE",
"412 -44 OFFCURVE",
"412 -44 CURVE",
"330 87 LINE"
);
}
);
width = 430;
}
);
unicode = 0926;
},
{
glyphname = "dha-deva";
lastChange = "2014-09-17 09:51:44 +0000";
layers = (
{
anchors = (
{
name = bottom;
position = "{387, 5}";
},
{
name = top;
position = "{387, 447}";
}
);
background = {
paths = (
{
closed = 1;
nodes = (
"73 486 OFFCURVE",
"32 426 OFFCURVE",
"32 362 CURVE",
"32 279 OFFCURVE",
"105 239 OFFCURVE",
"121 227 CURVE",
"228 267 LINE",
"228 267 OFFCURVE",
"119 291 OFFCURVE",
"119 371 CURVE",
"119 396 OFFCURVE",
"127 417 OFFCURVE",
"154 417 CURVE",
"167 417 OFFCURVE",
"176 409 OFFCURVE",
"176 397 CURVE",
"176 385 OFFCURVE",
"170 375 OFFCURVE",
"157 363 CURVE",
"212 316 LINE",
"233 338 OFFCURVE",
"253 361 OFFCURVE",
"253 396 CURVE",
"253 441 OFFCURVE",
"220 486 OFFCURVE",
"152 486 CURVE"
);
},
{
closed = 1;
nodes = (
"125 284 OFFCURVE",
"66 240 OFFCURVE",
"66 176 CURVE SMOOTH",
"66 94 OFFCURVE",
"136 48 OFFCURVE",
"232 48 CURVE SMOOTH",
"317 48 OFFCURVE",
"372 94 OFFCURVE",
"372 95 CURVE",
"372 191 LINE",
"372 191 OFFCURVE",
"319 129 OFFCURVE",
"229 129 CURVE SMOOTH",
"191 129 OFFCURVE",
"154 139 OFFCURVE",
"154 169 CURVE SMOOTH",
"154 195 OFFCURVE",
"199 204 OFFCURVE",
"266 212 CURVE",
"249 292 LINE"
);
},
{
closed = 1;
nodes = (
"282 466 LINE",
"282 396 LINE",
"512 396 LINE",
"512 466 LINE"
);
},
{
closed = 1;
nodes = (
"345 0 LINE",
"430 0 LINE",
"430 466 LINE",
"345 466 LINE"
);
}
);
};
layerId = "CFA4B904-E3F1-48B6-A7F6-47DC1FF2A3E1";
name = Bold;
paths = (
{
closed = 1;
nodes = (
"73 486 OFFCURVE",
"35 426 OFFCURVE",
"35 369 CURVE",
"35 283 OFFCURVE",
"108 239 OFFCURVE",
"124 227 CURVE",
"219 267 LINE",
"219 267 OFFCURVE",
"119 291 OFFCURVE",
"119 371 CURVE",
"119 396 OFFCURVE",
"127 417 OFFCURVE",
"154 417 CURVE",
"167 417 OFFCURVE",
"176 409 OFFCURVE",
"176 397 CURVE",
"176 385 OFFCURVE",
"170 375 OFFCURVE",
"157 363 CURVE",
"210 318 LINE",
"231 340 OFFCURVE",
"250 364 OFFCURVE",
"250 396 CURVE",
"250 441 OFFCURVE",
"220 486 OFFCURVE",
"152 486 CURVE"
);
},
{
closed = 1;
nodes = (
"127 277 OFFCURVE",
"68 236 OFFCURVE",
"68 176 CURVE SMOOTH",
"68 97 OFFCURVE",
"136 50 OFFCURVE",
"232 50 CURVE SMOOTH",
"317 50 OFFCURVE",
"372 88 OFFCURVE",
"372 89 CURVE",
"372 183 LINE",
"372 183 OFFCURVE",
"329 129 OFFCURVE",
"229 129 CURVE SMOOTH",
"191 129 OFFCURVE",
"154 139 OFFCURVE",
"154 169 CURVE SMOOTH",
"154 195 OFFCURVE",
"199 204 OFFCURVE",
"266 212 CURVE",
"251 285 LINE"
);
},
{
closed = 1;
nodes = (
"282 466 LINE",
"282 396 LINE",
"519 396 LINE",
"519 466 LINE"
);
},
{
closed = 1;
nodes = (
"345 0 LINE",
"430 0 LINE",
"430 466 LINE",
"345 466 LINE"
);
}
);
width = 495;
}
);
unicode = 0927;
},
{
glyphname = "na-deva";
lastChange = "2014-09-17 10:12:03 +0000";
layers = (
{
anchors = (
{
name = bottom;
position = "{324, 5}";
},
{
name = top;
position = "{324, 447}";
}
);
background = {
paths = (
{
closed = 1;
nodes = (
"277 0 LINE",
"333 0 LINE",
"333 456 LINE",
"277 456 LINE"
);
},
{
closed = 1;
nodes = (
"-24 456 LINE",
"-24 408 LINE",
"431 408 LINE",
"431 456 LINE"
);
},
{
closed = 1;
nodes = (
"34 256 LINE",
"34 224 LINE",
"85 117 LINE",
"85 117 OFFCURVE",
"125 117 OFFCURVE",
"125 117 CURVE",
"125 256 LINE"
);
},
{
closed = 1;
nodes = (
"91 256 LINE",
"91 208 LINE",
"311 208 LINE",
"311 256 LINE"
);
}
);
};
layerId = "CFA4B904-E3F1-48B6-A7F6-47DC1FF2A3E1";
name = Bold;
paths = (
{
closed = 1;
nodes = (
"281 0 LINE",
"366 0 LINE",
"366 466 LINE",
"281 466 LINE"
);
},
{
closed = 1;
nodes = (
"-24 466 LINE",
"-24 396 LINE",
"455 396 LINE",
"455 466 LINE"
);
},
{
closed = 1;
nodes = (
"44 270 LINE",
"34 228 LINE",
"95 95 LINE",
"95 95 OFFCURVE",
"152 95 OFFCURVE",
"152 95 CURVE",
"152 270 LINE"
);
},
{
closed = 1;
nodes = (
"91 270 LINE",
"91 192 LINE",
"316 192 LINE",
"316 270 LINE"
);
}
);
width = 431;
}
);
unicode = 0928;
},
{
glyphname = "nnna-deva";
lastChange = "2014-09-19 12:34:04 +0000";
layers = (
{
anchors = (
{
name = bottom;
position = "{324, 5}";
},
{
name = top;
position = "{324, 447}";
}
);
background = {
paths = (
{
closed = 1;
nodes = (
"278 0 LINE",
"363 0 LINE",
"363 466 LINE",
"278 466 LINE"
);
},
{
closed = 1;
nodes = (
"-27 466 LINE",
"-27 396 LINE",
"432 396 LINE",
"432 466 LINE"
);
},
{
closed = 1;
nodes = (
"31 275 LINE",
"31 233 LINE",
"92 105 LINE",
"92 105 OFFCURVE",
"149 105 OFFCURVE",
"149 105 CURVE",
"149 275 LINE"
);
},
{
closed = 1;
nodes = (
"88 275 LINE",
"88 197 LINE",
"313 197 LINE",
"313 275 LINE"
);
}
);
};
components = (
{
name = "nukta-deva";
transform = "{1, 0, 0, 1, 207, 84}";
}
);
layerId = "CFA4B904-E3F1-48B6-A7F6-47DC1FF2A3E1";
name = Bold;
paths = (
{
closed = 1;
nodes = (
"281 0 LINE",
"366 0 LINE",
"366 466 LINE",
"281 466 LINE"
);
},
{
closed = 1;
nodes = (
"-24 466 LINE",
"-24 396 LINE",
"455 396 LINE",
"455 466 LINE"
);
},
{
closed = 1;
nodes = (
"44 280 LINE",
"34 238 LINE",
"95 105 LINE",
"95 105 OFFCURVE",
"152 105 OFFCURVE",
"152 105 CURVE",
"152 280 LINE"
);
},
{
closed = 1;
nodes = (
"91 280 LINE",
"91 202 LINE",
"316 202 LINE",
"316 280 LINE"
);
}
);
width = 431;
}
);
unicode = 0929;
},
{
glyphname = "pa-deva";
lastChange = "2014-09-17 09:52:13 +0000";
layers = (
{
anchors = (
{
name = bottom;
position = "{341, 5}";
},
{
name = top;
position = "{341, 447}";
}
);
background = {
paths = (
{
closed = 1;
nodes = (
"304 0 LINE",
"360 0 LINE",
"360 456 LINE",
"304 456 LINE"
);
},
{
closed = 1;
nodes = (
"-27 456 LINE",
"-27 408 LINE",
"458 408 LINE",
"458 456 LINE"
);
},
{
closed = 1;
nodes = (
"340 190 OFFCURVE",
"276 153 OFFCURVE",
"202 153 CURVE SMOOTH",
"148 153 OFFCURVE",
"111 188 OFFCURVE",
"111 244 CURVE SMOOTH",
"111 456 LINE",
"55 456 LINE",
"55 244 LINE SMOOTH",
"55 164 OFFCURVE",
"104 103 OFFCURVE",
"204 103 CURVE SMOOTH",
"267 103 OFFCURVE",
"340 133 OFFCURVE",
"340 133 CURVE",
"340 190 LINE"
);
}
);
};
layerId = "CFA4B904-E3F1-48B6-A7F6-47DC1FF2A3E1";
name = Bold;
paths = (
{
closed = 1;
nodes = (
"354 222 OFFCURVE",
"310 169 OFFCURVE",
"216 169 CURVE SMOOTH",
"162 169 OFFCURVE",
"145 202 OFFCURVE",
"145 260 CURVE SMOOTH",
"145 456 LINE",
"60 456 LINE",
"60 238 LINE SMOOTH",
"60 157 OFFCURVE",
"118 91 OFFCURVE",
"218 91 CURVE SMOOTH",
"291 91 OFFCURVE",
"354 131 OFFCURVE",
"354 131 CURVE",
"354 222 LINE"
);
},
{
closed = 1;
nodes = (
"299 0 LINE",
"384 0 LINE",
"384 466 LINE",
"299 466 LINE"
);
},
{
closed = 1;
nodes = (
"-24 466 LINE",
"-24 396 LINE",
"474 396 LINE",
"474 466 LINE"
);
}
);
width = 450;
}
);
unicode = 092A;
},
{
glyphname = "pha-deva";
lastChange = "2014-10-16 08:24:14 +0000";
layers = (
{
anchors = (
{
name = bottom;
position = "{340, 5}";
},
{
name = top;
position = "{340, 447}";
}
);
background = {
paths = (
{
closed = 1;
nodes = (
"349 216 OFFCURVE",
"295 169 OFFCURVE",
"211 169 CURVE SMOOTH",
"157 169 OFFCURVE",
"140 204 OFFCURVE",
"140 260 CURVE SMOOTH",
"140 456 LINE",
"55 456 LINE",
"55 234 LINE SMOOTH",
"55 154 OFFCURVE",
"113 93 OFFCURVE",
"213 93 CURVE SMOOTH",
"286 93 OFFCURVE",
"349 133 OFFCURVE",
"349 133 CURVE",
"349 216 LINE"
);
},
{
closed = 1;
nodes = (
"294 0 LINE",
"379 0 LINE",
"379 466 LINE",
"294 466 LINE"
);
},
{
closed = 1;
nodes = (
"-27 466 LINE",
"-27 396 LINE",
"657 396 LINE",
"657 466 LINE"
);
},
{
closed = 1;
nodes = (
"603 291 OFFCURVE",
"549 345 OFFCURVE",
"462 345 CURVE SMOOTH",
"390 345 OFFCURVE",
"357 308 OFFCURVE",
"330 290 CURVE",
"344 206 LINE",
"360 218 OFFCURVE",
"402 267 OFFCURVE",
"458 267 CURVE SMOOTH",
"503 267 OFFCURVE",
"522 236 OFFCURVE",
"522 200 CURVE SMOOTH",
"522 154 OFFCURVE",
"497 134 OFFCURVE",
"468 107 CURVE",
"528 50 LINE",
"572 88 OFFCURVE",
"603 128 OFFCURVE",
"603 199 CURVE SMOOTH"
);
}
);
};
layerId = "CFA4B904-E3F1-48B6-A7F6-47DC1FF2A3E1";
name = Bold;
paths = (
{
closed = 1;
nodes = (
"354 216 OFFCURVE",
"300 169 OFFCURVE",
"216 169 CURVE SMOOTH",
"162 169 OFFCURVE",
"145 204 OFFCURVE",
"145 260 CURVE SMOOTH",
"145 456 LINE",
"60 456 LINE",
"60 234 LINE SMOOTH",
"60 154 OFFCURVE",
"118 93 OFFCURVE",
"218 93 CURVE SMOOTH",
"291 93 OFFCURVE",
"354 133 OFFCURVE",
"354 133 CURVE",
"354 216 LINE"
);
},
{
closed = 1;
nodes = (
"299 0 LINE",
"381 0 LINE",
"381 466 LINE",
"299 466 LINE"
);
},
{
closed = 1;
nodes = (
"-24 466 LINE",
"-24 396 LINE",
"674 396 LINE",
"674 466 LINE"
);
},
{
closed = 1;
nodes = (
"606 296 OFFCURVE",
"546 345 OFFCURVE",
"464 345 CURVE SMOOTH",
"392 345 OFFCURVE",
"359 308 OFFCURVE",
"332 290 CURVE",
"346 210 LINE",
"362 222 OFFCURVE",
"414 267 OFFCURVE",
"460 267 CURVE SMOOTH",
"505 267 OFFCURVE",
"524 241 OFFCURVE",
"524 205 CURVE SMOOTH",
"524 159 OFFCURVE",
"491 132 OFFCURVE",
"470 112 CURVE",
"527 55 LINE",
"567 88 OFFCURVE",
"606 134 OFFCURVE",
"606 204 CURVE SMOOTH"
);
}
);
width = 647;
}
);
unicode = 092B;
},
{
glyphname = "ba-deva";
lastChange = "2014-09-17 09:54:51 +0000";
layers = (
{
anchors = (
{
name = bottom;
position = "{327, 5}";
},
{
name = top;
position = "{327, 447}";
}
);
background = {
paths = (
{
closed = 1;
nodes = (
"-27 466 LINE",
"-27 396 LINE",
"442 396 LINE",
"442 466 LINE"
);
},
{
closed = 1;
nodes = (
"98 245 OFFCURVE",
"140 268 OFFCURVE",
"186 268 CURVE SMOOTH",
"238 268 OFFCURVE",
"264 240 OFFCURVE",
"280 223 CURVE",
"296 304 LINE",
"269 320 OFFCURVE",
"236 345 OFFCURVE",
"172 345 CURVE SMOOTH",
"89 345 OFFCURVE",
"17 295 OFFCURVE",
"17 197 CURVE SMOOTH",
"17 103 OFFCURVE",
"89 50 OFFCURVE",
"172 50 CURVE SMOOTH",
"234 50 OFFCURVE",
"269 72 OFFCURVE",
"296 90 CURVE",
"280 170 LINE",
"264 158 OFFCURVE",
"238 125 OFFCURVE",
"186 125 CURVE SMOOTH",
"140 125 OFFCURVE",
"98 149 OFFCURVE",
"98 197 CURVE SMOOTH"
);
},
{
closed = 1;
nodes = (
"268 0 LINE",
"353 0 LINE",
"353 466 LINE",
"268 466 LINE"
);
},
{
closed = 1;
nodes = (
"255 90 LINE",
"297 130 LINE",
"128 306 LINE",
"79 270 LINE"
);
}
);
};
layerId = "CFA4B904-E3F1-48B6-A7F6-47DC1FF2A3E1";
name = Bold;
paths = (
{
closed = 1;
nodes = (
"-24 466 LINE",
"-24 396 LINE",
"459 396 LINE",
"459 466 LINE"
);
},
{
closed = 1;
nodes = (
"115 245 OFFCURVE",
"157 268 OFFCURVE",
"203 268 CURVE SMOOTH",
"255 268 OFFCURVE",
"281 241 OFFCURVE",
"297 228 CURVE",
"313 301 LINE",
"286 317 OFFCURVE",
"253 342 OFFCURVE",
"189 342 CURVE SMOOTH",
"106 342 OFFCURVE",
"37 292 OFFCURVE",
"37 197 CURVE SMOOTH",
"37 106 OFFCURVE",
"106 53 OFFCURVE",
"189 53 CURVE SMOOTH",
"251 53 OFFCURVE",
"286 75 OFFCURVE",
"313 93 CURVE",
"297 170 LINE",
"281 158 OFFCURVE",
"255 125 OFFCURVE",
"203 125 CURVE SMOOTH",
"157 125 OFFCURVE",
"115 149 OFFCURVE",
"115 197 CURVE SMOOTH"
);
},
{
closed = 1;
nodes = (
"285 0 LINE",
"370 0 LINE",
"370 466 LINE",
"285 466 LINE"
);
},
{
closed = 1;
nodes = (
"272 90 LINE",
"314 130 LINE",
"145 306 LINE",
"96 270 LINE"
);
}
);
width = 435;
}
);
unicode = 092C;
},
{
glyphname = "bha-deva";
lastChange = "2014-09-17 09:55:31 +0000";
layers = (
{
anchors = (
{
name = bottom;
position = "{425, 5}";
},
{
name = top;
position = "{425, 447}";
}
);
background = {
paths = (
{
closed = 1;
nodes = (
"385 0 LINE",
"470 0 LINE",
"470 466 LINE",
"385 466 LINE"
);
},
{
closed = 1;
nodes = (
"247 125 LINE",
"247 310 LINE SMOOTH",
"247 422 OFFCURVE",
"207 479 OFFCURVE",
"123 479 CURVE SMOOTH",
"54 479 OFFCURVE",
"9 434 OFFCURVE",
"9 369 CURVE SMOOTH",
"9 317 OFFCURVE",
"43 277 OFFCURVE",
"92 251 CURVE",
"130 311 LINE",
"106 325 OFFCURVE",
"83 341 OFFCURVE",
"83 369 CURVE SMOOTH",
"83 389 OFFCURVE",
"97 403 OFFCURVE",
"116 403 CURVE SMOOTH",
"162 403 OFFCURVE",
"157 329 OFFCURVE",
"157 310 CURVE SMOOTH",
"157 125 LINE"
);
},
{
closed = 1;
nodes = (
"304 466 LINE",
"304 396 LINE",
"554 396 LINE",
"554 466 LINE"
);
},
{
closed = 1;
nodes = (
"216 206 LINE",
"216 128 LINE",
"445 128 LINE",
"445 206 LINE"
);
},
{
closed = 1;
nodes = (
"91 206 LINE",
"91 164 LINE",
"190 41 LINE",
"190 41 OFFCURVE",
"247 41 OFFCURVE",
"247 41 CURVE",
"247 206 LINE"
);
}
);
};
layerId = "CFA4B904-E3F1-48B6-A7F6-47DC1FF2A3E1";
name = Bold;
paths = (
{
closed = 1;
nodes = (
"382 0 LINE",
"467 0 LINE",
"467 466 LINE",
"382 466 LINE"
);
},
{
closed = 1;
nodes = (
"247 125 LINE",
"247 310 LINE SMOOTH",
"247 422 OFFCURVE",
"210 479 OFFCURVE",
"126 479 CURVE SMOOTH",
"57 479 OFFCURVE",
"12 434 OFFCURVE",
"12 369 CURVE SMOOTH",
"12 317 OFFCURVE",
"46 277 OFFCURVE",
"95 251 CURVE",
"133 311 LINE",
"109 325 OFFCURVE",
"86 341 OFFCURVE",
"86 369 CURVE SMOOTH",
"86 389 OFFCURVE",
"100 403 OFFCURVE",
"119 403 CURVE SMOOTH",
"165 403 OFFCURVE",
"160 329 OFFCURVE",
"160 310 CURVE SMOOTH",
"160 125 LINE"
);
},
{
closed = 1;
nodes = (
"301 466 LINE",
"301 396 LINE",
"556 396 LINE",
"556 466 LINE"
);
},
{
closed = 1;
nodes = (
"213 206 LINE",
"213 131 LINE",
"442 131 LINE",
"442 206 LINE"
);
},
{
closed = 1;
nodes = (
"94 206 LINE",
"94 164 LINE",
"193 41 LINE",
"193 41 OFFCURVE",
"247 41 OFFCURVE",
"247 41 CURVE",
"247 206 LINE"
);
}
);
width = 532;
}
);
unicode = 092D;
},
{
glyphname = "ma-deva";
lastChange = "2014-09-17 10:14:58 +0000";
layers = (
{
anchors = (
{
name = bottom;
position = "{391, 5}";
},
{
name = top;
position = "{391, 447}";
}
);
background = {
paths = (
{
closed = 1;
nodes = (
"338 0 LINE",
"394 0 LINE",
"394 456 LINE",
"338 456 LINE"
);
},
{
closed = 1;
nodes = (
"101 140 LINE",
"156 140 LINE",
"156 456 LINE",
"101 456 LINE"
);
},
{
closed = 1;
nodes = (
"-19 456 LINE",
"-19 408 LINE",
"492 408 LINE",
"492 456 LINE"
);
},
{
closed = 1;
nodes = (
"39 204 LINE",
"39 171 LINE",
"118 76 LINE",
"118 76 OFFCURVE",
"156 76 OFFCURVE",
"156 76 CURVE",
"156 204 LINE"
);
},
{
closed = 1;
nodes = (
"124 204 LINE",
"124 156 LINE",
"384 156 LINE",
"384 204 LINE"
);
},
{
closed = 1;
nodes = (
"338 0 LINE",
"394 0 LINE",
"394 456 LINE",
"338 456 LINE"
);
},
{
closed = 1;
nodes = (
"101 140 LINE",
"156 140 LINE",
"156 456 LINE",
"101 456 LINE"
);
},
{
closed = 1;
nodes = (
"-19 456 LINE",
"-19 408 LINE",
"492 408 LINE",
"492 456 LINE"
);
},
{
closed = 1;
nodes = (
"39 204 LINE",
"39 171 LINE",
"118 76 LINE",
"156 76 LINE",
"156 204 LINE"
);
},
{
closed = 1;
nodes = (
"124 204 LINE",
"124 156 LINE",
"384 156 LINE",
"384 204 LINE"
);
}
);
};
layerId = "CFA4B904-E3F1-48B6-A7F6-47DC1FF2A3E1";
name = Bold;
paths = (
{
closed = 1;
nodes = (
"349 0 LINE",
"434 0 LINE",
"434 466 LINE",
"349 466 LINE"
);
},
{
closed = 1;
nodes = (
"-24 466 LINE",
"-24 396 LINE",
"523 396 LINE",
"523 466 LINE"
);
},
{
closed = 1;
nodes = (
"39 216 LINE",
"39 174 LINE",
"138 51 LINE",
"138 51 OFFCURVE",
"195 51 OFFCURVE",
"195 51 CURVE",
"195 216 LINE"
);
},
{
closed = 1;
nodes = (
"134 216 LINE",
"134 138 LINE",
"387 138 LINE",
"387 216 LINE"
);
},
{
closed = 1;
nodes = (
"110 138 LINE",
"195 138 LINE",
"195 466 LINE",
"110 466 LINE"
);
}
);
width = 499;
}
);
unicode = 092E;
},
{
glyphname = "ya-deva";
lastChange = "2014-09-17 10:16:17 +0000";
layers = (
{
anchors = (
{
name = bottom;
position = "{356, 5}";
},
{
name = top;
position = "{356, 447}";
}
);
background = {
paths = (
{
closed = 1;
nodes = (
"326 179 OFFCURVE",
"273 156 OFFCURVE",
"222 156 CURVE SMOOTH",
"188 156 OFFCURVE",
"161 169 OFFCURVE",
"142 184 CURVE",
"184 225 OFFCURVE",
"206 253 OFFCURVE",
"206 306 CURVE SMOOTH",
"206 356 OFFCURVE",
"172 414 OFFCURVE",
"118 456 CURVE",
"20 456 LINE",
"80 414 OFFCURVE",
"124 356 OFFCURVE",
"120 307 CURVE SMOOTH",
"116 258 OFFCURVE",
"79 234 OFFCURVE",
"47 217 CURVE",
"34 182 LINE",
"61 128 OFFCURVE",
"136 73 OFFCURVE",
"227 73 CURVE SMOOTH",
"299 73 OFFCURVE",
"352 115 OFFCURVE",
"352 115 CURVE",
"352 224 LINE"
);
},
{
closed = 1;
nodes = (
"-24 466 LINE",
"-24 396 LINE",
"483 396 LINE",
"483 466 LINE"
);
},
{
closed = 1;
nodes = (
"314 0 LINE",
"399 0 LINE",
"399 466 LINE",
"314 466 LINE"
);
}
);
};
layerId = "CFA4B904-E3F1-48B6-A7F6-47DC1FF2A3E1";
name = Bold;
paths = (
{
closed = 1;
nodes = (
"326 179 OFFCURVE",
"273 156 OFFCURVE",
"222 156 CURVE SMOOTH",
"188 156 OFFCURVE",
"161 169 OFFCURVE",
"142 184 CURVE",
"184 225 OFFCURVE",
"206 253 OFFCURVE",
"206 306 CURVE SMOOTH",
"206 356 OFFCURVE",
"172 414 OFFCURVE",
"118 456 CURVE",
"20 456 LINE",
"80 414 OFFCURVE",
"124 356 OFFCURVE",
"120 307 CURVE SMOOTH",
"116 258 OFFCURVE",
"79 234 OFFCURVE",
"47 217 CURVE",
"34 185 LINE",
"61 131 OFFCURVE",
"136 76 OFFCURVE",
"227 76 CURVE SMOOTH",
"299 76 OFFCURVE",
"352 118 OFFCURVE",
"352 118 CURVE",
"352 224 LINE"
);
},
{
closed = 1;
nodes = (
"-24 466 LINE",
"-24 396 LINE",
"488 396 LINE",
"488 466 LINE"
);
},
{
closed = 1;
nodes = (
"314 0 LINE",
"399 0 LINE",
"399 466 LINE",
"314 466 LINE"
);
}
);
width = 464;
}
);
unicode = 092F;
},
{
glyphname = "ra-deva";
lastChange = "2014-09-17 10:13:51 +0000";
layers = (
{
anchors = (
{
name = top;
position = "{150, 447}";
}
);
background = {
paths = (
{
closed = 1;
nodes = (
"-21 456 LINE",
"-21 408 LINE",
"298 408 LINE",
"298 456 LINE"
);
},
{
closed = 1;
nodes = (
"84 427 OFFCURVE",
"155 403 OFFCURVE",
"155 306 CURVE SMOOTH",
"155 209 OFFCURVE",
"41 206 OFFCURVE",
"41 206 CURVE SMOOTH",
"41 206 OFFCURVE",
"63 157 OFFCURVE",
"63 157 CURVE",
"102 157 OFFCURVE",
"209 191 OFFCURVE",
"209 304 CURVE SMOOTH",
"209 412 OFFCURVE",
"136 443 OFFCURVE",
"136 443 CURVE",
"84 427 LINE"
);
},
{
closed = 1;
nodes = (
"-27 456 LINE",
"-27 408 LINE",
"290 408 LINE",
"290 456 LINE"
);
},
{
closed = 1;
nodes = (
"84 427 OFFCURVE",
"155 403 OFFCURVE",
"155 306 CURVE SMOOTH",
"155 209 OFFCURVE",
"41 206 OFFCURVE",
"41 206 CURVE SMOOTH",
"41 206 OFFCURVE",
"63 157 OFFCURVE",
"63 157 CURVE",
"102 157 OFFCURVE",
"209 191 OFFCURVE",
"209 304 CURVE SMOOTH",
"209 412 OFFCURVE",
"136 443 OFFCURVE",
"136 443 CURVE",
"84 427 LINE"
);
},
{
closed = 1;
nodes = (
"11 212 OFFCURVE",
"181 -13 OFFCURVE",
"181 -13 CURVE SMOOTH",
"181 -13 OFFCURVE",
"228 19 OFFCURVE",
"228 19 CURVE",
"52 244 LINE",
"11 212 LINE"
);
}
);
};
layerId = "CFA4B904-E3F1-48B6-A7F6-47DC1FF2A3E1";
name = Bold;
paths = (
{
closed = 1;
nodes = (
"92 423 OFFCURVE",
"172 403 OFFCURVE",
"172 306 CURVE SMOOTH",
"172 217 OFFCURVE",
"69 216 OFFCURVE",
"69 216 CURVE SMOOTH",
"69 216 OFFCURVE",
"99 148 OFFCURVE",
"99 148 CURVE",
"157 148 OFFCURVE",
"256 195 OFFCURVE",
"256 304 CURVE SMOOTH",
"256 410 OFFCURVE",
"178 448 OFFCURVE",
"178 448 CURVE",
"92 423 LINE"
);
},
{
closed = 1;
nodes = (
"195 -20 LINE",
"195 -20 OFFCURVE",
"263 27 OFFCURVE",
"263 27 CURVE",
"85 254 LINE",
"22 205 LINE"
);
},
{
closed = 1;
nodes = (
"-24 466 LINE",
"-24 396 LINE",
"339 396 LINE",
"339 466 LINE"
);
}
);
width = 315;
}
);
unicode = 0930;
},
{
glyphname = "rra-deva";
lastChange = "2014-09-19 12:34:04 +0000";
layers = (
{
anchors = (
{
name = top;
position = "{150, 447}";
}
);
background = {
paths = (
{
closed = 1;
nodes = (
"9 0 LINE",
"68 0 LINE",
"68 58 LINE",
"9 58 LINE"
);
}
);
};
components = (
{
name = "ra-deva";
transform = "{1, 0, 0, 1, 0, 0}";
},
{
name = "nukta-deva";
transform = "{1, 0, 0, 1, 60, 88}";
}
);
layerId = "CFA4B904-E3F1-48B6-A7F6-47DC1FF2A3E1";
name = Bold;
width = 315;
}
);
unicode = 0931;
},
{
glyphname = "la-deva";
lastChange = "2014-09-17 10:17:16 +0000";
layers = (
{
anchors = (
{
name = bottom;
position = "{438, 5}";
},
{
name = top;
position = "{438, 447}";
}
);
background = {
paths = (
{
closed = 1;
nodes = (
"396 0 LINE",
"480 0 LINE",
"480 466 LINE",
"396 466 LINE"
);
},
{
closed = 1;
nodes = (
"-22 466 LINE",
"-22 396 LINE",
"562 396 LINE",
"562 466 LINE"
);
},
{
closed = 1;
nodes = (
"279 280 OFFCURVE",
"239 314 OFFCURVE",
"174 314 CURVE SMOOTH",
"99 314 OFFCURVE",
"39 263 OFFCURVE",
"39 172 CURVE SMOOTH",
"39 74 OFFCURVE",
"137 -23 OFFCURVE",
"137 -23 CURVE",
"218 13 LINE",
"197 35 OFFCURVE",
"128 111 OFFCURVE",
"128 169 CURVE SMOOTH",
"128 208 OFFCURVE",
"144 228 OFFCURVE",
"184 228 CURVE SMOOTH",
"225 228 OFFCURVE",
"249 181 OFFCURVE",
"249 181 CURVE",
"307 239 LINE"
);
},
{
closed = 1;
nodes = (
"225 118 OFFCURVE",
"311 105 OFFCURVE",
"311 105 CURVE",
"310 115 OFFCURVE",
"308 140 OFFCURVE",
"308 162 CURVE SMOOTH",
"308 207 OFFCURVE",
"333 230 OFFCURVE",
"369 229 CURVE SMOOTH",
"394 228 OFFCURVE",
"416 219 OFFCURVE",
"434 205 CURVE",
"428 297 LINE",
"405 310 OFFCURVE",
"384 312 OFFCURVE",
"365 312 CURVE SMOOTH",
"289 312 OFFCURVE",
"222 271 OFFCURVE",
"222 169 CURVE SMOOTH",
"222 159 OFFCURVE",
"223 128 OFFCURVE",
"225 118 CURVE"
);
}
);
};
layerId = "CFA4B904-E3F1-48B6-A7F6-47DC1FF2A3E1";
name = Bold;
paths = (
{
closed = 1;
nodes = (
"396 0 LINE",
"480 0 LINE",
"480 466 LINE",
"396 466 LINE"
);
},
{
closed = 1;
nodes = (
"-24 466 LINE",
"-24 396 LINE",
"569 396 LINE",
"569 466 LINE"
);
},
{
closed = 1;
nodes = (
"279 277 OFFCURVE",
"239 311 OFFCURVE",
"174 311 CURVE SMOOTH",
"99 311 OFFCURVE",
"42 259 OFFCURVE",
"42 172 CURVE SMOOTH",
"42 74 OFFCURVE",
"140 -23 OFFCURVE",
"140 -23 CURVE",
"215 12 LINE",
"194 34 OFFCURVE",
"126 111 OFFCURVE",
"126 169 CURVE SMOOTH",
"126 208 OFFCURVE",
"142 230 OFFCURVE",
"184 230 CURVE SMOOTH",
"225 230 OFFCURVE",
"249 183 OFFCURVE",
"249 183 CURVE",
"307 236 LINE"
);
},
{
closed = 1;
nodes = (
"228 118 OFFCURVE",
"309 105 OFFCURVE",
"309 105 CURVE",
"308 115 OFFCURVE",
"306 140 OFFCURVE",
"306 162 CURVE SMOOTH",
"306 207 OFFCURVE",
"330 232 OFFCURVE",
"369 231 CURVE SMOOTH",
"394 230 OFFCURVE",
"416 221 OFFCURVE",
"434 207 CURVE",
"428 294 LINE",
"405 307 OFFCURVE",
"384 309 OFFCURVE",
"365 309 CURVE SMOOTH",
"289 309 OFFCURVE",
"225 271 OFFCURVE",
"225 169 CURVE SMOOTH",
"225 159 OFFCURVE",
"226 128 OFFCURVE",
"228 118 CURVE"
);
}
);
width = 545;
}
);
unicode = 0932;
},
{
glyphname = "lla-deva";
lastChange = "2014-09-26 13:21:13 +0000";
layers = (
{
background = {
paths = (
{
closed = 1;
nodes = (
"386 280 LINE",
"439 280 LINE",
"439 456 LINE",
"386 456 LINE"
);
},
{
closed = 1;
nodes = (
"-24 456 LINE",
"-24 408 LINE",
"593 408 LINE",
"593 456 LINE"
);
},
{
closed = 1;
nodes = (
"244 135 OFFCURVE",
"215 82 OFFCURVE",
"159 82 CURVE SMOOTH",
"118 82 OFFCURVE",
"97 123 OFFCURVE",
"97 167 CURVE SMOOTH",
"97 213 OFFCURVE",
"120 250 OFFCURVE",
"163 250 CURVE SMOOTH",
"210 250 OFFCURVE",
"237 193 OFFCURVE",
"259 153 CURVE",
"290 199 LINE",
"267 242 OFFCURVE",
"231 302 OFFCURVE",
"164 302 CURVE SMOOTH",
"81 302 OFFCURVE",
"43 239 OFFCURVE",
"43 167 CURVE SMOOTH",
"43 95 OFFCURVE",
"82 33 OFFCURVE",
"160 33 CURVE SMOOTH",
"224 33 OFFCURVE",
"258 63 OFFCURVE",
"302 148 CURVE SMOOTH",
"328 198 OFFCURVE",
"352 250 OFFCURVE",
"408 250 CURVE SMOOTH",
"447 250 OFFCURVE",
"473 215 OFFCURVE",
"473 166 CURVE SMOOTH",
"473 121 OFFCURVE",
"451 81 OFFCURVE",
"407 81 CURVE SMOOTH",
"360 81 OFFCURVE",
"325 150 OFFCURVE",
"308 184 CURVE",
"280 134 LINE",
"303 91 OFFCURVE",
"339 31 OFFCURVE",
"406 31 CURVE SMOOTH",
"484 31 OFFCURVE",
"526 95 OFFCURVE",
"526 167 CURVE SMOOTH",
"526 239 OFFCURVE",
"485 300 OFFCURVE",
"407 300 CURVE SMOOTH",
"350 300 OFFCURVE",
"310 271 OFFCURVE",
"267 185 CURVE SMOOTH"
);
},
{
closed = 0;
nodes = (
"451 275 LINE",
"451 461 LINE",
"375 461 LINE",
"375 347 LINE"
);
}
);
};
layerId = "CFA4B904-E3F1-48B6-A7F6-47DC1FF2A3E1";
name = Bold;
paths = (
{
closed = 1;
nodes = (
"383 280 LINE",
"458 280 LINE",
"458 466 LINE",
"383 466 LINE"
);
},
{
closed = 1;
nodes = (
"-24 466 LINE",
"-24 396 LINE",
"618 396 LINE",
"618 466 LINE"
);
},
{
closed = 1;
nodes = (
"322 138 LINE",
"348 188 OFFCURVE",
"372 240 OFFCURVE",
"413 240 CURVE SMOOTH",
"452 240 OFFCURVE",
"468 205 OFFCURVE",
"468 166 CURVE SMOOTH",
"468 121 OFFCURVE",
"446 101 OFFCURVE",
"412 101 CURVE SMOOTH",
"370 101 OFFCURVE",
"343 164 OFFCURVE",
"326 198 CURVE",
"283 122 LINE",
"312 68 OFFCURVE",
"349 21 OFFCURVE",
"419 21 CURVE SMOOTH",
"509 21 OFFCURVE",
"551 85 OFFCURVE",
"551 167 CURVE SMOOTH",
"551 249 OFFCURVE",
"510 320 OFFCURVE",
"419 320 CURVE SMOOTH",
"350 320 OFFCURVE",
"310 281 OFFCURVE",
"267 195 CURVE"
);
},
{
closed = 1;
nodes = (
"326 147 OFFCURVE",
"271 203 OFFCURVE",
"271 204 CURVE",
"245 154 OFFCURVE",
"221 102 OFFCURVE",
"180 102 CURVE SMOOTH",
"141 102 OFFCURVE",
"125 137 OFFCURVE",
"125 176 CURVE SMOOTH",
"125 221 OFFCURVE",
"147 241 OFFCURVE",
"181 241 CURVE SMOOTH",
"223 241 OFFCURVE",
"250 178 OFFCURVE",
"267 144 CURVE",
"310 220 LINE",
"281 274 OFFCURVE",
"244 321 OFFCURVE",
"174 321 CURVE SMOOTH",
"84 321 OFFCURVE",
"42 257 OFFCURVE",
"42 175 CURVE SMOOTH",
"42 93 OFFCURVE",
"83 22 OFFCURVE",
"171 22 CURVE SMOOTH",
"243 22 OFFCURVE",
"283 61 OFFCURVE",
"326 147 CURVE"
);
}
);
width = 594;
}
);
unicode = 0933;
},
{
glyphname = "va-deva";
lastChange = "2014-09-17 10:17:32 +0000";
layers = (
{
anchors = (
{
name = bottom;
position = "{318, 5}";
},
{
name = top;
position = "{318, 447}";
}
);
background = {
paths = (
{
closed = 1;
nodes = (
"-9 466 LINE",
"-9 396 LINE",
"450 396 LINE",
"450 466 LINE"
);
},
{
closed = 1;
nodes = (
"119 245 OFFCURVE",
"158 265 OFFCURVE",
"204 265 CURVE SMOOTH",
"256 265 OFFCURVE",
"282 240 OFFCURVE",
"298 223 CURVE",
"314 304 LINE",
"287 320 OFFCURVE",
"254 345 OFFCURVE",
"190 345 CURVE SMOOTH",
"107 345 OFFCURVE",
"35 295 OFFCURVE",
"35 197 CURVE SMOOTH",
"35 103 OFFCURVE",
"107 50 OFFCURVE",
"190 50 CURVE SMOOTH",
"252 50 OFFCURVE",
"287 72 OFFCURVE",
"314 90 CURVE",
"298 170 LINE",
"282 158 OFFCURVE",
"256 129 OFFCURVE",
"204 129 CURVE SMOOTH",
"158 129 OFFCURVE",
"119 149 OFFCURVE",
"119 197 CURVE SMOOTH"
);
},
{
closed = 1;
nodes = (
"276 0 LINE",
"361 0 LINE",
"361 466 LINE",
"276 466 LINE"
);
}
);
};
layerId = "CFA4B904-E3F1-48B6-A7F6-47DC1FF2A3E1";
name = Bold;
paths = (
{
closed = 1;
nodes = (
"-24 466 LINE",
"-24 396 LINE",
"450 396 LINE",
"450 466 LINE"
);
},
{
closed = 1;
nodes = (
"119 245 OFFCURVE",
"158 265 OFFCURVE",
"204 265 CURVE SMOOTH",
"256 265 OFFCURVE",
"282 240 OFFCURVE",
"298 223 CURVE",
"314 302 LINE",
"287 318 OFFCURVE",
"254 343 OFFCURVE",
"190 343 CURVE SMOOTH",
"107 343 OFFCURVE",
"37 294 OFFCURVE",
"37 197 CURVE SMOOTH",
"37 104 OFFCURVE",
"107 52 OFFCURVE",
"190 52 CURVE SMOOTH",
"252 52 OFFCURVE",
"287 74 OFFCURVE",
"314 92 CURVE",
"298 170 LINE",
"282 158 OFFCURVE",
"256 129 OFFCURVE",
"204 129 CURVE SMOOTH",
"158 129 OFFCURVE",
"119 149 OFFCURVE",
"119 197 CURVE SMOOTH"
);
},
{
closed = 1;
nodes = (
"276 0 LINE",
"361 0 LINE",
"361 466 LINE",
"276 466 LINE"
);
}
);
width = 426;
}
);
unicode = 0935;
},
{
glyphname = "sha-deva";
lastChange = "2014-09-30 05:59:42 +0000";
layers = (
{
anchors = (
{
name = bottom;
position = "{455, 5}";
},
{
name = top;
position = "{455, 447}";
}
);
background = {
paths = (
{
closed = 1;
nodes = (
"282 414 OFFCURVE",
"229 466 OFFCURVE",
"165 466 CURVE SMOOTH",
"106 466 OFFCURVE",
"62 425 OFFCURVE",
"62 368 CURVE SMOOTH",
"62 329 OFFCURVE",
"85 297 OFFCURVE",
"134 268 CURVE",
"163 311 LINE",
"139 326 OFFCURVE",
"115 343 OFFCURVE",
"115 368 CURVE SMOOTH",
"115 398 OFFCURVE",
"137 413 OFFCURVE",
"165 413 CURVE SMOOTH",
"201 413 OFFCURVE",
"226 379 OFFCURVE",
"229 329 CURVE SMOOTH",
"234 233 OFFCURVE",
"132 193 OFFCURVE",
"97 174 CURVE",
"139 137 LINE",
"202 175 OFFCURVE",
"282 223 OFFCURVE",
"282 332 CURVE SMOOTH"
);
},
{
closed = 1;
nodes = (
"35 155 OFFCURVE",
"66 130 OFFCURVE",
"110 131 CURVE",
"243 -15 LINE",
"243 -15 OFFCURVE",
"281 21 OFFCURVE",
"281 21 CURVE",
"75 239 LINE",
"48 230 OFFCURVE",
"35 211 OFFCURVE",
"35 191 CURVE SMOOTH"
);
},
{
closed = 1;
nodes = (
"314 456 LINE",
"314 408 LINE",
"560 408 LINE",
"560 456 LINE"
);
},
{
closed = 1;
nodes = (
"406 0 LINE",
"462 0 LINE",
"462 456 LINE",
"406 456 LINE"
);
}
);
};
layerId = "CFA4B904-E3F1-48B6-A7F6-47DC1FF2A3E1";
name = Bold;
paths = (
{
closed = 1;
nodes = (
"305 426 OFFCURVE",
"248 479 OFFCURVE",
"174 479 CURVE SMOOTH",
"115 479 OFFCURVE",
"60 443 OFFCURVE",
"60 373 CURVE SMOOTH",
"60 323 OFFCURVE",
"88 291 OFFCURVE",
"137 262 CURVE",
"177 322 LINE",
"153 340 OFFCURVE",
"140 351 OFFCURVE",
"140 372 CURVE SMOOTH",
"140 392 OFFCURVE",
"153 403 OFFCURVE",
"174 403 CURVE SMOOTH",
"200 403 OFFCURVE",
"222 379 OFFCURVE",
"224 348 CURVE SMOOTH",
"230 253 OFFCURVE",
"132 200 OFFCURVE",
"97 181 CURVE",
"152 118 LINE",
"215 159 OFFCURVE",
"305 225 OFFCURVE",
"305 338 CURVE SMOOTH"
);
},
{
closed = 1;
nodes = (
"30 155 OFFCURVE",
"54 123 OFFCURVE",
"112 117 CURVE",
"235 -23 LINE",
"235 -23 OFFCURVE",
"292 32 OFFCURVE",
"292 32 CURVE",
"86 250 LINE",
"53 245 OFFCURVE",
"30 221 OFFCURVE",
"30 191 CURVE SMOOTH"
);
},
{
closed = 1;
nodes = (
"339 466 LINE",
"339 396 LINE",
"586 396 LINE",
"586 466 LINE"
);
},
{
closed = 1;
nodes = (
"412 0 LINE",
"497 0 LINE",
"497 466 LINE",
"412 466 LINE"
);
}
);
width = 562;
}
);
unicode = 0936;
},
{
glyphname = "ssa-deva";
lastChange = "2014-09-17 10:19:08 +0000";
layers = (
{
anchors = (
{
name = bottom;
position = "{351, 5}";
},
{
name = top;
position = "{351, 447}";
}
);
background = {
paths = (
{
closed = 1;
nodes = (
"312 0 LINE",
"368 0 LINE",
"368 456 LINE",
"312 456 LINE"
);
},
{
closed = 1;
nodes = (
"-27 456 LINE",
"-27 408 LINE",
"466 408 LINE",
"466 456 LINE"
);
},
{
closed = 1;
nodes = (
"340 190 OFFCURVE",
"276 153 OFFCURVE",
"202 153 CURVE SMOOTH",
"148 153 OFFCURVE",
"111 188 OFFCURVE",
"111 244 CURVE SMOOTH",
"111 341 LINE SMOOTH",
"111 384 OFFCURVE",
"91 456 OFFCURVE",
"91 456 CURVE SMOOTH",
"55 456 LINE",
"55 244 LINE SMOOTH",
"55 164 OFFCURVE",
"104 103 OFFCURVE",
"204 103 CURVE SMOOTH",
"267 103 OFFCURVE",
"340 133 OFFCURVE",
"340 133 CURVE",
"340 190 LINE"
);
},
{
closed = 1;
nodes = (
"294 146 LINE",
"325 178 LINE",
"119 430 LINE",
"81 402 LINE"
);
}
);
};
layerId = "CFA4B904-E3F1-48B6-A7F6-47DC1FF2A3E1";
name = Bold;
paths = (
{
closed = 1;
nodes = (
"354 216 OFFCURVE",
"300 169 OFFCURVE",
"216 169 CURVE SMOOTH",
"162 169 OFFCURVE",
"145 204 OFFCURVE",
"145 260 CURVE SMOOTH",
"145 313 LINE",
"145 367 OFFCURVE",
"112 402 OFFCURVE",
"95 456 CURVE",
"60 456 LINE",
"60 234 LINE SMOOTH",
"60 154 OFFCURVE",
"118 93 OFFCURVE",
"218 93 CURVE SMOOTH",
"291 93 OFFCURVE",
"354 133 OFFCURVE",
"354 133 CURVE",
"354 216 LINE"
);
},
{
closed = 1;
nodes = (
"309 0 LINE",
"394 0 LINE",
"394 466 LINE",
"309 466 LINE"
);
},
{
closed = 1;
nodes = (
"-24 466 LINE",
"-24 396 LINE",
"483 396 LINE",
"483 466 LINE"
);
},
{
closed = 1;
nodes = (
"146 336 OFFCURVE",
"217 250 OFFCURVE",
"288 165 CURVE",
"335 207 LINE",
"129 459 LINE",
"75 421 LINE"
);
}
);
width = 459;
}
);
unicode = 0937;
},
{
glyphname = "sa-deva";
lastChange = "2014-09-17 10:20:13 +0000";
layers = (
{
anchors = (
{
name = bottom;
position = "{436, 5}";
},
{
name = top;
position = "{436, 447}";
}
);
background = {
paths = (
{
closed = 1;
nodes = (
"103 427 OFFCURVE",
"174 403 OFFCURVE",
"174 306 CURVE SMOOTH",
"174 209 OFFCURVE",
"60 206 OFFCURVE",
"60 206 CURVE SMOOTH",
"60 206 OFFCURVE",
"82 157 OFFCURVE",
"82 157 CURVE",
"121 157 OFFCURVE",
"228 191 OFFCURVE",
"228 304 CURVE SMOOTH",
"228 412 OFFCURVE",
"155 443 OFFCURVE",
"155 443 CURVE",
"103 427 LINE"
);
},
{
closed = 1;
nodes = (
"30 212 OFFCURVE",
"202 -18 OFFCURVE",
"202 -18 CURVE SMOOTH",
"202 -18 OFFCURVE",
"249 14 OFFCURVE",
"249 14 CURVE",
"71 244 LINE",
"30 212 LINE"
);
},
{
closed = 1;
nodes = (
"401 0 LINE",
"457 0 LINE",
"457 456 LINE",
"401 456 LINE"
);
},
{
closed = 1;
nodes = (
"421 237 OFFCURVE",
"378 216 OFFCURVE",
"295 216 CURVE SMOOTH",
"259 216 OFFCURVE",
"203 220 OFFCURVE",
"157 239 CURVE",
"133 192 LINE",
"191 172 OFFCURVE",
"242 162 OFFCURVE",
"284 162 CURVE SMOOTH",
"370 162 OFFCURVE",
"421 180 OFFCURVE",
"421 180 CURVE",
"421 237 LINE"
);
},
{
closed = 1;
nodes = (
"-2 456 LINE",
"-2 408 LINE",
"555 408 LINE",
"555 456 LINE"
);
},
{
closed = 1;
nodes = (
"401 0 LINE",
"457 0 LINE",
"457 456 LINE",
"401 456 LINE"
);
},
{
closed = 1;
nodes = (
"109 427 OFFCURVE",
"180 403 OFFCURVE",
"180 306 CURVE SMOOTH",
"180 209 OFFCURVE",
"66 206 OFFCURVE",
"66 206 CURVE SMOOTH",
"66 206 OFFCURVE",
"88 157 OFFCURVE",
"88 157 CURVE",
"127 157 OFFCURVE",
"234 191 OFFCURVE",
"234 304 CURVE SMOOTH",
"234 412 OFFCURVE",
"161 443 OFFCURVE",
"161 443 CURVE",
"109 427 LINE"
);
},
{
closed = 1;
nodes = (
"36 212 OFFCURVE",
"208 -18 OFFCURVE",
"208 -18 CURVE SMOOTH",
"208 -18 OFFCURVE",
"255 14 OFFCURVE",
"255 14 CURVE",
"77 244 LINE",
"36 212 LINE"
);
},
{
closed = 1;
nodes = (
"407 0 LINE",
"463 0 LINE",
"463 456 LINE",
"407 456 LINE"
);
},
{
closed = 1;
nodes = (
"427 237 OFFCURVE",
"384 216 OFFCURVE",
"301 216 CURVE SMOOTH",
"265 216 OFFCURVE",
"209 220 OFFCURVE",
"163 239 CURVE",
"139 192 LINE",
"197 172 OFFCURVE",
"248 162 OFFCURVE",
"290 162 CURVE SMOOTH",
"376 162 OFFCURVE",
"427 180 OFFCURVE",
"427 180 CURVE",
"427 237 LINE"
);
},
{
closed = 1;
nodes = (
"-2 456 LINE",
"-2 408 LINE",
"561 408 LINE",
"561 456 LINE"
);
},
{
closed = 1;
nodes = (
"407 0 LINE",
"463 0 LINE",
"463 456 LINE",
"407 456 LINE"
);
}
);
};
layerId = "CFA4B904-E3F1-48B6-A7F6-47DC1FF2A3E1";
name = Bold;
paths = (
{
closed = 1;
nodes = (
"-24 466 LINE",
"-24 396 LINE",
"567 396 LINE",
"567 466 LINE"
);
},
{
closed = 1;
nodes = (
"393 0 LINE",
"478 0 LINE",
"478 466 LINE",
"393 466 LINE"
);
},
{
closed = 1;
nodes = (
"427 248 OFFCURVE",
"384 223 OFFCURVE",
"312 223 CURVE SMOOTH",
"245 223 OFFCURVE",
"234 233 OFFCURVE",
"198 248 CURVE",
"139 190 LINE",
"197 160 OFFCURVE",
"258 148 OFFCURVE",
"300 148 CURVE SMOOTH",
"366 148 OFFCURVE",
"427 167 OFFCURVE",
"427 167 CURVE",
"427 248 LINE"
);
},
{
closed = 1;
nodes = (
"102 423 OFFCURVE",
"176 403 OFFCURVE",
"176 306 CURVE SMOOTH",
"176 217 OFFCURVE",
"69 216 OFFCURVE",
"69 216 CURVE SMOOTH",
"69 216 OFFCURVE",
"99 147 OFFCURVE",
"99 147 CURVE",
"157 147 OFFCURVE",
"256 195 OFFCURVE",
"256 304 CURVE SMOOTH",
"256 410 OFFCURVE",
"183 448 OFFCURVE",
"183 448 CURVE",
"102 423 LINE"
);
},
{
closed = 1;
nodes = (
"195 -20 LINE",
"195 -20 OFFCURVE",
"263 27 OFFCURVE",
"263 27 CURVE",
"85 254 LINE",
"22 205 LINE"
);
}
);
width = 543;
}
);
unicode = 0938;
},
{
glyphname = "ha-deva";
lastChange = "2014-09-25 07:13:09 +0000";
layers = (
{
anchors = (
{
name = top;
position = "{300, 447}";
}
);
background = {
paths = (
{
closed = 1;
nodes = (
"-24 466 LINE",
"-24 396 LINE",
"446 396 LINE",
"446 466 LINE"
);
},
{
closed = 1;
nodes = (
"175 198 OFFCURVE",
"141 213 OFFCURVE",
"141 242 CURVE SMOOTH",
"141 265 OFFCURVE",
"167 272 OFFCURVE",
"217 272 CURVE SMOOTH",
"271 272 OFFCURVE",
"292 267 OFFCURVE",
"327 263 CURVE",
"337 270 LINE",
"337 466 LINE",
"261 466 LINE",
"261 342 LINE",
"245 345 OFFCURVE",
"223 346 OFFCURVE",
"210 346 CURVE SMOOTH",
"117 346 OFFCURVE",
"59 317 OFFCURVE",
"59 246 CURVE SMOOTH",
"59 201 OFFCURVE",
"80 176 OFFCURVE",
"111 143 CURVE",
"176 198 LINE"
);
},
{
closed = 1;
nodes = (
"62 -27 OFFCURVE",
"155 -80 OFFCURVE",
"306 -80 CURVE",
"322 -8 LINE",
"215 -8 OFFCURVE",
"138 18 OFFCURVE",
"138 78 CURVE SMOOTH",
"138 121 OFFCURVE",
"174 144 OFFCURVE",
"230 144 CURVE",
"261 142 OFFCURVE",
"283 136 OFFCURVE",
"283 111 CURVE SMOOTH",
"283 95 OFFCURVE",
"276 86 OFFCURVE",
"269 77 CURVE",
"333 34 LINE",
"349 53 OFFCURVE",
"365 77 OFFCURVE",
"365 111 CURVE SMOOTH",
"365 182 OFFCURVE",
"304 219 OFFCURVE",
"224 219 CURVE SMOOTH",
"185 219 OFFCURVE",
"158 208 OFFCURVE",
"132 195 CURVE SMOOTH",
"90 174 OFFCURVE",
"62 132 OFFCURVE",
"62 80 CURVE SMOOTH"
);
}
);
};
layerId = "CFA4B904-E3F1-48B6-A7F6-47DC1FF2A3E1";
name = Bold;
paths = (
{
closed = 1;
nodes = (
"-24 466 LINE",
"-24 396 LINE",
"446 396 LINE",
"446 466 LINE"
);
},
{
closed = 1;
nodes = (
"175 198 OFFCURVE",
"141 213 OFFCURVE",
"141 242 CURVE SMOOTH",
"141 265 OFFCURVE",
"167 272 OFFCURVE",
"217 272 CURVE SMOOTH",
"271 272 OFFCURVE",
"292 267 OFFCURVE",
"327 263 CURVE",
"337 270 LINE",
"337 466 LINE",
"261 466 LINE",
"261 342 LINE",
"245 345 OFFCURVE",
"223 346 OFFCURVE",
"210 346 CURVE SMOOTH",
"117 346 OFFCURVE",
"59 317 OFFCURVE",
"59 246 CURVE SMOOTH",
"59 201 OFFCURVE",
"80 176 OFFCURVE",
"111 143 CURVE",
"176 198 LINE"
);
},
{
closed = 1;
nodes = (
"62 -27 OFFCURVE",
"155 -80 OFFCURVE",
"306 -80 CURVE",
"322 -8 LINE",
"215 -8 OFFCURVE",
"138 18 OFFCURVE",
"138 78 CURVE SMOOTH",
"138 121 OFFCURVE",
"174 145 OFFCURVE",
"230 145 CURVE",
"261 143 OFFCURVE",
"287 135 OFFCURVE",
"287 110 CURVE SMOOTH",
"287 94 OFFCURVE",
"278 85 OFFCURVE",
"271 76 CURVE",
"332 35 LINE",
"348 54 OFFCURVE",
"365 77 OFFCURVE",
"365 111 CURVE SMOOTH",
"365 182 OFFCURVE",
"306 217 OFFCURVE",
"226 217 CURVE SMOOTH",
"187 217 OFFCURVE",
"157 207 OFFCURVE",
"131 194 CURVE SMOOTH",
"89 173 OFFCURVE",
"62 132 OFFCURVE",
"62 80 CURVE SMOOTH"
);
}
);
width = 422;
}
);
unicode = 0939;
},
{
glyphname = "khha-deva";
lastChange = "2014-09-30 04:02:12 +0000";
layers = (
{
anchors = (
{
name = bottom;
position = "{524, 5}";
},
{
name = top;
position = "{524, 447}";
}
);
components = (
{
name = "nukta-deva";
transform = "{1, 0, 0, 1, 77, 101}";
}
);
layerId = "CFA4B904-E3F1-48B6-A7F6-47DC1FF2A3E1";
name = Bold;
paths = (
{
closed = 1;
nodes = (
"81 423 OFFCURVE",
"167 403 OFFCURVE",
"167 306 CURVE SMOOTH",
"167 217 OFFCURVE",
"58 216 OFFCURVE",
"58 216 CURVE SMOOTH",
"58 216 OFFCURVE",
"88 148 OFFCURVE",
"88 148 CURVE",
"146 148 OFFCURVE",
"245 195 OFFCURVE",
"245 304 CURVE SMOOTH",
"245 410 OFFCURVE",
"157 448 OFFCURVE",
"157 448 CURVE",
"81 423 LINE"
);
},
{
closed = 1;
nodes = (
"212 -25 LINE",
"212 -25 OFFCURVE",
"274 26 OFFCURVE",
"274 26 CURVE",
"74 254 LINE",
"16 205 LINE"
);
},
{
closed = 1;
nodes = (
"-24 466 LINE",
"-24 396 LINE",
"301 396 LINE",
"301 466 LINE"
);
},
{
closed = 1;
nodes = (
"207 466 LINE",
"207 396 LINE",
"656 396 LINE",
"656 466 LINE"
);
},
{
closed = 1;
nodes = (
"345 245 OFFCURVE",
"374 265 OFFCURVE",
"420 265 CURVE SMOOTH",
"482 265 OFFCURVE",
"508 220 OFFCURVE",
"524 203 CURVE",
"540 284 LINE",
"522 307 OFFCURVE",
"476 345 OFFCURVE",
"412 345 CURVE SMOOTH",
"329 345 OFFCURVE",
"261 295 OFFCURVE",
"261 197 CURVE SMOOTH",
"261 103 OFFCURVE",
"333 53 OFFCURVE",
"416 53 CURVE SMOOTH",
"488 53 OFFCURVE",
"513 82 OFFCURVE",
"540 100 CURVE",
"524 180 LINE",
"508 163 OFFCURVE",
"482 129 OFFCURVE",
"430 129 CURVE SMOOTH",
"384 129 OFFCURVE",
"345 149 OFFCURVE",
"345 197 CURVE SMOOTH"
);
},
{
closed = 1;
nodes = (
"482 0 LINE",
"567 0 LINE",
"567 466 LINE",
"482 466 LINE"
);
}
);
width = 622;
}
);
unicode = 0959;
},
{
glyphname = "ghha-deva";
lastChange = "2014-09-19 12:34:04 +0000";
layers = (
{
anchors = (
{
name = bottom;
position = "{350, 5}";
},
{
name = top;
position = "{350, 447}";
}
);
background = {
paths = (
{
closed = 1;
nodes = (
"-27 466 LINE",
"-27 396 LINE",
"458 396 LINE",
"458 466 LINE"
);
},
{
closed = 1;
nodes = (
"288 0 LINE",
"373 0 LINE",
"373 466 LINE",
"288 466 LINE"
);
},
{
closed = 1;
nodes = (
"18 266 LINE",
"18 224 LINE",
"98 111 LINE",
"98 111 OFFCURVE",
"155 111 OFFCURVE",
"155 111 CURVE",
"155 266 LINE"
);
},
{
closed = 1;
nodes = (
"80 206 LINE",
"155 206 LINE",
"155 466 LINE",
"80 466 LINE"
);
}
);
};
components = (
{
name = "nukta-deva";
transform = "{1, 0, 0, 1, 227, 94}";
}
);
layerId = "CFA4B904-E3F1-48B6-A7F6-47DC1FF2A3E1";
name = Bold;
paths = (
{
closed = 1;
nodes = (
"-24 466 LINE",
"-24 396 LINE",
"482 396 LINE",
"482 466 LINE"
);
},
{
closed = 1;
nodes = (
"308 0 LINE",
"393 0 LINE",
"393 466 LINE",
"308 466 LINE"
);
},
{
closed = 1;
nodes = (
"28 276 LINE",
"28 234 LINE",
"118 111 LINE",
"118 111 OFFCURVE",
"175 111 OFFCURVE",
"175 111 CURVE",
"175 276 LINE"
);
},
{
closed = 1;
nodes = (
"90 216 LINE",
"175 216 LINE",
"175 466 LINE",
"90 466 LINE"
);
}
);
width = 458;
}
);
unicode = 095A;
},
{
glyphname = "za-deva";
lastChange = "2014-09-29 12:37:54 +0000";
layers = (
{
anchors = (
{
name = bottom;
position = "{459, 5}";
},
{
name = top;
position = "{459, 447}";
}
);
background = {
components = (
{
name = "nukta-deva";
transform = "{1, 0, 0, 1, 191, 40}";
}
);
paths = (
{
closed = 1;
nodes = (
"-27 466 LINE",
"-27 396 LINE",
"565 396 LINE",
"565 466 LINE"
);
},
{
closed = 1;
nodes = (
"397 0 LINE",
"482 0 LINE",
"482 466 LINE",
"397 466 LINE"
);
},
{
closed = 1;
nodes = (
"228 314 LINE",
"224 243 LINE",
"432 243 LINE",
"432 314 LINE"
);
},
{
closed = 1;
nodes = (
"342 206 OFFCURVE",
"334 251 OFFCURVE",
"286 285 CURVE SMOOTH",
"275 293 OFFCURVE",
"251 306 OFFCURVE",
"238 314 CURVE",
"195 314 LINE",
"195 246 LINE",
"246 246 OFFCURVE",
"259 217 OFFCURVE",
"259 184 CURVE SMOOTH",
"259 150 OFFCURVE",
"237 127 OFFCURVE",
"201 127 CURVE SMOOTH",
"149 127 OFFCURVE",
"115 173 OFFCURVE",
"80 274 CURVE",
"7 245 LINE",
"44 124 OFFCURVE",
"102 45 OFFCURVE",
"201 45 CURVE SMOOTH",
"278 45 OFFCURVE",
"342 87 OFFCURVE",
"342 176 CURVE SMOOTH"
);
},
{
closed = 1;
nodes = (
"412 0 LINE",
"468 0 LINE",
"468 456 LINE",
"412 456 LINE"
);
},
{
closed = 1;
nodes = (
"-21 456 LINE",
"-21 408 LINE",
"566 408 LINE",
"566 456 LINE"
);
},
{
closed = 1;
nodes = (
"433 294 OFFCURVE",
"298 294 OFFCURVE",
"234 294 CURVE",
"230 246 LINE",
"302 246 OFFCURVE",
"433 246 OFFCURVE",
"433 246 CURVE",
"433 294 LINE"
);
},
{
closed = 1;
nodes = (
"337 196 OFFCURVE",
"327 241 OFFCURVE",
"279 275 CURVE SMOOTH",
"268 283 OFFCURVE",
"257 286 OFFCURVE",
"244 294 CURVE",
"201 294 LINE",
"201 249 LINE",
"267 249 OFFCURVE",
"285 203 OFFCURVE",
"285 170 CURVE SMOOTH",
"285 122 OFFCURVE",
"250 97 OFFCURVE",
"207 97 CURVE SMOOTH",
"149 97 OFFCURVE",
"94 154 OFFCURVE",
"64 255 CURVE",
"17 235 LINE",
"54 114 OFFCURVE",
"119 45 OFFCURVE",
"208 45 CURVE SMOOTH",
"259 45 OFFCURVE",
"337 74 OFFCURVE",
"337 166 CURVE SMOOTH"
);
}
);
};
components = (
{
name = "nukta-deva";
transform = "{1, 0, 0, 1, 191, 40}";
}
);
guideLines = (
{
angle = 90;
position = "{434, 275}";
}
);
layerId = "CFA4B904-E3F1-48B6-A7F6-47DC1FF2A3E1";
name = Bold;
paths = (
{
closed = 1;
nodes = (
"-24 466 LINE",
"-24 396 LINE",
"591 396 LINE",
"591 466 LINE"
);
},
{
closed = 1;
nodes = (
"417 0 LINE",
"502 0 LINE",
"502 466 LINE",
"417 466 LINE"
);
},
{
closed = 1;
nodes = (
"238 313 LINE",
"234 244 LINE",
"452 244 LINE",
"452 313 LINE"
);
},
{
closed = 1;
nodes = (
"348 207 OFFCURVE",
"340 252 OFFCURVE",
"292 286 CURVE SMOOTH",
"281 294 OFFCURVE",
"261 305 OFFCURVE",
"248 313 CURVE",
"205 313 LINE",
"205 247 LINE",
"256 247 OFFCURVE",
"269 218 OFFCURVE",
"269 185 CURVE SMOOTH",
"269 151 OFFCURVE",
"247 128 OFFCURVE",
"211 128 CURVE SMOOTH",
"159 128 OFFCURVE",
"125 174 OFFCURVE",
"90 275 CURVE",
"21 247 LINE",
"58 126 OFFCURVE",
"116 50 OFFCURVE",
"211 50 CURVE SMOOTH",
"288 50 OFFCURVE",
"348 97 OFFCURVE",
"348 177 CURVE SMOOTH"
);
}
);
width = 567;
}
);
unicode = 095B;
},
{
glyphname = "fa-deva";
lastChange = "2014-10-16 08:24:23 +0000";
layers = (
{
anchors = (
{
name = bottom;
position = "{340, 5}";
},
{
name = top;
position = "{340, 447}";
}
);
background = {
paths = (
{
closed = 1;
nodes = (
"349 226 OFFCURVE",
"295 179 OFFCURVE",
"211 179 CURVE SMOOTH",
"157 179 OFFCURVE",
"140 214 OFFCURVE",
"140 270 CURVE SMOOTH",
"140 456 LINE",
"55 456 LINE",
"55 244 LINE SMOOTH",
"55 164 OFFCURVE",
"113 103 OFFCURVE",
"213 103 CURVE SMOOTH",
"286 103 OFFCURVE",
"349 143 OFFCURVE",
"349 143 CURVE",
"349 226 LINE"
);
},
{
closed = 1;
nodes = (
"294 0 LINE",
"379 0 LINE",
"379 466 LINE",
"294 466 LINE"
);
},
{
closed = 1;
nodes = (
"-27 466 LINE",
"-27 396 LINE",
"657 396 LINE",
"657 466 LINE"
);
},
{
closed = 1;
nodes = (
"603 291 OFFCURVE",
"549 345 OFFCURVE",
"462 345 CURVE SMOOTH",
"390 345 OFFCURVE",
"357 308 OFFCURVE",
"330 290 CURVE",
"344 206 LINE",
"360 218 OFFCURVE",
"402 267 OFFCURVE",
"458 267 CURVE SMOOTH",
"503 267 OFFCURVE",
"522 236 OFFCURVE",
"522 200 CURVE SMOOTH",
"522 154 OFFCURVE",
"497 134 OFFCURVE",
"468 107 CURVE",
"528 50 LINE",
"572 88 OFFCURVE",
"603 128 OFFCURVE",
"603 199 CURVE SMOOTH"
);
}
);
};
components = (
{
name = "nukta-deva";
transform = "{1, 0, 0, 1, 183, 104}";
}
);
layerId = "CFA4B904-E3F1-48B6-A7F6-47DC1FF2A3E1";
name = Bold;
paths = (
{
closed = 1;
nodes = (
"354 231 OFFCURVE",
"300 184 OFFCURVE",
"216 184 CURVE SMOOTH",
"162 184 OFFCURVE",
"145 219 OFFCURVE",
"145 275 CURVE SMOOTH",
"145 466 LINE",
"60 466 LINE",
"60 249 LINE SMOOTH",
"60 169 OFFCURVE",
"118 108 OFFCURVE",
"218 108 CURVE SMOOTH",
"291 108 OFFCURVE",
"354 148 OFFCURVE",
"354 148 CURVE",
"354 231 LINE"
);
},
{
closed = 1;
nodes = (
"299 0 LINE",
"384 0 LINE",
"384 466 LINE",
"299 466 LINE"
);
},
{
closed = 1;
nodes = (
"-24 466 LINE",
"-24 396 LINE",
"677 396 LINE",
"677 466 LINE"
);
},
{
closed = 1;
nodes = (
"609 293 OFFCURVE",
"549 342 OFFCURVE",
"467 342 CURVE SMOOTH",
"395 342 OFFCURVE",
"362 305 OFFCURVE",
"335 287 CURVE",
"349 207 LINE",
"365 219 OFFCURVE",
"417 264 OFFCURVE",
"463 264 CURVE SMOOTH",
"508 264 OFFCURVE",
"527 238 OFFCURVE",
"527 202 CURVE SMOOTH",
"527 156 OFFCURVE",
"494 129 OFFCURVE",
"473 109 CURVE",
"530 52 LINE",
"570 85 OFFCURVE",
"609 131 OFFCURVE",
"609 201 CURVE SMOOTH"
);
}
);
width = 650;
}
);
unicode = 095E;
},
{
color = 8;
glyphname = "zha-deva";
lastChange = "2014-09-23 13:49:23 +0000";
layers = (
{
components = (
{
name = "ja-deva";
transform = "{1, 0, 0, 1, 0, 0}";
}
);
layerId = "CFA4B904-E3F1-48B6-A7F6-47DC1FF2A3E1";
name = Bold;
paths = (
{
closed = 1;
nodes = (
"166 -83 OFFCURVE",
"183 -66 OFFCURVE",
"183 -42 CURVE SMOOTH",
"183 -16 OFFCURVE",
"166 0 OFFCURVE",
"141 0 CURVE SMOOTH",
"117 0 OFFCURVE",
"100 -17 OFFCURVE",
"100 -42 CURVE SMOOTH",
"100 -66 OFFCURVE",
"117 -83 OFFCURVE",
"141 -83 CURVE SMOOTH"
);
},
{
closed = 1;
nodes = (
"286 -83 OFFCURVE",
"303 -66 OFFCURVE",
"303 -42 CURVE SMOOTH",
"303 -16 OFFCURVE",
"286 0 OFFCURVE",
"261 0 CURVE SMOOTH",
"237 0 OFFCURVE",
"220 -17 OFFCURVE",
"220 -42 CURVE SMOOTH",
"220 -66 OFFCURVE",
"237 -83 OFFCURVE",
"261 -83 CURVE SMOOTH"
);
},
{
closed = 1;
nodes = (
"225 -173 OFFCURVE",
"242 -156 OFFCURVE",
"242 -132 CURVE SMOOTH",
"242 -106 OFFCURVE",
"225 -90 OFFCURVE",
"200 -90 CURVE SMOOTH",
"176 -90 OFFCURVE",
"159 -107 OFFCURVE",
"159 -132 CURVE SMOOTH",
"159 -156 OFFCURVE",
"176 -173 OFFCURVE",
"200 -173 CURVE SMOOTH"
);
}
);
width = 567;
}
);
unicode = 0979;
},
{
color = 8;
glyphname = "gga-deva";
lastChange = "2014-09-23 13:28:33 +0000";
layers = (
{
anchors = (
{
name = bottom;
position = "{350, 5}";
},
{
name = top;
position = "{350, 447}";
}
);
background = {
paths = (
{
closed = 1;
nodes = (
"313 -10 LINE",
"369 -10 LINE",
"369 456 LINE",
"313 456 LINE"
);
},
{
closed = 1;
nodes = (
"92 151 LINE",
"147 151 LINE",
"147 456 LINE",
"92 456 LINE"
);
},
{
closed = 1;
nodes = (
"-24 456 LINE",
"-24 408 LINE",
"467 408 LINE",
"467 456 LINE"
);
},
{
closed = 1;
nodes = (
"34 215 LINE",
"34 181 LINE",
"109 90 LINE",
"109 90 OFFCURVE",
"147 90 OFFCURVE",
"147 90 CURVE",
"147 215 LINE"
);
},
{
closed = 1;
nodes = (
"34 0 LINE",
"34 -48 LINE",
"369 -48 LINE",
"369 0 LINE"
);
}
);
};
layerId = "CFA4B904-E3F1-48B6-A7F6-47DC1FF2A3E1";
name = Bold;
paths = (
{
closed = 1;
nodes = (
"-24 466 LINE",
"-24 396 LINE",
"482 396 LINE",
"482 466 LINE"
);
},
{
closed = 1;
nodes = (
"308 -10 LINE",
"393 -10 LINE",
"393 466 LINE",
"308 466 LINE"
);
},
{
closed = 1;
nodes = (
"28 240 LINE",
"28 198 LINE",
"118 75 LINE",
"118 75 OFFCURVE",
"175 75 OFFCURVE",
"175 75 CURVE",
"175 240 LINE"
);
},
{
closed = 1;
nodes = (
"90 180 LINE",
"175 180 LINE",
"175 466 LINE",
"90 466 LINE"
);
},
{
closed = 1;
nodes = (
"45 -69 LINE",
"393 -69 LINE",
"393 0 LINE",
"45 0 LINE"
);
}
);
width = 458;
}
);
unicode = 097B;
},
{
color = 8;
glyphname = "jja-deva";
lastChange = "2014-09-23 13:51:13 +0000";
layers = (
{
anchors = (
{
name = bottom;
position = "{459, 5}";
},
{
name = top;
position = "{459, 447}";
}
);
layerId = "CFA4B904-E3F1-48B6-A7F6-47DC1FF2A3E1";
name = Bold;
paths = (
{
closed = 1;
nodes = (
"-24 466 LINE",
"-24 396 LINE",
"591 396 LINE",
"591 466 LINE"
);
},
{
closed = 1;
nodes = (
"417 -10 LINE",
"502 -10 LINE",
"502 466 LINE",
"417 466 LINE"
);
},
{
closed = 1;
nodes = (
"238 309 LINE",
"234 240 LINE",
"452 240 LINE",
"452 309 LINE"
);
},
{
closed = 1;
nodes = (
"349 203 OFFCURVE",
"340 248 OFFCURVE",
"292 282 CURVE SMOOTH",
"281 290 OFFCURVE",
"261 301 OFFCURVE",
"248 309 CURVE",
"205 309 LINE",
"205 243 LINE",
"256 243 OFFCURVE",
"269 214 OFFCURVE",
"269 181 CURVE SMOOTH",
"269 147 OFFCURVE",
"245 124 OFFCURVE",
"209 124 CURVE SMOOTH",
"157 124 OFFCURVE",
"125 170 OFFCURVE",
"90 271 CURVE",
"19 242 LINE",
"56 121 OFFCURVE",
"116 44 OFFCURVE",
"211 44 CURVE SMOOTH",
"288 44 OFFCURVE",
"349 91 OFFCURVE",
"349 173 CURVE SMOOTH"
);
},
{
closed = 1;
nodes = (
"34 -69 LINE",
"502 -69 LINE",
"502 0 LINE",
"34 0 LINE"
);
}
);
width = 567;
}
);
unicode = 097C;
},
{
color = 8;
glyphname = "ddda-deva";
lastChange = "2014-09-23 13:57:19 +0000";
layers = (
{
components = (
{
name = "dda-deva";
transform = "{1, 0, 0, 1, 0, 0}";
}
);
layerId = "CFA4B904-E3F1-48B6-A7F6-47DC1FF2A3E1";
name = Bold;
paths = (
{
closed = 1;
nodes = (
"66 -109 LINE",
"364 -109 LINE",
"364 -40 LINE",
"66 -40 LINE"
);
}
);
width = 433;
}
);
unicode = 097E;
},
{
color = 8;
glyphname = "bba-deva";
lastChange = "2014-09-23 13:58:29 +0000";
layers = (
{
anchors = (
{
name = bottom;
position = "{327, 5}";
},
{
name = top;
position = "{327, 447}";
}
);
layerId = "CFA4B904-E3F1-48B6-A7F6-47DC1FF2A3E1";
name = Bold;
paths = (
{
closed = 1;
nodes = (
"-24 466 LINE",
"-24 396 LINE",
"459 396 LINE",
"459 466 LINE"
);
},
{
closed = 1;
nodes = (
"115 246 OFFCURVE",
"157 269 OFFCURVE",
"203 269 CURVE SMOOTH",
"255 269 OFFCURVE",
"281 242 OFFCURVE",
"297 229 CURVE",
"313 302 LINE",
"286 318 OFFCURVE",
"253 343 OFFCURVE",
"189 343 CURVE SMOOTH",
"106 343 OFFCURVE",
"37 293 OFFCURVE",
"37 198 CURVE SMOOTH",
"37 107 OFFCURVE",
"106 54 OFFCURVE",
"189 54 CURVE SMOOTH",
"251 54 OFFCURVE",
"286 76 OFFCURVE",
"313 94 CURVE",
"297 171 LINE",
"281 159 OFFCURVE",
"255 126 OFFCURVE",
"203 126 CURVE SMOOTH",
"157 126 OFFCURVE",
"115 150 OFFCURVE",
"115 198 CURVE SMOOTH"
);
},
{
closed = 1;
nodes = (
"285 -10 LINE",
"370 -10 LINE",
"370 466 LINE",
"285 466 LINE"
);
},
{
closed = 1;
nodes = (
"272 91 LINE",
"314 131 LINE",
"145 307 LINE",
"96 271 LINE"
);
},
{
closed = 1;
nodes = (
"42 -69 LINE",
"370 -69 LINE",
"370 0 LINE",
"42 0 LINE"
);
}
);
width = 435;
}
);
unicode = 097F;
},
{
color = 3;
glyphname = "k_kha-deva";
lastChange = "2014-09-22 09:28:50 +0000";
layers = (
{
anchors = (
{
name = bottom;
position = "{995, 5}";
},
{
name = top;
position = "{995, 447}";
}
);
background = {
paths = (
{
closed = 1;
nodes = (
"551 269 LINE",
"527 296 OFFCURVE",
"483 335 OFFCURVE",
"419 335 CURVE SMOOTH",
"347 335 OFFCURVE",
"314 298 OFFCURVE",
"287 280 CURVE",
"301 208 LINE",
"317 220 OFFCURVE",
"369 265 OFFCURVE",
"415 265 CURVE SMOOTH",
"452 265 OFFCURVE",
"483 240 OFFCURVE",
"505 210 CURVE"
);
},
{
closed = 1;
nodes = (
"-24 466 LINE",
"-24 396 LINE",
"463 396 LINE",
"463 466 LINE"
);
},
{
closed = 1;
nodes = (
"276 0 LINE",
"358 0 LINE",
"358 466 LINE",
"276 466 LINE"
);
},
{
closed = 1;
nodes = (
"121 245 OFFCURVE",
"160 265 OFFCURVE",
"206 265 CURVE SMOOTH",
"258 265 OFFCURVE",
"284 240 OFFCURVE",
"300 223 CURVE",
"316 299 LINE",
"289 315 OFFCURVE",
"256 340 OFFCURVE",
"192 340 CURVE SMOOTH",
"109 340 OFFCURVE",
"42 290 OFFCURVE",
"42 197 CURVE SMOOTH",
"42 108 OFFCURVE",
"109 55 OFFCURVE",
"192 55 CURVE SMOOTH",
"254 55 OFFCURVE",
"289 77 OFFCURVE",
"316 95 CURVE",
"300 170 LINE",
"284 158 OFFCURVE",
"258 129 OFFCURVE",
"206 129 CURVE SMOOTH",
"160 129 OFFCURVE",
"121 149 OFFCURVE",
"121 197 CURVE SMOOTH"
);
},
{
closed = 1;
nodes = (
"532 423 OFFCURVE",
"618 403 OFFCURVE",
"618 306 CURVE SMOOTH",
"618 217 OFFCURVE",
"509 216 OFFCURVE",
"509 216 CURVE SMOOTH",
"509 216 OFFCURVE",
"539 148 OFFCURVE",
"539 148 CURVE",
"597 148 OFFCURVE",
"696 195 OFFCURVE",
"696 304 CURVE SMOOTH",
"696 410 OFFCURVE",
"608 448 OFFCURVE",
"608 448 CURVE",
"532 423 LINE"
);
},
{
closed = 1;
nodes = (
"663 -25 LINE",
"663 -25 OFFCURVE",
"725 26 OFFCURVE",
"725 26 CURVE",
"525 254 LINE",
"467 205 LINE"
);
},
{
closed = 1;
nodes = (
"437 466 LINE",
"437 396 LINE",
"752 396 LINE",
"752 466 LINE"
);
},
{
closed = 1;
nodes = (
"658 466 LINE",
"658 396 LINE",
"1107 396 LINE",
"1107 466 LINE"
);
},
{
closed = 1;
nodes = (
"796 245 OFFCURVE",
"825 265 OFFCURVE",
"871 265 CURVE SMOOTH",
"933 265 OFFCURVE",
"959 220 OFFCURVE",
"975 203 CURVE",
"991 284 LINE",
"973 307 OFFCURVE",
"927 345 OFFCURVE",
"863 345 CURVE SMOOTH",
"780 345 OFFCURVE",
"712 295 OFFCURVE",
"712 197 CURVE SMOOTH",
"712 103 OFFCURVE",
"784 53 OFFCURVE",
"867 53 CURVE SMOOTH",
"939 53 OFFCURVE",
"964 82 OFFCURVE",
"991 100 CURVE",
"975 180 LINE",
"959 163 OFFCURVE",
"933 129 OFFCURVE",
"881 129 CURVE SMOOTH",
"835 129 OFFCURVE",
"796 149 OFFCURVE",
"796 197 CURVE SMOOTH"
);
},
{
closed = 1;
nodes = (
"933 0 LINE",
"1018 0 LINE",
"1018 466 LINE",
"933 466 LINE"
);
}
);
};
layerId = "CFA4B904-E3F1-48B6-A7F6-47DC1FF2A3E1";
name = Bold;
paths = (
{
closed = 1;
nodes = (
"545 254 LINE",
"517 306 OFFCURVE",
"477 335 OFFCURVE",
"419 335 CURVE SMOOTH",
"347 335 OFFCURVE",
"314 298 OFFCURVE",
"287 280 CURVE",
"301 208 LINE",
"317 220 OFFCURVE",
"359 265 OFFCURVE",
"411 265 CURVE SMOOTH",
"442 265 OFFCURVE",
"465 253 OFFCURVE",
"487 205 CURVE"
);
},
{
closed = 1;
nodes = (
"-24 466 LINE",
"-24 396 LINE",
"483 396 LINE",
"483 466 LINE"
);
},
{
closed = 1;
nodes = (
"276 0 LINE",
"358 0 LINE",
"358 466 LINE",
"276 466 LINE"
);
},
{
closed = 1;
nodes = (
"121 245 OFFCURVE",
"160 265 OFFCURVE",
"206 265 CURVE SMOOTH",
"258 265 OFFCURVE",
"284 240 OFFCURVE",
"300 223 CURVE",
"316 299 LINE",
"289 315 OFFCURVE",
"256 340 OFFCURVE",
"192 340 CURVE SMOOTH",
"109 340 OFFCURVE",
"42 290 OFFCURVE",
"42 197 CURVE SMOOTH",
"42 108 OFFCURVE",
"109 55 OFFCURVE",
"192 55 CURVE SMOOTH",
"254 55 OFFCURVE",
"289 77 OFFCURVE",
"316 95 CURVE",
"300 170 LINE",
"284 158 OFFCURVE",
"258 129 OFFCURVE",
"206 129 CURVE SMOOTH",
"160 129 OFFCURVE",
"121 149 OFFCURVE",
"121 197 CURVE SMOOTH"
);
},
{
closed = 1;
nodes = (
"552 423 OFFCURVE",
"638 403 OFFCURVE",
"638 306 CURVE SMOOTH",
"638 217 OFFCURVE",
"529 216 OFFCURVE",
"529 216 CURVE SMOOTH",
"529 216 OFFCURVE",
"559 148 OFFCURVE",
"559 148 CURVE",
"617 148 OFFCURVE",
"716 195 OFFCURVE",
"716 304 CURVE SMOOTH",
"716 410 OFFCURVE",
"628 448 OFFCURVE",
"628 448 CURVE",
"552 423 LINE"
);
},
{
closed = 1;
nodes = (
"683 -25 LINE",
"683 -25 OFFCURVE",
"745 26 OFFCURVE",
"745 26 CURVE",
"545 254 LINE",
"487 205 LINE"
);
},
{
closed = 1;
nodes = (
"457 466 LINE",
"457 396 LINE",
"772 396 LINE",
"772 466 LINE"
);
},
{
closed = 1;
nodes = (
"678 466 LINE",
"678 396 LINE",
"1127 396 LINE",
"1127 466 LINE"
);
},
{
closed = 1;
nodes = (
"816 245 OFFCURVE",
"845 265 OFFCURVE",
"891 265 CURVE SMOOTH",
"953 265 OFFCURVE",
"979 220 OFFCURVE",
"995 203 CURVE",
"1011 284 LINE",
"993 307 OFFCURVE",
"947 345 OFFCURVE",
"883 345 CURVE SMOOTH",
"800 345 OFFCURVE",
"732 295 OFFCURVE",
"732 197 CURVE SMOOTH",
"732 103 OFFCURVE",
"804 53 OFFCURVE",
"887 53 CURVE SMOOTH",
"959 53 OFFCURVE",
"984 82 OFFCURVE",
"1011 100 CURVE",
"995 180 LINE",
"979 163 OFFCURVE",
"953 129 OFFCURVE",
"901 129 CURVE SMOOTH",
"855 129 OFFCURVE",
"816 149 OFFCURVE",
"816 197 CURVE SMOOTH"
);
},
{
closed = 1;
nodes = (
"953 0 LINE",
"1038 0 LINE",
"1038 466 LINE",
"953 466 LINE"
);
}
);
width = 1103;
}
);
leftMetricsKey = "k-deva";
},
{
color = 3;
glyphname = "k_ca-deva";
lastChange = "2014-09-22 09:43:17 +0000";
layers = (
{
anchors = (
{
name = bottom;
position = "{859, 5}";
},
{
name = top;
position = "{859, 447}";
}
);
layerId = "CFA4B904-E3F1-48B6-A7F6-47DC1FF2A3E1";
name = Bold;
paths = (
{
closed = 1;
nodes = (
"547 275 LINE",
"523 302 OFFCURVE",
"486 335 OFFCURVE",
"422 335 CURVE SMOOTH",
"350 335 OFFCURVE",
"314 286 OFFCURVE",
"287 268 CURVE",
"301 202 LINE",
"317 214 OFFCURVE",
"374 267 OFFCURVE",
"420 267 CURVE SMOOTH",
"452 267 OFFCURVE",
"475 256 OFFCURVE",
"497 234 CURVE"
);
},
{
closed = 1;
nodes = (
"-24 466 LINE",
"-24 396 LINE",
"463 396 LINE",
"463 466 LINE"
);
},
{
closed = 1;
nodes = (
"276 0 LINE",
"358 0 LINE",
"358 466 LINE",
"276 466 LINE"
);
},
{
closed = 1;
nodes = (
"121 239 OFFCURVE",
"160 259 OFFCURVE",
"206 259 CURVE SMOOTH",
"258 259 OFFCURVE",
"284 234 OFFCURVE",
"300 217 CURVE",
"316 293 LINE",
"289 309 OFFCURVE",
"256 334 OFFCURVE",
"192 334 CURVE SMOOTH",
"109 334 OFFCURVE",
"42 284 OFFCURVE",
"42 191 CURVE SMOOTH",
"42 102 OFFCURVE",
"109 49 OFFCURVE",
"192 49 CURVE SMOOTH",
"254 49 OFFCURVE",
"289 71 OFFCURVE",
"316 89 CURVE",
"300 164 LINE",
"284 152 OFFCURVE",
"258 123 OFFCURVE",
"206 123 CURVE SMOOTH",
"160 123 OFFCURVE",
"121 143 OFFCURVE",
"121 191 CURVE SMOOTH"
);
},
{
closed = 1;
nodes = (
"603 271 OFFCURVE",
"571 255 OFFCURVE",
"571 197 CURVE SMOOTH",
"571 112 OFFCURVE",
"638 61 OFFCURVE",
"723 61 CURVE SMOOTH",
"819 61 OFFCURVE",
"854 104 OFFCURVE",
"854 105 CURVE",
"854 201 LINE",
"854 201 OFFCURVE",
"821 139 OFFCURVE",
"731 139 CURVE SMOOTH",
"693 139 OFFCURVE",
"656 154 OFFCURVE",
"656 197 CURVE SMOOTH",
"656 230 OFFCURVE",
"670 261 OFFCURVE",
"737 269 CURVE",
"631 279 LINE"
);
},
{
closed = 1;
nodes = (
"451 466 LINE",
"451 396 LINE",
"991 396 LINE",
"991 466 LINE"
);
},
{
closed = 1;
nodes = (
"817 0 LINE",
"902 0 LINE",
"902 466 LINE",
"817 466 LINE"
);
},
{
closed = 1;
nodes = (
"497 306 LINE",
"497 234 LINE",
"754 234 LINE",
"754 306 LINE"
);
}
);
width = 931;
}
);
leftMetricsKey = "k-deva";
rightMetricsKey = "ca-deva";
},
{
color = 3;
glyphname = "k_cha-deva";
lastChange = "2014-09-22 09:46:23 +0000";
layers = (
{
anchors = (
{
name = bottom;
position = "{693, -45}";
},
{
name = top;
position = "{845, 447}";
}
);
background = {
paths = (
{
closed = 1;
nodes = (
"1031 396 LINE",
"1031 466 LINE",
"415 466 LINE",
"415 396 LINE"
);
},
{
closed = 1;
nodes = (
"899 121 OFFCURVE",
"831 64 OFFCURVE",
"710 64 CURVE SMOOTH",
"635 64 OFFCURVE",
"584 99 OFFCURVE",
"584 147 CURVE SMOOTH",
"584 191 OFFCURVE",
"619 223 OFFCURVE",
"697 219 CURVE",
"702 219 LINE",
"702 282 LINE",
"693 282 LINE SMOOTH",
"599 282 OFFCURVE",
"592 323 OFFCURVE",
"592 344 CURVE SMOOTH",
"592 378 OFFCURVE",
"609 400 OFFCURVE",
"655 408 CURVE",
"693 456 LINE",
"658 456 OFFCURVE",
"584 444 OFFCURVE",
"553 424 CURVE SMOOTH",
"520 403 OFFCURVE",
"508 373 OFFCURVE",
"508 344 CURVE SMOOTH",
"508 295 OFFCURVE",
"548 260 OFFCURVE",
"573 252 CURVE",
"549 242 OFFCURVE",
"500 204 OFFCURVE",
"500 138 CURVE SMOOTH",
"500 44 OFFCURVE",
"597 -14 OFFCURVE",
"710 -14 CURVE SMOOTH",
"844 -14 OFFCURVE",
"977 57 OFFCURVE",
"977 199 CURVE SMOOTH",
"977 298 OFFCURVE",
"919 349 OFFCURVE",
"856 349 CURVE SMOOTH",
"799 349 OFFCURVE",
"742 298 OFFCURVE",
"742 211 CURVE SMOOTH",
"742 137 OFFCURVE",
"781 78 OFFCURVE",
"790 63 CURVE",
"790 63 OFFCURVE",
"866 94 OFFCURVE",
"866 94 CURVE SMOOTH",
"866 94 OFFCURVE",
"820 140 OFFCURVE",
"820 208 CURVE SMOOTH",
"820 246 OFFCURVE",
"832 274 OFFCURVE",
"858 274 CURVE SMOOTH",
"880 274 OFFCURVE",
"899 253 OFFCURVE",
"899 207 CURVE SMOOTH"
);
},
{
closed = 1;
nodes = (
"822 333 LINE",
"902 333 LINE",
"902 466 LINE",
"822 466 LINE"
);
},
{
closed = 1;
nodes = (
"551 269 LINE",
"527 296 OFFCURVE",
"483 335 OFFCURVE",
"419 335 CURVE SMOOTH",
"347 335 OFFCURVE",
"314 298 OFFCURVE",
"287 280 CURVE",
"301 208 LINE",
"317 220 OFFCURVE",
"369 265 OFFCURVE",
"415 265 CURVE SMOOTH",
"452 265 OFFCURVE",
"483 240 OFFCURVE",
"505 210 CURVE"
);
},
{
closed = 1;
nodes = (
"-24 466 LINE",
"-24 396 LINE",
"463 396 LINE",
"463 466 LINE"
);
},
{
closed = 1;
nodes = (
"276 0 LINE",
"358 0 LINE",
"358 466 LINE",
"276 466 LINE"
);
},
{
closed = 1;
nodes = (
"121 245 OFFCURVE",
"160 265 OFFCURVE",
"206 265 CURVE SMOOTH",
"258 265 OFFCURVE",
"284 240 OFFCURVE",
"300 223 CURVE",
"316 299 LINE",
"289 315 OFFCURVE",
"256 340 OFFCURVE",
"192 340 CURVE SMOOTH",
"109 340 OFFCURVE",
"42 290 OFFCURVE",
"42 197 CURVE SMOOTH",
"42 108 OFFCURVE",
"109 55 OFFCURVE",
"192 55 CURVE SMOOTH",
"254 55 OFFCURVE",
"289 77 OFFCURVE",
"316 95 CURVE",
"300 170 LINE",
"284 158 OFFCURVE",
"258 129 OFFCURVE",
"206 129 CURVE SMOOTH",
"160 129 OFFCURVE",
"121 149 OFFCURVE",
"121 197 CURVE SMOOTH"
);
}
);
};
layerId = "CFA4B904-E3F1-48B6-A7F6-47DC1FF2A3E1";
name = Bold;
paths = (
{
closed = 1;
nodes = (
"1014 396 LINE",
"1014 466 LINE",
"398 466 LINE",
"398 396 LINE"
);
},
{
closed = 1;
nodes = (
"882 121 OFFCURVE",
"814 64 OFFCURVE",
"693 64 CURVE SMOOTH",
"618 64 OFFCURVE",
"567 99 OFFCURVE",
"567 147 CURVE SMOOTH",
"567 191 OFFCURVE",
"602 223 OFFCURVE",
"680 219 CURVE",
"685 219 LINE",
"685 282 LINE",
"676 282 LINE SMOOTH",
"582 282 OFFCURVE",
"575 323 OFFCURVE",
"575 344 CURVE SMOOTH",
"575 378 OFFCURVE",
"592 400 OFFCURVE",
"638 408 CURVE",
"676 456 LINE",
"641 456 OFFCURVE",
"567 444 OFFCURVE",
"536 424 CURVE SMOOTH",
"503 403 OFFCURVE",
"491 373 OFFCURVE",
"491 344 CURVE SMOOTH",
"491 295 OFFCURVE",
"531 260 OFFCURVE",
"556 252 CURVE",
"532 242 OFFCURVE",
"483 204 OFFCURVE",
"483 138 CURVE SMOOTH",
"483 44 OFFCURVE",
"580 -14 OFFCURVE",
"693 -14 CURVE SMOOTH",
"827 -14 OFFCURVE",
"960 57 OFFCURVE",
"960 199 CURVE SMOOTH",
"960 298 OFFCURVE",
"902 349 OFFCURVE",
"839 349 CURVE SMOOTH",
"782 349 OFFCURVE",
"725 298 OFFCURVE",
"725 211 CURVE SMOOTH",
"725 137 OFFCURVE",
"764 78 OFFCURVE",
"773 63 CURVE",
"773 63 OFFCURVE",
"849 94 OFFCURVE",
"849 94 CURVE SMOOTH",
"849 94 OFFCURVE",
"803 140 OFFCURVE",
"803 208 CURVE SMOOTH",
"803 246 OFFCURVE",
"815 274 OFFCURVE",
"841 274 CURVE SMOOTH",
"863 274 OFFCURVE",
"882 253 OFFCURVE",
"882 207 CURVE SMOOTH"
);
},
{
closed = 1;
nodes = (
"805 333 LINE",
"885 333 LINE",
"885 466 LINE",
"805 466 LINE"
);
},
{
closed = 1;
nodes = (
"601 239 LINE",
"560 279 OFFCURVE",
"503 335 OFFCURVE",
"429 335 CURVE SMOOTH",
"357 335 OFFCURVE",
"314 298 OFFCURVE",
"287 280 CURVE",
"301 208 LINE",
"317 220 OFFCURVE",
"359 265 OFFCURVE",
"435 265 CURVE SMOOTH",
"478 265 OFFCURVE",
"515 245 OFFCURVE",
"555 219 CURVE"
);
},
{
closed = 1;
nodes = (
"-24 466 LINE",
"-24 396 LINE",
"463 396 LINE",
"463 466 LINE"
);
},
{
closed = 1;
nodes = (
"276 0 LINE",
"358 0 LINE",
"358 466 LINE",
"276 466 LINE"
);
},
{
closed = 1;
nodes = (
"121 245 OFFCURVE",
"160 265 OFFCURVE",
"206 265 CURVE SMOOTH",
"258 265 OFFCURVE",
"284 240 OFFCURVE",
"300 223 CURVE",
"316 299 LINE",
"289 315 OFFCURVE",
"256 340 OFFCURVE",
"192 340 CURVE SMOOTH",
"109 340 OFFCURVE",
"42 290 OFFCURVE",
"42 197 CURVE SMOOTH",
"42 108 OFFCURVE",
"109 55 OFFCURVE",
"192 55 CURVE SMOOTH",
"254 55 OFFCURVE",
"289 77 OFFCURVE",
"316 95 CURVE",
"300 170 LINE",
"284 158 OFFCURVE",
"258 129 OFFCURVE",
"206 129 CURVE SMOOTH",
"160 129 OFFCURVE",
"121 149 OFFCURVE",
"121 197 CURVE SMOOTH"
);
}
);
width = 990;
}
);
leftMetricsKey = "k-deva";
},
{
color = 3;
glyphname = "k_ta-deva";
lastChange = "2014-09-24 06:31:24 +0000";
layers = (
{
anchors = (
{
name = bottom;
position = "{382, 5}";
},
{
name = top;
position = "{382, 447}";
}
);
layerId = "CFA4B904-E3F1-48B6-A7F6-47DC1FF2A3E1";
rightMetricsKey = "ta-deva";
name = Bold;
paths = (
{
closed = 1;
nodes = (
"411 305 OFFCURVE",
"328 305 OFFCURVE",
"244 305 CURVE SMOOTH",
"146 305 OFFCURVE",
"91 272 OFFCURVE",
"91 185 CURVE SMOOTH",
"91 118 OFFCURVE",
"138 38 OFFCURVE",
"174 -22 CURVE",
"244 19 LINE",
"216 68 OFFCURVE",
"176 132 OFFCURVE",
"176 177 CURVE SMOOTH",
"176 219 OFFCURVE",
"199 232 OFFCURVE",
"269 232 CURVE SMOOTH",
"411 232 LINE",
"411 305 LINE"
);
},
{
closed = 1;
nodes = (
"24 236 LINE",
"366 236 LINE",
"366 305 LINE",
"24 302 LINE"
);
},
{
closed = 1;
nodes = (
"626 271 OFFCURVE",
"566 320 OFFCURVE",
"484 320 CURVE SMOOTH",
"412 320 OFFCURVE",
"379 283 OFFCURVE",
"352 265 CURVE",
"366 185 LINE",
"382 197 OFFCURVE",
"434 242 OFFCURVE",
"480 242 CURVE SMOOTH",
"525 242 OFFCURVE",
"544 216 OFFCURVE",
"544 180 CURVE SMOOTH",
"544 134 OFFCURVE",
"511 107 OFFCURVE",
"490 87 CURVE",
"547 30 LINE",
"587 63 OFFCURVE",
"626 109 OFFCURVE",
"626 179 CURVE SMOOTH"
);
},
{
closed = 1;
nodes = (
"-24 466 LINE",
"-24 396 LINE",
"694 396 LINE",
"694 466 LINE"
);
},
{
closed = 1;
nodes = (
"341 0 LINE",
"423 0 LINE",
"423 466 LINE",
"341 466 LINE"
);
}
);
width = 670;
}
);
leftMetricsKey = "k-deva";
rightMetricsKey = "ta-deva";
},
{
color = 3;
glyphname = "k_tha-deva";
lastChange = "2014-09-22 08:32:47 +0000";
layers = (
{
anchors = (
{
name = bottom;
position = "{862, 5}";
},
{
name = top;
position = "{862, 447}";
}
);
background = {
paths = (
{
closed = 1;
nodes = (
"551 269 LINE",
"527 296 OFFCURVE",
"483 335 OFFCURVE",
"419 335 CURVE SMOOTH",
"347 335 OFFCURVE",
"314 298 OFFCURVE",
"287 280 CURVE",
"301 208 LINE",
"317 220 OFFCURVE",
"369 265 OFFCURVE",
"415 265 CURVE SMOOTH",
"452 265 OFFCURVE",
"483 240 OFFCURVE",
"505 210 CURVE"
);
}
);
};
layerId = "CFA4B904-E3F1-48B6-A7F6-47DC1FF2A3E1";
name = Bold;
paths = (
{
closed = 1;
nodes = (
"572 233 LINE",
"523 291 OFFCURVE",
"475 317 OFFCURVE",
"420 317 CURVE SMOOTH",
"380 317 OFFCURVE",
"340 305 OFFCURVE",
"287 284 CURVE",
"301 208 LINE",
"347 231 OFFCURVE",
"384 245 OFFCURVE",
"417 245 CURVE SMOOTH",
"456 245 OFFCURVE",
"483 224 OFFCURVE",
"515 182 CURVE"
);
},
{
closed = 1;
nodes = (
"-24 466 LINE",
"-24 396 LINE",
"503 396 LINE",
"503 466 LINE"
);
},
{
closed = 1;
nodes = (
"276 0 LINE",
"358 0 LINE",
"358 466 LINE",
"276 466 LINE"
);
},
{
closed = 1;
nodes = (
"121 245 OFFCURVE",
"160 265 OFFCURVE",
"206 265 CURVE SMOOTH",
"258 265 OFFCURVE",
"284 240 OFFCURVE",
"300 223 CURVE",
"316 299 LINE",
"289 315 OFFCURVE",
"256 340 OFFCURVE",
"192 340 CURVE SMOOTH",
"109 340 OFFCURVE",
"42 290 OFFCURVE",
"42 197 CURVE SMOOTH",
"42 108 OFFCURVE",
"109 55 OFFCURVE",
"192 55 CURVE SMOOTH",
"254 55 OFFCURVE",
"289 77 OFFCURVE",
"316 95 CURVE",
"300 170 LINE",
"284 158 OFFCURVE",
"258 129 OFFCURVE",
"206 129 CURVE SMOOTH",
"160 129 OFFCURVE",
"121 149 OFFCURVE",
"121 197 CURVE SMOOTH"
);
},
{
closed = 1;
nodes = (
"643 405 OFFCURVE",
"656 377 OFFCURVE",
"656 350 CURVE SMOOTH",
"656 280 OFFCURVE",
"584 247 OFFCURVE",
"528 217 CURVE",
"515 182 LINE",
"542 136 OFFCURVE",
"617 74 OFFCURVE",
"708 74 CURVE SMOOTH",
"780 74 OFFCURVE",
"833 116 OFFCURVE",
"833 116 CURVE",
"833 224 LINE",
"807 179 OFFCURVE",
"754 156 OFFCURVE",
"703 156 CURVE SMOOTH",
"671 156 OFFCURVE",
"645 167 OFFCURVE",
"626 181 CURVE",
"688 228 OFFCURVE",
"736 269 OFFCURVE",
"736 346 CURVE SMOOTH",
"736 410 OFFCURVE",
"696 478 OFFCURVE",
"617 478 CURVE",
"550 478 OFFCURVE",
"509 434 OFFCURVE",
"509 379 CURVE",
"509 327 OFFCURVE",
"542 301 OFFCURVE",
"573 284 CURVE",
"613 341 LINE",
"600 350 OFFCURVE",
"585 361 OFFCURVE",
"585 379 CURVE",
"585 392 OFFCURVE",
"592 405 OFFCURVE",
"615 405 CURVE"
);
},
{
closed = 1;
nodes = (
"774 466 LINE",
"774 396 LINE",
"994 396 LINE",
"994 466 LINE"
);
},
{
closed = 1;
nodes = (
"820 0 LINE",
"905 0 LINE",
"905 466 LINE",
"820 466 LINE"
);
}
);
width = 970;
}
);
leftMetricsKey = "k-deva";
},
{
color = 2;
glyphname = "k_na-deva";
lastChange = "2014-09-22 10:42:30 +0000";
layers = (
{
anchors = (
{
name = bottom;
position = "{323, -45}";
},
{
name = top;
position = "{324, 447}";
}
);
layerId = "CFA4B904-E3F1-48B6-A7F6-47DC1FF2A3E1";
name = Bold;
paths = (
{
closed = 1;
nodes = (
"561 296 OFFCURVE",
"501 341 OFFCURVE",
"419 341 CURVE SMOOTH",
"347 341 OFFCURVE",
"314 304 OFFCURVE",
"287 286 CURVE",
"301 206 LINE",
"317 218 OFFCURVE",
"369 263 OFFCURVE",
"415 263 CURVE SMOOTH",
"460 263 OFFCURVE",
"479 241 OFFCURVE",
"479 205 CURVE SMOOTH",
"479 159 OFFCURVE",
"446 132 OFFCURVE",
"425 112 CURVE",
"482 55 LINE",
"522 88 OFFCURVE",
"561 134 OFFCURVE",
"561 204 CURVE SMOOTH"
);
},
{
closed = 1;
nodes = (
"-24 466 LINE",
"-24 396 LINE",
"629 396 LINE",
"629 466 LINE"
);
},
{
closed = 1;
nodes = (
"276 0 LINE",
"358 0 LINE",
"358 466 LINE",
"276 466 LINE"
);
},
{
closed = 1;
nodes = (
"121 250 OFFCURVE",
"160 267 OFFCURVE",
"206 267 CURVE SMOOTH",
"258 267 OFFCURVE",
"284 242 OFFCURVE",
"300 225 CURVE",
"316 301 LINE",
"289 317 OFFCURVE",
"256 342 OFFCURVE",
"192 342 CURVE SMOOTH",
"109 342 OFFCURVE",
"42 295 OFFCURVE",
"42 202 CURVE SMOOTH",
"42 121 OFFCURVE",
"109 64 OFFCURVE",
"192 64 CURVE SMOOTH",
"254 64 OFFCURVE",
"289 86 OFFCURVE",
"316 104 CURVE",
"302 170 LINE",
"300 179 LINE",
"284 167 OFFCURVE",
"258 138 OFFCURVE",
"206 138 CURVE SMOOTH",
"160 138 OFFCURVE",
"121 160 OFFCURVE",
"121 202 CURVE SMOOTH"
);
},
{
closed = 1;
nodes = (
"111 -25 LINE",
"328 110 LINE",
"309 151 LINE",
"59 34 LINE"
);
},
{
closed = 1;
nodes = (
"59 34 LINE",
"68 -1 LINE",
"161 -77 LINE",
"161 -77 OFFCURVE",
"201 -58 OFFCURVE",
"201 -58 CURVE",
"146 61 LINE"
);
}
);
width = 605;
}
);
leftMetricsKey = "k-deva";
rightMetricsKey = "na-deva";
},
{
color = 3;
glyphname = "k_ma-deva";
lastChange = "2014-09-22 09:24:40 +0000";
layers = (
{
anchors = (
{
name = bottom;
position = "{803, 5}";
},
{
name = top;
position = "{803, 447}";
}
);
background = {
paths = (
{
closed = 1;
nodes = (
"551 269 LINE",
"527 296 OFFCURVE",
"483 335 OFFCURVE",
"419 335 CURVE SMOOTH",
"347 335 OFFCURVE",
"314 298 OFFCURVE",
"287 280 CURVE",
"301 208 LINE",
"317 220 OFFCURVE",
"369 265 OFFCURVE",
"415 265 CURVE SMOOTH",
"452 265 OFFCURVE",
"483 240 OFFCURVE",
"505 210 CURVE"
);
},
{
closed = 1;
nodes = (
"-24 466 LINE",
"-24 396 LINE",
"463 396 LINE",
"463 466 LINE"
);
},
{
closed = 1;
nodes = (
"276 0 LINE",
"358 0 LINE",
"358 466 LINE",
"276 466 LINE"
);
},
{
closed = 1;
nodes = (
"121 245 OFFCURVE",
"160 265 OFFCURVE",
"206 265 CURVE SMOOTH",
"258 265 OFFCURVE",
"284 240 OFFCURVE",
"300 223 CURVE",
"316 299 LINE",
"289 315 OFFCURVE",
"256 340 OFFCURVE",
"192 340 CURVE SMOOTH",
"109 340 OFFCURVE",
"42 290 OFFCURVE",
"42 197 CURVE SMOOTH",
"42 108 OFFCURVE",
"109 55 OFFCURVE",
"192 55 CURVE SMOOTH",
"254 55 OFFCURVE",
"289 77 OFFCURVE",
"316 95 CURVE",
"300 170 LINE",
"284 158 OFFCURVE",
"258 129 OFFCURVE",
"206 129 CURVE SMOOTH",
"160 129 OFFCURVE",
"121 149 OFFCURVE",
"121 197 CURVE SMOOTH"
);
},
{
closed = 1;
nodes = (
"788 0 LINE",
"873 0 LINE",
"873 466 LINE",
"788 466 LINE"
);
},
{
closed = 1;
nodes = (
"415 466 LINE",
"415 396 LINE",
"962 396 LINE",
"962 466 LINE"
);
},
{
closed = 1;
nodes = (
"478 216 LINE",
"478 174 LINE",
"577 51 LINE",
"577 51 OFFCURVE",
"634 51 OFFCURVE",
"634 51 CURVE",
"634 216 LINE"
);
},
{
closed = 1;
nodes = (
"573 216 LINE",
"573 138 LINE",
"826 138 LINE",
"826 216 LINE"
);
},
{
closed = 1;
nodes = (
"549 138 LINE",
"634 138 LINE",
"634 466 LINE",
"549 466 LINE"
);
}
);
};
layerId = "CFA4B904-E3F1-48B6-A7F6-47DC1FF2A3E1";
name = Bold;
paths = (
{
closed = 1;
nodes = (
"588 306 LINE",
"547 320 OFFCURVE",
"497 332 OFFCURVE",
"459 332 CURVE SMOOTH",
"393 332 OFFCURVE",
"343 312 OFFCURVE",
"287 275 CURVE",
"301 199 LINE",
"338 230 OFFCURVE",
"387 261 OFFCURVE",
"454 262 CURVE SMOOTH",
"485 262 OFFCURVE",
"524 254 OFFCURVE",
"561 239 CURVE"
);
},
{
closed = 1;
nodes = (
"-24 466 LINE",
"-24 396 LINE",
"463 396 LINE",
"463 466 LINE"
);
},
{
closed = 1;
nodes = (
"276 0 LINE",
"358 0 LINE",
"358 466 LINE",
"276 466 LINE"
);
},
{
closed = 1;
nodes = (
"121 245 OFFCURVE",
"160 265 OFFCURVE",
"206 265 CURVE SMOOTH",
"258 265 OFFCURVE",
"284 240 OFFCURVE",
"300 223 CURVE",
"316 299 LINE",
"289 315 OFFCURVE",
"256 340 OFFCURVE",
"192 340 CURVE SMOOTH",
"109 340 OFFCURVE",
"42 290 OFFCURVE",
"42 197 CURVE SMOOTH",
"42 108 OFFCURVE",
"109 55 OFFCURVE",
"192 55 CURVE SMOOTH",
"254 55 OFFCURVE",
"289 77 OFFCURVE",
"316 95 CURVE",
"300 170 LINE",
"284 158 OFFCURVE",
"258 129 OFFCURVE",
"206 129 CURVE SMOOTH",
"160 129 OFFCURVE",
"121 149 OFFCURVE",
"121 197 CURVE SMOOTH"
);
},
{
closed = 1;
nodes = (
"761 0 LINE",
"846 0 LINE",
"846 466 LINE",
"761 466 LINE"
);
},
{
closed = 1;
nodes = (
"388 466 LINE",
"388 396 LINE",
"935 396 LINE",
"935 466 LINE"
);
},
{
closed = 1;
nodes = (
"451 216 LINE",
"451 174 LINE",
"550 51 LINE",
"550 51 OFFCURVE",
"607 51 OFFCURVE",
"607 51 CURVE",
"607 216 LINE"
);
},
{
closed = 1;
nodes = (
"546 216 LINE",
"546 138 LINE",
"799 138 LINE",
"799 216 LINE"
);
},
{
closed = 1;
nodes = (
"522 138 LINE",
"607 138 LINE",
"607 466 LINE",
"522 466 LINE"
);
}
);
width = 911;
}
);
leftMetricsKey = "k-deva";
},
{
color = 1;
glyphname = "k_ra-deva";
layers = (
{
anchors = (
{
name = bottom;
position = "{317, 5}";
},
{
name = top;
position = "{324, 447}";
}
);
background = {
paths = (
{
closed = 1;
nodes = (
"291 0 LINE",
"344 0 LINE",
"344 456 LINE",
"291 456 LINE"
);
},
{
closed = 1;
nodes = (
"10 456 LINE",
"10 408 LINE",
"607 408 LINE",
"607 456 LINE"
);
},
{
closed = 1;
nodes = (
"62 128 OFFCURVE",
"122 77 OFFCURVE",
"205 77 CURVE SMOOTH",
"267 77 OFFCURVE",
"300 100 OFFCURVE",
"327 118 CURVE",
"313 169 LINE",
"297 157 OFFCURVE",
"271 124 OFFCURVE",
"214 124 CURVE SMOOTH",
"155 124 OFFCURVE",
"118 151 OFFCURVE",
"118 205 CURVE SMOOTH",
"118 258 OFFCURVE",
"155 286 OFFCURVE",
"209 286 CURVE SMOOTH",
"261 286 OFFCURVE",
"297 253 OFFCURVE",
"313 241 CURVE",
"327 292 LINE",
"300 310 OFFCURVE",
"257 337 OFFCURVE",
"205 337 CURVE SMOOTH",
"122 337 OFFCURVE",
"62 286 OFFCURVE",
"62 205 CURVE SMOOTH"
);
},
{
closed = 1;
nodes = (
"548 280 OFFCURVE",
"494 333 OFFCURVE",
"411 333 CURVE SMOOTH",
"359 333 OFFCURVE",
"316 296 OFFCURVE",
"289 278 CURVE",
"303 227 LINE",
"319 239 OFFCURVE",
"361 282 OFFCURVE",
"407 282 CURVE SMOOTH",
"461 282 OFFCURVE",
"492 254 OFFCURVE",
"492 207 CURVE SMOOTH",
"492 156 OFFCURVE",
"455 128 OFFCURVE",
"426 101 CURVE",
"465 62 LINE",
"502 91 OFFCURVE",
"548 138 OFFCURVE",
"548 201 CURVE SMOOTH"
);
},
{
closed = 1;
nodes = (
"94 18 OFFCURVE",
"130 -21 OFFCURVE",
"130 -21 CURVE",
"337 125 LINE",
"307 151 LINE",
"94 18 LINE"
);
}
);
};
layerId = "CFA4B904-E3F1-48B6-A7F6-47DC1FF2A3E1";
name = Bold;
paths = (
{
closed = 1;
nodes = (
"561 296 OFFCURVE",
"501 341 OFFCURVE",
"419 341 CURVE SMOOTH",
"347 341 OFFCURVE",
"314 304 OFFCURVE",
"287 286 CURVE",
"301 206 LINE",
"317 218 OFFCURVE",
"369 263 OFFCURVE",
"415 263 CURVE SMOOTH",
"460 263 OFFCURVE",
"479 241 OFFCURVE",
"479 205 CURVE SMOOTH",
"479 159 OFFCURVE",
"446 132 OFFCURVE",
"425 112 CURVE",
"482 55 LINE",
"522 88 OFFCURVE",
"561 134 OFFCURVE",
"561 204 CURVE SMOOTH"
);
},
{
closed = 1;
nodes = (
"-24 466 LINE",
"-24 396 LINE",
"629 396 LINE",
"629 466 LINE"
);
},
{
closed = 1;
nodes = (
"276 0 LINE",
"358 0 LINE",
"358 466 LINE",
"276 466 LINE"
);
},
{
closed = 1;
nodes = (
"121 250 OFFCURVE",
"160 267 OFFCURVE",
"206 267 CURVE SMOOTH",
"258 267 OFFCURVE",
"284 242 OFFCURVE",
"300 225 CURVE",
"316 301 LINE",
"289 317 OFFCURVE",
"256 342 OFFCURVE",
"192 342 CURVE SMOOTH",
"109 342 OFFCURVE",
"42 295 OFFCURVE",
"42 202 CURVE SMOOTH",
"42 121 OFFCURVE",
"109 64 OFFCURVE",
"192 64 CURVE SMOOTH",
"254 64 OFFCURVE",
"289 86 OFFCURVE",
"316 104 CURVE",
"302 170 LINE",
"300 179 LINE",
"284 167 OFFCURVE",
"258 138 OFFCURVE",
"206 138 CURVE SMOOTH",
"160 138 OFFCURVE",
"121 160 OFFCURVE",
"121 202 CURVE SMOOTH"
);
},
{
closed = 1;
nodes = (
"100 -29 LINE",
"328 110 LINE",
"309 151 LINE",
"48 30 LINE"
);
}
);
width = 605;
}
);
leftMetricsKey = "k-deva";
rightMetricsKey = "ra-deva";
},
{
color = 3;
glyphname = "k_sha-deva";
lastChange = "2014-09-22 08:38:42 +0000";
layers = (
{
anchors = (
{
name = bottom;
position = "{925, 5}";
},
{
name = top;
position = "{925, 447}";
}
);
background = {
paths = (
{
closed = 1;
nodes = (
"551 269 LINE",
"527 296 OFFCURVE",
"483 335 OFFCURVE",
"419 335 CURVE SMOOTH",
"347 335 OFFCURVE",
"314 298 OFFCURVE",
"287 280 CURVE",
"301 208 LINE",
"317 220 OFFCURVE",
"369 265 OFFCURVE",
"415 265 CURVE SMOOTH",
"452 265 OFFCURVE",
"483 240 OFFCURVE",
"505 210 CURVE"
);
}
);
};
layerId = "CFA4B904-E3F1-48B6-A7F6-47DC1FF2A3E1";
name = Bold;
paths = (
{
closed = 1;
nodes = (
"-24 466 LINE",
"-24 396 LINE",
"494 396 LINE",
"494 466 LINE"
);
},
{
closed = 1;
nodes = (
"276 0 LINE",
"358 0 LINE",
"358 466 LINE",
"276 466 LINE"
);
},
{
closed = 1;
nodes = (
"121 245 OFFCURVE",
"160 265 OFFCURVE",
"206 265 CURVE SMOOTH",
"258 265 OFFCURVE",
"284 240 OFFCURVE",
"300 223 CURVE",
"316 299 LINE",
"289 315 OFFCURVE",
"256 340 OFFCURVE",
"192 340 CURVE SMOOTH",
"109 340 OFFCURVE",
"42 290 OFFCURVE",
"42 197 CURVE SMOOTH",
"42 108 OFFCURVE",
"109 55 OFFCURVE",
"192 55 CURVE SMOOTH",
"254 55 OFFCURVE",
"289 77 OFFCURVE",
"316 95 CURVE",
"300 170 LINE",
"284 158 OFFCURVE",
"258 129 OFFCURVE",
"206 129 CURVE SMOOTH",
"160 129 OFFCURVE",
"121 149 OFFCURVE",
"121 197 CURVE SMOOTH"
);
},
{
closed = 1;
nodes = (
"775 426 OFFCURVE",
"718 479 OFFCURVE",
"644 479 CURVE SMOOTH",
"585 479 OFFCURVE",
"530 443 OFFCURVE",
"530 373 CURVE SMOOTH",
"530 323 OFFCURVE",
"558 291 OFFCURVE",
"607 262 CURVE",
"647 322 LINE",
"623 340 OFFCURVE",
"610 351 OFFCURVE",
"610 372 CURVE SMOOTH",
"610 392 OFFCURVE",
"623 403 OFFCURVE",
"644 403 CURVE SMOOTH",
"670 403 OFFCURVE",
"692 379 OFFCURVE",
"694 348 CURVE SMOOTH",
"700 253 OFFCURVE",
"602 200 OFFCURVE",
"567 181 CURVE",
"622 118 LINE",
"685 159 OFFCURVE",
"775 225 OFFCURVE",
"775 338 CURVE SMOOTH"
);
},
{
closed = 1;
nodes = (
"500 155 OFFCURVE",
"524 123 OFFCURVE",
"582 117 CURVE",
"705 -23 LINE",
"705 -23 OFFCURVE",
"762 32 OFFCURVE",
"762 32 CURVE",
"556 250 LINE",
"523 245 OFFCURVE",
"500 221 OFFCURVE",
"500 191 CURVE SMOOTH"
);
},
{
closed = 1;
nodes = (
"809 466 LINE",
"809 396 LINE",
"1056 396 LINE",
"1056 466 LINE"
);
},
{
closed = 1;
nodes = (
"882 0 LINE",
"967 0 LINE",
"967 466 LINE",
"882 466 LINE"
);
},
{
closed = 1;
nodes = (
"572 233 LINE",
"520 291 OFFCURVE",
"475 317 OFFCURVE",
"420 317 CURVE SMOOTH",
"380 317 OFFCURVE",
"340 305 OFFCURVE",
"287 284 CURVE",
"301 208 LINE",
"347 231 OFFCURVE",
"384 245 OFFCURVE",
"417 245 CURVE SMOOTH",
"456 245 OFFCURVE",
"483 224 OFFCURVE",
"515 182 CURVE"
);
}
);
width = 1032;
}
);
leftMetricsKey = "k-deva";
},
